<svg
  width="13"
  height="12"
  viewBox="0 0 13 12"
  fill="none"
  xmlns="http://www.w3.org/2000/svg"
>
<path
    fill-rule="evenodd"
    clip-rule="evenodd"
    d="M3.13477 1.39844C3.11621 0.604492 2.5293 0 1.57617 0C0.623047 0 0 0.604492 0 1.39844C0 2.17578 0.604492 2.79785 1.54004 2.79785H1.55762C2.5293 2.79785 3.13477 2.17578 3.13477 1.39844ZM13 7.35742C13 4.87012 11.625 3.71289 9.79199 3.71289C8.3125 3.71289 7.64941 4.49902 7.28027 5.0498V3.90332H4.49316C4.53027 4.66309 4.49316 12 4.49316 12H7.28027V7.47852C7.28027 7.23633 7.29785 6.99512 7.37207 6.82129C7.57324 6.33789 8.03125 5.83789 8.80176 5.83789C9.81055 5.83789 10.2129 6.58008 10.2129 7.66797V12H13V7.35742ZM0.164062 3.90332H2.9502V12H0.164062V3.90332Z"
    fill="#001E20"
  />
</svg>
