<svg
  width="14"
  height="14"
  viewBox="0 0 14 14"
  fill="none"
  xmlns="http://www.w3.org/2000/svg"
>
<path
    d="M0.84 1.68C1.30392 1.68 1.68 1.30392 1.68 0.84C1.68 0.376081 1.30392 0 0.84 0C0.376081 0 0 0.376081 0 0.84C0 1.30392 0.376081 1.68 0.84 1.68Z"
    transform="translate(9.78711 2.56445)"
    fill="#001E20"
  />
<path
    d="M3.5 7C1.56975 7 0 5.43025 0 3.5C0 1.56975 1.56975 0 3.5 0C5.43025 0 7 1.56975 7 3.5C7 5.43025 5.43025 7 3.5 7ZM3.5 1.75C2.53487 1.75 1.75 2.53487 1.75 3.5C1.75 4.46513 2.53487 5.25 3.5 5.25C4.46513 5.25 5.25 4.46513 5.25 3.5C5.25 2.53487 4.46513 1.75 3.5 1.75Z"
    transform="translate(3.5 3.5)"
    fill="#001E20"
  />
<path
    d="M10.5 14H3.5C1.701 14 0 12.299 0 10.5V3.5C0 1.701 1.701 0 3.5 0H10.5C12.299 0 14 1.701 14 3.5V10.5C14 12.299 12.299 14 10.5 14ZM3.5 1.75C2.68187 1.75 1.75 2.68187 1.75 3.5V10.5C1.75 11.3339 2.66613 12.25 3.5 12.25H10.5C11.3181 12.25 12.25 11.3181 12.25 10.5V3.5C12.25 2.68187 11.3181 1.75 10.5 1.75H3.5Z"
    fill="#001E20"
  />
</svg>
