<svg
  width="12"
  height="10"
  viewBox="0 0 12 10"
  fill="none"
  xmlns="http://www.w3.org/2000/svg"
>
<path
    fill-rule="evenodd"
    clip-rule="evenodd"
    d="M5.99975 4.29845C5.02451 4.29845 0 1.4455 0 1.4455V1C0 0.448 0.447422 0 0.999709 0H10.9998C11.5526 0 12 0.448 12 1L11.992 1.5C11.992 1.5 7.02193 4.29845 5.99975 4.29845ZM5.99975 5.67345C7.06887 5.67345 11.992 3 11.992 3L12 9C12 9.552 11.5526 10 10.9998 10H0.999709C0.447921 10 0 9.552 0 9L0.00798968 3C0.00749033 3 5.02451 5.67345 5.99975 5.67345Z"
    fill="#001E20"
  />
</svg>
