<svg xmlns="http://www.w3.org/2000/svg" viewBox="0 0 99.5 25.1"><g><g><g><g><g><path fill="#FFFFFF" d="M14.8,11.9c0-1.7,0.9-3.3,2.4-4.2c-0.9-1.3-2.4-2.1-4-2.2c-1.7-0.2-3.3,1-4.2,1 c-0.9,0-2.2-1-3.6-1C3.5,5.7,1.8,6.7,0.9,8.3c-1.9,3.3-0.5,8.3,1.4,11c0.9,1.3,2,2.8,3.4,2.8c1.4-0.1,1.9-0.9,3.6-0.9 c1.7,0,2.1,0.9,3.6,0.9c1.5,0,2.4-1.3,3.3-2.7c0.7-0.9,1.2-2,1.5-3.1C15.9,15.5,14.8,13.8,14.8,11.9z"/><path fill="#FFFFFF" d="M12.1,3.8c0.8-1,1.2-2.2,1.1-3.5C11.9,0.4,10.8,1,10,1.9C9.2,2.9,8.7,4.1,8.8,5.3 C10.1,5.3,11.3,4.8,12.1,3.8z"/></g></g><g><path fill="#FFFFFF" d="M32.3,18.7h-4.7l-1.1,3.4h-2l4.5-12.4H31l4.5,12.4h-2L32.3,18.7z M28.1,17.2h3.8L30,11.7h-0.1L28.1,17.2z" /><path fill="#FFFFFF" d="M45.2,17.5c0,2.8-1.5,4.6-3.8,4.6c-1.2,0.1-2.3-0.6-2.8-1.6h0v4.5h-1.9V13h1.8v1.5h0c0.6-1,1.7-1.6,2.9-1.6 C43.7,12.9,45.2,14.7,45.2,17.5z M43.3,17.5c0-1.8-0.9-3-2.4-3c-1.4,0-2.4,1.2-2.4,3c0,1.8,1,3,2.4,3 C42.3,20.6,43.3,19.4,43.3,17.5z"/><path fill="#FFFFFF" d="M55.2,17.5c0,2.8-1.5,4.6-3.8,4.6c-1.2,0.1-2.3-0.6-2.8-1.6h0v4.5h-1.9V13h1.8v1.5h0c0.6-1,1.7-1.6,2.9-1.6 C53.6,12.9,55.2,14.7,55.2,17.5z M53.2,17.5c0-1.8-0.9-3-2.4-3c-1.4,0-2.4,1.2-2.4,3c0,1.8,1,3,2.4,3 C52.3,20.6,53.2,19.4,53.2,17.5L53.2,17.5z"/><path fill="#FFFFFF" d="M61.7,18.6c0.1,1.2,1.3,2,3,2c1.6,0,2.7-0.8,2.7-1.9c0-1-0.7-1.5-2.3-1.9l-1.6-0.4 c-2.3-0.6-3.3-1.6-3.3-3.3c0-2.1,1.9-3.6,4.5-3.6c2.6,0,4.4,1.5,4.5,3.6h-1.9c-0.1-1.2-1.1-2-2.6-2c-1.5,0-2.5,0.8-2.5,1.9 c0,0.9,0.7,1.4,2.3,1.8l1.4,0.3c2.5,0.6,3.6,1.6,3.6,3.4c0,2.3-1.9,3.8-4.8,3.8c-2.8,0-4.6-1.4-4.7-3.7L61.7,18.6z"/><path fill="#FFFFFF" d="M73.4,10.9V13h1.7v1.5h-1.7v5c0,0.8,0.3,1.1,1.1,1.1c0.2,0,0.4,0,0.6,0V22c-0.3,0.1-0.7,0.1-1,0.1 c-1.8,0-2.5-0.7-2.5-2.4v-5.2h-1.3V13h1.3v-2.1H73.4z"/><path fill="#FFFFFF" d="M76.1,17.5c0-2.8,1.7-4.6,4.3-4.6c2.6,0,4.3,1.8,4.3,4.6c0,2.9-1.7,4.6-4.3,4.6 C77.8,22.2,76.1,20.4,76.1,17.5z M82.8,17.5c0-2-0.9-3.1-2.4-3.1S78,15.6,78,17.5c0,2,0.9,3.1,2.4,3.1S82.8,19.5,82.8,17.5 L82.8,17.5z"/><path fill="#FFFFFF" d="M86.2,13H88v1.5h0c0.2-1,1.2-1.7,2.2-1.6c0.2,0,0.4,0,0.6,0.1v1.7c-0.3-0.1-0.6-0.1-0.8-0.1 c-1,0-1.9,0.8-1.9,1.8c0,0.1,0,0.2,0,0.3v5.4h-1.9L86.2,13z"/><path fill="#FFFFFF" d="M99.4,19.4c-0.2,1.6-1.9,2.8-3.9,2.8c-2.6,0-4.3-1.8-4.3-4.6c0-2.8,1.6-4.7,4.2-4.7c2.5,0,4.1,1.7,4.1,4.5 V18h-6.4v0.1c-0.1,1.3,0.8,2.4,2.1,2.6c0.1,0,0.2,0,0.3,0c0.9,0.1,1.8-0.4,2.1-1.3L99.4,19.4z M93.1,16.7h4.5 c0.1-1.2-0.9-2.2-2.1-2.3c-0.1,0-0.1,0-0.2,0C94.2,14.4,93.1,15.4,93.1,16.7C93.1,16.7,93.1,16.7,93.1,16.7z"/></g></g></g><g><g><path fill="#FFFFFF" d="M27.9,0.3c1.5-0.1,2.7,1,2.8,2.4c0,0.2,0,0.3,0,0.5c0,1.9-1,3-2.8,3h-2.2v-6H27.9z M26.6,5.4h1.1 c1,0.1,1.9-0.7,2-1.8c0-0.1,0-0.3,0-0.4c0.1-1-0.6-2-1.6-2.1c-0.1,0-0.2,0-0.4,0h-1.1V5.4z"/><path fill="#FFFFFF" d="M31.7,4c-0.1-1.2,0.7-2.2,1.9-2.3c1.2-0.1,2.2,0.7,2.3,1.9c0,0.1,0,0.3,0,0.4c0.1,1.2-0.7,2.2-1.9,2.3 c-1.2,0.1-2.2-0.7-2.3-1.9C31.7,4.3,31.7,4.1,31.7,4z M35,4c0-1-0.4-1.5-1.2-1.5c-0.8,0-1.2,0.6-1.2,1.5c0,1,0.4,1.6,1.2,1.6 C34.6,5.6,35,5,35,4L35,4z"/><path fill="#FFFFFF" d="M41.6,6.3h-0.9l-0.9-3.3h-0.1l-0.9,3.3h-0.9l-1.2-4.5h0.9l0.8,3.4h0.1l0.9-3.4h0.9l0.9,3.4h0.1l0.8-3.4h0.9 L41.6,6.3z"/><path fill="#FFFFFF" d="M43.9,1.8h0.9v0.7h0.1c0.2-0.5,0.8-0.8,1.3-0.8C47,1.6,47.7,2.2,47.7,3c0,0.1,0,0.2,0,0.3v2.9h-0.9V3.6 c0-0.7-0.3-1.1-1-1.1c-0.6,0-1.1,0.4-1.1,1c0,0.1,0,0.1,0,0.2v2.6h-0.9L43.9,1.8z"/><path fill="#FFFFFF" d="M49.1,0H50v6.3h-0.9V0z"/><path fill="#FFFFFF" d="M51.2,4c-0.1-1.2,0.7-2.2,1.9-2.3c1.2-0.1,2.2,0.7,2.3,1.9c0,0.1,0,0.3,0,0.4c0.1,1.2-0.7,2.2-1.9,2.3 s-2.2-0.7-2.3-1.9C51.2,4.3,51.2,4.1,51.2,4z M54.6,4c0-1-0.4-1.5-1.2-1.5c-0.8,0-1.2,0.6-1.2,1.5c0,1,0.4,1.6,1.2,1.6 C54.1,5.6,54.6,5,54.6,4z"/><path fill="#FFFFFF" d="M56.4,5c0-0.8,0.6-1.3,1.7-1.3l1.2-0.1V3.2c0-0.5-0.3-0.7-0.9-0.7c-0.5,0-0.8,0.2-0.9,0.5h-0.9 c0.1-0.8,0.8-1.3,1.8-1.3c1.1,0,1.8,0.6,1.8,1.5v3.1h-0.9V5.6h-0.1c-0.3,0.5-0.8,0.7-1.4,0.7c-0.7,0.1-1.4-0.5-1.5-1.2 C56.4,5.1,56.4,5,56.4,5z M59.3,4.6V4.2l-1.1,0.1c-0.6,0-0.9,0.3-0.9,0.6c0,0.4,0.4,0.6,0.8,0.6C58.7,5.6,59.3,5.2,59.3,4.6 C59.3,4.6,59.3,4.6,59.3,4.6z"/><path fill="#FFFFFF" d="M61.4,4c0-1.4,0.7-2.3,1.9-2.3c0.6,0,1.1,0.3,1.4,0.8h0.1V0h0.9v6.3h-0.9V5.5h-0.1c-0.3,0.5-0.8,0.8-1.4,0.8 C62.1,6.3,61.4,5.4,61.4,4z M62.3,4c0,1,0.5,1.5,1.2,1.5c0.7,0,1.2-0.6,1.2-1.5c0-0.9-0.5-1.5-1.2-1.5C62.7,2.5,62.3,3.1,62.3,4 L62.3,4z"/><path fill="#FFFFFF" d="M69.3,4c-0.1-1.2,0.7-2.2,1.9-2.3s2.2,0.7,2.3,1.9c0,0.1,0,0.3,0,0.4c0.1,1.2-0.7,2.2-1.9,2.3 c-1.2,0.1-2.2-0.7-2.3-1.9C69.2,4.3,69.2,4.1,69.3,4z M72.6,4c0-1-0.4-1.5-1.2-1.5c-0.8,0-1.2,0.6-1.2,1.5c0,1,0.4,1.6,1.2,1.6 C72.2,5.6,72.6,5,72.6,4z"/><path fill="#FFFFFF" d="M74.7,1.8h0.9v0.7h0.1c0.2-0.5,0.8-0.8,1.3-0.8c0.8-0.1,1.5,0.5,1.6,1.4c0,0.1,0,0.2,0,0.3v2.9h-0.9V3.6 c0-0.7-0.3-1.1-1-1.1c-0.6,0-1.1,0.4-1.1,1c0,0.1,0,0.1,0,0.2v2.6h-0.9V1.8z"/><path fill="#FFFFFF" d="M83.5,0.6v1.1h1v0.7h-1v2.3c0,0.5,0.2,0.7,0.6,0.7c0.1,0,0.2,0,0.3,0v0.7c-0.2,0-0.3,0-0.5,0 c-1,0-1.4-0.3-1.4-1.2V2.5h-0.7V1.8h0.7V0.6H83.5z"/><path fill="#FFFFFF" d="M85.7,0h0.9v2.5h0.1c0.2-0.5,0.8-0.9,1.4-0.8c0.8,0,1.5,0.6,1.6,1.4c0,0.1,0,0.2,0,0.3v2.9h-0.9V3.6 c0-0.7-0.3-1.1-1-1.1c-0.6,0-1.1,0.4-1.1,1c0,0.1,0,0.1,0,0.2v2.6h-0.9L85.7,0z"/><path fill="#FFFFFF" d="M94.8,5c-0.2,0.8-1.1,1.4-2,1.3c-1.1,0-2.1-0.9-2.1-2c0-0.1,0-0.2,0-0.3c-0.2-1.1,0.6-2.2,1.8-2.3 c0.1,0,0.2,0,0.3,0c1.3,0,2,0.9,2,2.3v0.3h-3.2v0c-0.1,0.7,0.4,1.2,1.1,1.3c0,0,0.1,0,0.1,0c0.4,0.1,0.9-0.2,1.1-0.5L94.8,5z M91.7,3.6h2.3c0-0.6-0.4-1.1-1-1.2c0,0-0.1,0-0.1,0C92.2,2.4,91.7,2.9,91.7,3.6C91.7,3.6,91.7,3.6,91.7,3.6L91.7,3.6z"/></g></g></g></svg>
