<svg xmlns="http://www.w3.org/2000/svg" viewBox="0 0 115.8 27.3"><g display="none"><path display="inline" d="M120,33.2H-5c-2.8,0-5-2.2-5-5v-30c0-2.8,2.2-5,5-5h125c2.8,0,5,2.2,5,5v30C125,31,122.8,33.2,120,33.2z"/></g><g><path fill="#FFFFFF" stroke="#FFFFFF" stroke-width="0.2" stroke-miterlimit="10" d="M37.4,3.5c0,0.8-0.2,1.5-0.7,2c-0.6,0.6-1.3,0.9-2.2,0.9c-0.9,0-1.6-0.3-2.2-0.9c-0.6-0.6-0.9-1.3-0.9-2.2 c0-0.9,0.3-1.6,0.9-2.2c0.6-0.6,1.3-0.9,2.2-0.9c0.4,0,0.8,0.1,1.2,0.3c0.4,0.2,0.7,0.4,0.9,0.7l-0.5,0.5c-0.4-0.5-0.9-0.7-1.6-0.7 c-0.6,0-1.2,0.2-1.6,0.7c-0.5,0.4-0.7,1-0.7,1.7s0.2,1.3,0.7,1.7c0.5,0.4,1,0.7,1.6,0.7c0.7,0,1.2-0.2,1.7-0.7 c0.3-0.3,0.5-0.7,0.5-1.2h-2.2V3h2.9C37.4,3.2,37.4,3.3,37.4,3.5z"/><path fill="#FFFFFF" stroke="#FFFFFF" stroke-width="0.2" stroke-miterlimit="10" d="M42.1,1h-2.7v1.9h2.5v0.7h-2.5v1.9h2.7v0.7h-3.5v-6h3.5V1z"/><path fill="#FFFFFF" stroke="#FFFFFF" stroke-width="0.2" stroke-miterlimit="10" d="M45.3,6.2h-0.8V1h-1.7V0.2H47V1h-1.7V6.2z"/><path fill="#FFFFFF" stroke="#FFFFFF" stroke-width="0.2" stroke-miterlimit="10" d="M50,6.2v-6h0.8v6H50z"/><path fill="#FFFFFF" stroke="#FFFFFF" stroke-width="0.2" stroke-miterlimit="10" d="M54.2,6.2h-0.8V1h-1.7V0.2h4.1V1h-1.7V6.2z"/><path fill="#FFFFFF" stroke="#FFFFFF" stroke-width="0.2" stroke-miterlimit="10" d="M63.6,5.5c-0.6,0.6-1.3,0.9-2.2,0.9c-0.9,0-1.6-0.3-2.2-0.9c-0.6-0.6-0.9-1.3-0.9-2.2s0.3-1.6,0.9-2.2 c0.6-0.6,1.3-0.9,2.2-0.9c0.9,0,1.6,0.3,2.2,0.9c0.6,0.6,0.9,1.3,0.9,2.2C64.5,4.1,64.2,4.9,63.6,5.5z M59.8,5 c0.4,0.4,1,0.7,1.6,0.7s1.2-0.2,1.6-0.7c0.4-0.4,0.7-1,0.7-1.7S63.5,2,63.1,1.5c-0.4-0.4-1-0.7-1.6-0.7s-1.2,0.2-1.6,0.7 c-0.4,0.4-0.7,1-0.7,1.7S59.4,4.5,59.8,5z"/><path fill="#FFFFFF" stroke="#FFFFFF" stroke-width="0.2" stroke-miterlimit="10" d="M65.6,6.2v-6h0.9l2.9,4.7h0l0-1.2V0.2h0.8v6h-0.8l-3.1-4.9h0l0,1.2v3.7H65.6z"/></g><path fill="#ffffff" d="M58.2,15c-2.4,0-4.3,1.8-4.3,4.3c0,2.4,1.9,4.3,4.3,4.3c2.4,0,4.3-1.8,4.3-4.3C62.4,16.8,60.5,15,58.2,15z M58.2,21.8c-1.3,0-2.4-1.1-2.4-2.6c0-1.5,1.1-2.6,2.4-2.6s2.4,1,2.4,2.6C60.6,20.8,59.5,21.8,58.2,21.8z M48.8,15 c-2.4,0-4.3,1.8-4.3,4.3c0,2.4,1.9,4.3,4.3,4.3c2.4,0,4.3-1.8,4.3-4.3C53.1,16.8,51.2,15,48.8,15z M48.8,21.8 c-1.3,0-2.4-1.1-2.4-2.6c0-1.5,1.1-2.6,2.4-2.6c1.3,0,2.4,1,2.4,2.6C51.3,20.8,50.1,21.8,48.8,21.8z M37.8,16.3v1.8h4.3 c-0.1,1-0.5,1.8-1,2.3c-0.6,0.6-1.6,1.3-3.3,1.3c-2.7,0-4.7-2.1-4.7-4.8s2.1-4.8,4.7-4.8c1.4,0,2.5,0.6,3.3,1.3l1.3-1.3 c-1.1-1-2.5-1.8-4.5-1.8c-3.6,0-6.7,3-6.7,6.6c0,3.6,3.1,6.6,6.7,6.6c2,0,3.4-0.6,4.6-1.9c1.2-1.2,1.6-2.9,1.6-4.2 c0-0.4,0-0.8-0.1-1.1H37.8z M83.1,17.7c-0.4-1-1.4-2.7-3.6-2.7c-2.2,0-4,1.7-4,4.3c0,2.4,1.8,4.3,4.2,4.3c1.9,0,3.1-1.2,3.5-1.9 l-1.4-1c-0.5,0.7-1.1,1.2-2.1,1.2c-1,0-1.6-0.4-2.1-1.3l5.7-2.4L83.1,17.7z M77.3,19.1c0-1.6,1.3-2.5,2.2-2.5c0.7,0,1.4,0.4,1.6,0.9 L77.3,19.1z M72.7,23.2h1.9V10.7h-1.9V23.2z M69.6,15.9L69.6,15.9c-0.5-0.5-1.3-1-2.3-1c-2.1,0-4.1,1.9-4.1,4.3 c0,2.4,1.9,4.2,4.1,4.2c1,0,1.8-0.5,2.2-1h0.1v0.6c0,1.6-0.9,2.5-2.3,2.5c-1.1,0-1.9-0.8-2.1-1.5l-1.6,0.7c0.5,1.1,1.7,2.5,3.8,2.5 c2.2,0,4-1.3,4-4.4v-7.6h-1.8V15.9z M67.5,21.8c-1.3,0-2.4-1.1-2.4-2.6c0-1.5,1.1-2.6,2.4-2.6c1.3,0,2.3,1.1,2.3,2.6 C69.7,20.7,68.7,21.8,67.5,21.8z M91.8,10.7h-4.5v12.5h1.9v-4.7h2.6c2.1,0,4.1-1.5,4.1-3.9S93.9,10.7,91.8,10.7z M91.9,16.8h-2.7 v-4.3h2.7c1.4,0,2.2,1.2,2.2,2.1C94.1,15.6,93.3,16.8,91.9,16.8z M103.4,15c-1.4,0-2.8,0.6-3.3,1.9l1.7,0.7c0.4-0.7,1-0.9,1.7-0.9 c1,0,1.9,0.6,2,1.6v0.1c-0.3-0.2-1.1-0.5-1.9-0.5c-1.8,0-3.6,1-3.6,2.8c0,1.7,1.5,2.8,3.1,2.8c1.3,0,1.9-0.6,2.4-1.2h0.1v1h1.8v-4.8 C107.2,16.2,105.6,15,103.4,15z M103.2,21.8c-0.6,0-1.5-0.3-1.5-1.1c0-1,1.1-1.3,2-1.3c0.8,0,1.2,0.2,1.7,0.4 C105.3,21,104.3,21.8,103.2,21.8z M113.8,15.2l-2.1,5.4h-0.1l-2.2-5.4h-2l3.3,7.6l-1.9,4.2h1.9l5.1-11.8H113.8z M97,23.2h1.9V10.7 H97V23.2z"/><g><linearGradient id="a" gradientUnits="userSpaceOnUse" x1="11.8271" y1="199.7666" x2="-4.9553" y2="182.9843" gradientTransform="matrix(1 0 0 -1 0 201.7107)"><stop offset="0" stop-color="#00A0FF"/><stop offset="6.574450e-03" stop-color="#00A1FF"/><stop offset="0.2601" stop-color="#00BEFF"/><stop offset="0.5122" stop-color="#00D2FF"/><stop offset="0.7604" stop-color="#00DFFF"/><stop offset="1" stop-color="#00E3FF"/></linearGradient><path fill="url(#a)" d="M0.5,0.8C0.2,1.1,0,1.6,0,2.2v22.1c0,0.6,0.2,1.1,0.5,1.4l0.1,0.1l12.4-12.4v-0.1v-0.1L0.5,0.8L0.5,0.8z"/><linearGradient id="b" gradientUnits="userSpaceOnUse" x1="23.8618" y1="188.4749" x2="-0.3351" y2="188.4749" gradientTransform="matrix(1 0 0 -1 0 201.7107)"><stop offset="0" stop-color="#FFE000"/><stop offset="0.4087" stop-color="#FFBD00"/><stop offset="0.7754" stop-color="#FFA500"/><stop offset="1" stop-color="#FF9C00"/></linearGradient><path fill="url(#b)" d="M17.1,17.5l-4.1-4.1v-0.1v-0.1L17.1,9L17.1,9l4.9,2.8c1.4,0.8,1.4,2.1,0,2.9L17.1,17.5L17.1,17.5z"/><linearGradient id="c" gradientUnits="userSpaceOnUse" x1="14.8544" y1="186.1803" x2="-7.9039" y2="163.422" gradientTransform="matrix(1 0 0 -1 0 201.7107)"><stop offset="0" stop-color="#FF3A44"/><stop offset="1" stop-color="#C31162"/></linearGradient><path fill="url(#c)" d="M17.1,17.5l-4.2-4.2L0.5,25.7c0.5,0.5,1.2,0.5,2.1,0.1L17.1,17.5"/><linearGradient id="d" gradientUnits="userSpaceOnUse" x1="-2.6753" y1="208.3002" x2="7.4873" y2="198.1377" gradientTransform="matrix(1 0 0 -1 0 201.7107)"><stop offset="0" stop-color="#32A071"/><stop offset="6.850000e-02" stop-color="#2DA771"/><stop offset="0.4762" stop-color="#15CF74"/><stop offset="0.8009" stop-color="#06E775"/><stop offset="1" stop-color="#00F076"/></linearGradient><path fill="url(#d)" d="M17.1,9L2.5,0.7C1.7,0.2,0.9,0.3,0.5,0.8l12.5,12.5L17.1,9z"/><g><path opacity="0.2" d="M17.1,17.4L2.5,25.6c-0.8,0.5-1.5,0.4-2,0l0,0l-0.1,0.1l0,0l0.1,0.1l0,0c0.5,0.4,1.2,0.5,2,0L17.1,17.4 L17.1,17.4z"/><path opacity="0.12" d="M0.5,25.6C0.2,25.2,0,24.8,0,24.1v0.1c0,0.6,0.2,1.1,0.5,1.4V25.6L0.5,25.6z"/></g><path opacity="0.12" d="M22,14.5l-5,2.8l0.1,0.1l4.9-2.8c0.7-0.4,1-0.9,1-1.4l0,0C23,13.7,22.7,14.2,22,14.5z"/><path fill="#FFFFFF" opacity="0.25" d="M2.5,0.9L22,11.9c0.6,0.4,1,0.8,1,1.3l0,0c0-0.5-0.3-1-1-1.4L2.5,0.7C1.1-0.1,0,0.6,0,2.2v0.1 C0,0.7,1.1,0.1,2.5,0.9z"/></g><rect x="-0.7" y="-0.1" display="none" fill="none" width="116.6" height="27.5"/><g display="none"><g display="inline"><path fill="#A6A6A6" d="M123.9-9.3c2.3,0,4.2,1.9,4.2,4.2v30c0,2.3-1.9,4.2-4.2,4.2h-125c-2.3,0-4.2-1.9-4.2-4.2v-30 c0-2.3,1.9-4.2,4.2-4.2H123.9 M123.9-10.1h-125c-2.8,0-5,2.2-5,5v30c0,2.8,2.2,5,5,5h125c2.8,0,5-2.2,5-5v-30 C128.9-7.9,126.7-10.1,123.9-10.1L123.9-10.1z"/></g></g></svg>
