<svg xmlns="http://www.w3.org/2000/svg" fill="#333333" viewBox="0 0 25 25"><path
    d="M12.705.834a6.652,6.652,0,0,1,6.173,3.978c.551,1.242.42,3.35.311,5.045l0,.063c-.012.187-.023.359-.031.53a.8.8,0,0,0,.417.094,2.941,2.941,0,0,0,1.076-.313,1.029,1.029,0,0,1,.483-.108,1.44,1.44,0,0,1,.53.093.99.99,0,0,1,.764.873q.023.7-1.263,1.215c-.093.03-.218.078-.358.124-.469.141-1.186.375-1.388.843a1.094,1.094,0,0,0,.125.9l.016.015c.062.142,1.588,3.618,4.987,4.179a.519.519,0,0,1,.437.53.634.634,0,0,1-.047.234c-.25.592-1.325,1.028-3.274,1.323a2.753,2.753,0,0,0-.171.593,4.108,4.108,0,0,1-.14.576.545.545,0,0,1-.577.421H20.74a3.313,3.313,0,0,1-.56-.077,6.28,6.28,0,0,0-1.325-.14,5.008,5.008,0,0,0-.95.077,4.669,4.669,0,0,0-1.794.92,5.676,5.676,0,0,1-3.428,1.341c-.063,0-.124-.016-.188-.016H12.34A5.539,5.539,0,0,1,8.927,22.81a4.616,4.616,0,0,0-1.777-.92,6.875,6.875,0,0,0-.966-.077,6.572,6.572,0,0,0-1.324.155,2.98,2.98,0,0,1-.562.077.582.582,0,0,1-.607-.437c-.063-.2-.094-.405-.14-.59a2.78,2.78,0,0,0-.173-.593c-2-.232-3.071-.669-3.32-1.277A.624.624,0,0,1,0,18.914a.517.517,0,0,1,.437-.53c3.4-.562,4.924-4.037,4.987-4.184l.017-.03a1.042,1.042,0,0,0,.124-.9c-.2-.452-.92-.685-1.387-.842a2.274,2.274,0,0,1-.36-.124c-1.152-.453-1.308-.968-1.246-1.325a1.23,1.23,0,0,1,1.216-.825,1.054,1.054,0,0,1,.4.077,2.844,2.844,0,0,0,1.149.312,1,1,0,0,0,.484-.109l-.048-.593c-.1-1.692-.234-3.8.32-5.035A6.544,6.544,0,0,1,12.207.849l.436-.016h.062Z"
  /></svg>
