<svg xmlns="http://www.w3.org/2000/svg" viewBox="0 0 25 25" fill="#333333"> <path d="M22.289,7.237V7.92c0,7-5.121,15.049-14.48,15.049A14.037,14.037,0,0,1,0,20.593a10.16,10.16,0,0,0,1.209,0,9.957,9.957,0,0,0,6.33-2.176,5.133,5.133,0,0,1-4.694-3.7,5.144,5.144,0,0,0,.967.085,4.837,4.837,0,0,0,1.337-.185A5.246,5.246,0,0,1,1.081,9.442a4.891,4.891,0,0,0,2.3.654A5.419,5.419,0,0,1,1.806,2.984,14.221,14.221,0,0,0,12.3,8.5a5.456,5.456,0,0,1-.143-1.18,5.193,5.193,0,0,1,5.09-5.292h0a5,5,0,0,1,3.741,1.636,9.953,9.953,0,0,0,3.272-1.28,5.278,5.278,0,0,1-2.276,2.93,9.98,9.98,0,0,0,2.93-.839,10.608,10.608,0,0,1-2.631,2.759"></path> </svg>
