<?xml version="1.0" encoding="utf-8" ?>
<!-- Generator: Adobe Illustrator 20.0.0, SVG Export Plug-In . SVG Version: 6.00 Build 0)  -->
<svg
  version="1.1"
  id="レイヤー_1"
  xmlns="http://www.w3.org/2000/svg"
  xmlns:xlink="http://www.w3.org/1999/xlink"
  x="0px"
  y="0px"
  width="1081px"
  height="4103.8px"
  viewBox="0 0 1081 4103.8"
  style="enable-background:new 0 0 1081 4103.8;"
  xml:space="preserve"
>
<g>
	<g style="enable-background:new;">
		<path
        style="fill:#2574C8;"
        d="M359.6,36.5c-2.3-10.6-2.9-12.4-6.3-13.3l-2.5-0.7v-2.6h31.9v2.5L380,23c-5.8,1.3-5.2,7-3.6,14.8l14.2,70.6
			L401,52.1l-3.8-19.3c-1.4-6.8-2-9-5.6-9.9l-2.3-0.5v-2.5h32.9v2.5l-4,0.7c-5.9,1.1-5,7.6-3.6,14.6l13.7,70.6l13.5-66.8
			c2.5-13.9,1.3-17.3-4.1-18.4l-3.7-0.7v-2.5h22.9v2.5l-2.5,0.9c-3.6,1.3-4.5,4.7-7,16.6l-22,104.8h-4.7L403.8,63l-15.3,81.7h-5.9
			L359.6,36.5z"
      />
		<path
        style="fill:#2574C8;"
        d="M488.7,144.8c-21.1,0-31.3-28.4-31.3-63c0-34.4,9.9-62.8,31.3-62.8c21.2,0,31.5,28.4,31.5,62.8
			C520.2,116.4,510.5,144.8,488.7,144.8z M488.7,23.1c-9,0-13.5,7.2-13.5,58c0,52.4,4.1,59.8,13.5,59.8s13.7-7.4,13.7-60.1
			C502.4,30.3,498,23.1,488.7,23.1z"
      />
		<path
        style="fill:#2574C8;"
        d="M525.3,141.4l4-1.1c3.6-0.9,5.2-2.7,5.2-7.7V31.1c0-5-1.6-6.7-5.2-7.6l-4-1.1v-2.5h34.4
			c15.3,0,29.5,9.7,29.5,30.1c0,15.7-7.4,26.6-22.3,30.6c16.4,3.1,16.4,10.8,18,31.5l1.1,15.8c0.5,8.8,0.9,10.8,3.4,10.8
			c2.7,0,3.8-6.1,3.8-12.1v-3.1h3.1v4.1c0,9.9-2.2,16.9-12.4,16.9c-10.1,0-14.8-5.8-15.5-26.5l-0.9-23c-0.4-11-3.1-12.6-8.3-12.6
			h-8.5v50c0,5,1.6,7,5.2,7.9l4,0.9v2.5h-34.6V141.4L525.3,141.4z M550.8,78.9h5.9c10.1,0,15.1-2.7,15.1-26.6s-6.6-28.8-13.8-28.8
			h-7.2V78.9L550.8,78.9z"
      />
		<path
        style="fill:#2574C8;"
        d="M623.8,140.3h7.2c15.3,0,19.8-18.2,21.6-37.4h2.7v41h-57.1v-2.5l4-1.1c3.6-0.9,5.2-2.7,5.2-7.7V31.1
			c0-5-1.6-6.7-5.2-7.6l-4-1.1v-2.5h35.6v2.7l-4.9,1.1c-3.6,0.7-5.2,2.3-5.2,7.4L623.8,140.3L623.8,140.3z"
      />
		<path
        style="fill:#2574C8;"
        d="M692,19.9c20.2,0,38.2,19.8,38.2,61.2c0,37.4-11.3,62.8-40,62.8H660v-2.5l4-1.1c3.6-0.9,5.2-2.7,5.2-7.7V31.1
			c0-5-1.6-6.7-5.2-7.6l-4-1.1v-2.5H692z M691.3,140.3c12.8,0,21.1-12.4,21.1-58.9c0-39.4-7.7-58-23.2-58h-3.6v116.8L691.3,140.3
			L691.3,140.3z"
      />
	</g>
	<g style="enable-background:new;">
		<path
        style="fill:#5291DF;"
        d="M468.7,328.8v-84.4c0-5-1.3-6.7-4.9-7.6l-4-1.1v-2.5h35.8v2.5l-4.9,1.1c-4,0.9-5.6,2.3-5.6,7.4v85.9
			c0,17.5,5.2,22,14.4,22c10.8,0,15.1-6.1,15.1-23.8v-71.6c0-15.1-0.2-18.7-6.7-20.2l-3.4-0.7v-2.5h23.9v2.5l-2.5,0.7
			c-6.1,1.8-6.5,7.2-6.5,20.3v71.5c0,19.4-6.7,29.9-23.4,29.9C479,358.2,468.7,347.7,468.7,328.8z"
      />
		<path
        style="fill:#5291DF;"
        d="M543,349.4c0,4.9-3.6,8.5-7.9,8.5s-7.9-3.6-7.9-8.5s3.6-8.5,7.9-8.5S543,344.5,543,349.4z"
      />
		<path
        style="fill:#5291DF;"
        d="M575.8,358c-10.4,0-14-7.2-17.5-7.2c-2,0-4.3,0.5-6.1,6.5H550v-41h2.7c2.2,23.2,10.8,37.8,22.9,37.8
			c8.1,0,13.7-7.4,13.7-20.7c0-28.1-40.1-40.1-40.1-71.3c0-16.7,8.5-29.5,23.8-29.5c9.9,0,11.9,6.5,16,6.5c2.3,0,4-1.8,4.9-5.8h2.2
			v41h-2.7c-2.2-20.7-7.6-37.8-20.5-37.8c-9,0-10.6,9-10.6,15.1c0,26.8,40.1,36,40.1,73.4C602.3,344.1,591.8,358,575.8,358z"
      />
		<path
        style="fill:#5291DF;"
        d="M621.2,349.4c0,4.9-3.6,8.5-7.9,8.5s-7.9-3.6-7.9-8.5s3.6-8.5,7.9-8.5S621.2,344.5,621.2,349.4z"
      />
	</g>
	<g style="enable-background:new;">
		<path
        style="fill:#187226;"
        d="M314.4,567.2h12.4c16.2,0,19.3-18.4,21.4-37.4h2.7v41h-62v-2.5l4-1.1c3.6-0.9,5.2-2.7,5.2-7.7V458.1
			c0-5-1.6-6.8-5.2-7.7l-4-1.1v-2.5h60.3v41h-2.7c-2-19.3-5.8-37.4-19.6-37.4h-12.4v54.2l5.8-0.2c7.7-0.5,10.6-7.2,12.6-22.9h2.7v50
			h-2.7c-1.6-19.6-4.7-22.7-12.8-23.2l-5.6-0.2L314.4,567.2L314.4,567.2L314.4,567.2z"
      />
		<path
        style="fill:#187226;"
        d="M389.6,445.9c9.2,0,12.1,6.8,16,6.8c2.3,0,3.2-2,4.1-5.9h2.5v41h-2.7c-2.2-22.9-7.7-37.8-20-37.8
			c-8.8,0-13.5,7-13.5,58c0,52.4,3.4,59.8,15.3,59.8c10.8,0,17.5-12.8,18.4-38h3.2c-0.9,26.8-8.5,41.9-23.9,41.9
			c-20.3,0-30.8-28.4-30.8-63C358.3,474.3,369,445.9,389.6,445.9z"
      />
		<path
        style="fill:#187226;"
        d="M451.1,571.7c-21.1,0-31.3-28.4-31.3-63c0-34.4,9.9-62.8,31.3-62.8c21.2,0,31.5,28.4,31.5,62.8
			C482.7,543.3,473,571.7,451.1,571.7z M451.1,450c-9,0-13.5,7.2-13.5,58c0,52.4,4.1,59.8,13.5,59.8s13.7-7.4,13.7-60.1
			C464.8,457.2,460.5,450,451.1,450z"
      />
		<path
        style="fill:#187226;"
        d="M490,450l-2.5-0.7v-2.5h23.6l32.2,81.7v-58.9c0-13.3,0.4-18-9.2-19.6l-3.1-0.7v-2.5h26.6v2.5l-2.5,0.7
			c-7.7,1.8-7.2,8.1-7.2,20.7v100.1h-5.8L502,471.6V548c0,14.6,0,18.7,11.5,20.3v2.5h-25.9v-2.5l3.2-0.5c6.7-1.3,6.5-7.7,6.5-20.9
			v-86C494.3,454.5,493,451.1,490,450z"
      />
		<path
        style="fill:#187226;"
        d="M592.3,571.7c-21.1,0-31.3-28.4-31.3-63c0-34.4,9.9-62.8,31.3-62.8c21.2,0,31.5,28.4,31.5,62.8
			C623.8,543.3,614,571.7,592.3,571.7z M592.3,450c-9,0-13.5,7.2-13.5,58c0,52.4,4.1,59.8,13.5,59.8s13.7-7.4,13.7-60.1
			C606,457.2,601.7,450,592.3,450z"
      />
		<path
        style="fill:#187226;"
        d="M667.8,570.6l-24.8-108V548c0,14.6,0,18.7,11.5,20.3v2.5H629v-2.5l3.2-0.5c6.7-1.3,5.9-7.7,5.9-20.9v-89.1
			c0-5-2.2-6.7-5.8-7.6l-3.4-0.9v-2.5h27.2l18.4,83.2l18.2-83.2h27.5v2.5l-4,1.1c-3.6,0.9-5.2,2.5-5.2,7.6v101.3c0,5,1.6,7,5.2,7.9
			l4,0.9v2.7h-36v-2.5l5-1.1c3.4-0.7,5.4-2.7,5.4-7.7V458.9l-24.3,111.8h-2.6L667.8,570.6L667.8,570.6z"
      />
		<path
        style="fill:#187226;"
        d="M749.5,464.4l14,45.7l12.4-41.9c4.7-15.7,3.2-16.7-5-18.4l-2.5-0.5v-2.5h23.8v2.5l-1.4,0.4
			c-5.2,1.3-5.4,2.5-10.6,20.5l-14.6,48.6v40.7c0,5,1.6,6.8,5.2,7.7l4.7,1.1v2.5h-36.2v-2.5l4.7-1.1c3.6-0.9,5.2-2.7,5.2-7.7v-41.8
			l-18.7-58.3c-2.2-6.8-3.1-8.6-6.3-9.5l-1.8-0.5v-2.5h36.5v2.5l-3.2,0.7C747.9,451.5,746.4,453.8,749.5,464.4z"
      />
	</g>
	<g style="enable-background:new;">
		<path
        style="fill:#208911;"
        d="M294.8,784.2v-2.5l4-1.1c3.6-0.9,5.2-2.7,5.2-7.7V671.3c0-5-1.6-6.7-5.2-7.6l-4-1.1v-2.5h33.1
			c13.3,0,28.4,9.9,28.4,30.4c0,13.3-7.4,26.1-22.1,28.8c18.2,2.5,25.7,13.5,25.7,31c0,18.4-11,33.8-31.5,33.8L294.8,784.2
			L294.8,784.2z M325.2,717.6c9.5,0,13.9-5.2,13.9-25c0-15.7-2.2-28.8-11.9-28.8h-7v53.8H325.2L325.2,717.6z M327.6,780.6
			c10.4,0,14-6.7,14-27.5c0-12.6-1.8-22.5-5.2-27c-2-2.5-5-4.5-9.9-4.5h-6.3v59H327.6z"
      />
		<path
        style="fill:#208911;"
        d="M372.7,755.7v-84.4c0-5-1.3-6.7-4.9-7.6l-4-1.1v-2.5h35.8v2.5l-4.9,1.1c-4,0.9-5.6,2.3-5.6,7.4V757
			c0,17.5,5.2,22,14.4,22c10.8,0,15.1-6.1,15.1-23.8v-71.6c0-15.1-0.2-18.7-6.7-20.2l-3.4-0.7v-2.5h23.9v2.5l-2.5,0.7
			c-6.1,1.8-6.5,7.2-6.5,20.3v71.5c0,19.4-6.7,29.9-23.4,29.9C383,785.1,372.7,774.6,372.7,755.7z"
      />
		<path
        style="fill:#208911;"
        d="M462.4,784.9c-10.4,0-14-7.2-17.5-7.2c-2,0-4.3,0.5-6.1,6.5h-2.2v-41h2.7c2.2,23.2,10.8,37.8,22.9,37.8
			c8.1,0,13.7-7.4,13.7-20.7c0-28.1-40.1-40.1-40.1-71.3c0-16.7,8.5-29.5,23.8-29.5c9.9,0,11.9,6.5,16,6.5c2.3,0,4-1.8,4.9-5.8h2.2
			v41H480c-2.2-20.7-7.6-37.8-20.5-37.8c-9,0-10.6,9-10.6,15.1c0,26.8,40.1,36,40.1,73.4C488.8,771,478.4,784.9,462.4,784.9z"
      />
		<path
        style="fill:#208911;"
        d="M492.8,784.2v-2.5l4.1-1.1c3.6-0.9,5.6-2.5,5.6-7.6V671.3c0-5-2-6.7-5.6-7.6l-4.1-1.1v-2.5h36v2.5l-4.1,1.1
			c-3.6,0.9-5.6,2.5-5.6,7.6V773c0,5,2,6.7,5.6,7.6l4.1,1.1v2.5L492.8,784.2L492.8,784.2z"
      />
		<path
        style="fill:#208911;"
        d="M535.1,663.4l-2.5-0.7v-2.5h23.6l32.2,81.7V683c0-13.3,0.4-18-9.2-19.6l-3.1-0.7v-2.5h26.6v2.5l-2.5,0.7
			c-7.7,1.8-7.2,8.1-7.2,20.7v100.1h-5.8L547,685v76.3c0,14.6,0,18.7,11.5,20.3v2.5h-25.9v-2.5l3.2-0.5c6.7-1.3,6.5-7.7,6.5-20.9
			v-86C539.2,667.9,538,664.5,535.1,663.4z"
      />
		<path
        style="fill:#208911;"
        d="M631.2,780.6h12.4c16.2,0,19.3-18.4,21.4-37.4h2.7v41h-62.1v-2.5l4-1.1c3.6-0.9,5.2-2.7,5.2-7.7V671.5
			c0-5-1.6-6.8-5.2-7.7l-4-1.1v-2.5h60.3v41h-2.7c-2-19.3-5.8-37.4-19.6-37.4h-12.4V718l5.8-0.2c7.7-0.5,10.6-7.2,12.6-22.9h2.7v50
			h-2.7c-1.6-19.6-4.7-22.7-12.8-23.2l-5.6-0.2L631.2,780.6L631.2,780.6z"
      />
		<path
        style="fill:#208911;"
        d="M701.6,784.9c-10.4,0-14-7.2-17.5-7.2c-2,0-4.3,0.5-6.1,6.5h-2.1v-41h2.7c2.2,23.2,10.8,37.8,22.9,37.8
			c8.1,0,13.7-7.4,13.7-20.7c0-28.1-40.1-40.1-40.1-71.3c0-16.7,8.5-29.5,23.8-29.5c9.9,0,11.9,6.5,16,6.5c2.3,0,4-1.8,4.9-5.8h2.2
			v41h-2.7c-2.2-20.7-7.6-37.8-20.5-37.8c-9,0-10.6,9-10.6,15.1c0,26.8,40.1,36,40.1,73.4C728.1,771,717.6,784.9,701.6,784.9z"
      />
		<path
        style="fill:#208911;"
        d="M759.6,784.9c-10.4,0-14-7.2-17.5-7.2c-2,0-4.3,0.5-6.1,6.5h-2.2v-41h2.7c2.2,23.2,10.8,37.8,22.9,37.8
			c8.1,0,13.7-7.4,13.7-20.7c0-28.1-40.1-40.1-40.1-71.3c0-16.7,8.5-29.5,23.8-29.5c9.9,0,11.9,6.5,16,6.5c2.3,0,4-1.8,4.9-5.8h2.2
			v41h-2.7c-2.2-20.7-7.6-37.8-20.5-37.8c-9,0-10.6,9-10.6,15.1c0,26.8,40.1,36,40.1,73.4C786,771,775.6,784.9,759.6,784.9z"
      />
	</g>
	<g style="enable-background:new;">
		<path
        style="fill:#51A21A;"
        d="M328.8,997.5l-24.8-108v85.3c0,14.6,0,18.7,11.5,20.3v2.5h-25.4v-2.5l3.2-0.5c6.7-1.3,5.9-7.7,5.9-20.9v-89.1
			c0-5-2.2-6.7-5.8-7.6l-3.4-0.9v-2.5h27.2l18.4,83.2l18.2-83.2h27.5v2.5l-4,1.1c-3.6,0.9-5.2,2.5-5.2,7.6v101.3c0,5,1.6,7,5.2,7.9
			l4,0.9v2.7h-36v-2.5l5-1.1c3.4-0.7,5.4-2.7,5.4-7.7V885.8l-24.3,111.8L328.8,997.5L328.8,997.5z"
      />
		<path
        style="fill:#51A21A;"
        d="M383.4,997.7v-2.5l2.2-0.7c4.9-1.6,5.2-4.5,7.7-16.7l22-104.8h5.4l23,108.2c2.3,10.4,3.1,12.6,5.9,13.3
			l2.9,0.7v2.5H417v-2.5l3.8-0.7c7.7-1.4,7.7-3.6,5.8-14.4l-3.4-16.2H401l-2.3,12.2c-2.7,13.9-1.3,17.3,4.1,18.4l3.8,0.7v2.5H383.4
			L383.4,997.7z M401.9,959.7h20.5l-10.6-51.1L401.9,959.7z"
      />
		<path
        style="fill:#51A21A;"
        d="M454.5,995.2l4-1.1c3.6-0.9,5.2-2.7,5.2-7.7V884.9c0-5-1.6-6.7-5.2-7.6l-4-1.1v-2.5h34.4
			c15.3,0,29.5,9.7,29.5,30.1c0,15.7-7.4,26.6-22.3,30.6c16.4,3.1,16.4,10.8,18,31.5l1.1,15.8c0.5,8.8,0.9,10.8,3.4,10.8
			c2.7,0,3.8-6.1,3.8-12.1v-3.1h3.1v4.1c0,9.9-2.2,16.9-12.4,16.9c-10.1,0-14.8-5.8-15.5-26.5l-0.9-23c-0.4-11-3.1-12.6-8.3-12.6
			h-8.5v50c0,5,1.6,7,5.2,7.9l4,0.9v2.5h-34.6V995.2L454.5,995.2z M479.9,932.7h5.9c10.1,0,15.1-2.7,15.1-26.6s-6.7-28.8-13.9-28.8
			h-7.2L479.9,932.7L479.9,932.7z"
      />
		<path
        style="fill:#51A21A;"
        d="M566.8,920.7l23.2,61.6c3.4,9,4,11.3,7,12.2l2.3,0.7v2.5h-31.7v-2.5l2.2-0.5c5.9-1.4,6.1-1.8,2-14.4l-15.5-41
			l-3.4,5.9v41.2c0,5,2,7,5.4,7.9l4.1,0.9v2.5h-35.1v-2.5l4-1.1c3.6-0.9,5.2-2.7,5.2-7.7V884.9c0-5-1.6-6.7-5.2-7.6l-4-1.1v-2.5
			h35.1v2.5l-4.1,1.1c-3.4,0.9-5.4,2.3-5.4,7.4v52.9l18.9-34.6c11.2-20.5,12.1-23.9,1.3-26.3l-2.5-0.5v-2.5h27.5v2.5l-2.5,0.7
			c-6.5,1.8-8.3,7.9-20.3,29L566.8,920.7z"
      />
		<path
        style="fill:#51A21A;"
        d="M627.3,994.1h12.4c16.2,0,19.3-18.4,21.4-37.4h2.7v41h-62.1v-2.5l4-1.1c3.6-0.9,5.2-2.7,5.2-7.7V885
			c0-5-1.6-6.8-5.2-7.7l-4-1.1v-2.5H662v41h-2.7c-2-19.3-5.8-37.4-19.6-37.4h-12.4v54.2l5.8-0.2c7.7-0.5,10.6-7.2,12.6-22.9h2.7v50
			h-2.7c-1.6-19.6-4.7-22.7-12.8-23.2l-5.6-0.2V994.1L627.3,994.1z"
      />
		<path
        style="fill:#51A21A;"
        d="M708.6,986.4c0,5,1.6,6.8,5.2,7.7l4.7,1.1v2.5h-36.2v-2.5l4.7-1.1c3.6-0.9,5.2-2.7,5.2-7.7V877.3h-4
			c-11.2,0-15.7,18.2-16.9,37.4h-2.7v-41h63.5v41h-2.7c-1.3-19.3-5.8-37.4-16.9-37.4h-4L708.6,986.4L708.6,986.4z"
      />
		<path
        style="fill:#51A21A;"
        d="M764.4,998.4c-10.4,0-14-7.2-17.5-7.2c-2,0-4.3,0.5-6.1,6.5h-2.2v-41h2.7c2.2,23.2,10.8,37.8,22.9,37.8
			c8.1,0,13.7-7.4,13.7-20.7c0-28.1-40.1-40.1-40.1-71.3c0-16.7,8.5-29.5,23.8-29.5c9.9,0,11.9,6.5,16,6.5c2.3,0,4-1.8,4.9-5.8h2.2
			v41H782c-2.2-20.7-7.6-37.8-20.5-37.8c-9,0-10.6,9-10.6,15.1c0,26.8,40.1,36,40.1,73.4C790.9,984.6,780.5,998.4,764.4,998.4z"
      />
	</g>
	<g style="enable-background:new;">
		<path
        style="fill:#A46915;"
        d="M357.8,1425.5c-21.1,0-31.3-28.4-31.3-63c0-34.4,9.9-62.8,31.3-62.8c21.2,0,31.5,28.4,31.5,62.8
			C389.3,1397.1,379.5,1425.5,357.8,1425.5z M357.8,1303.8c-9,0-13.5,7.2-13.5,58c0,52.4,4.1,59.8,13.5,59.8s13.7-7.4,13.7-60.1
			C371.5,1311,367.2,1303.8,357.8,1303.8z"
      />
		<path
        style="fill:#A46915;"
        d="M394.5,1422.1l4-1.1c3.6-0.9,5.2-2.7,5.2-7.7v-101.5c0-5-1.6-6.7-5.2-7.6l-4-1.1v-2.5h34.4
			c15.3,0,30.2,10.8,30.2,33.7c0,17.5-7.2,36.2-30.8,36.2h-8.1v42.8c0,5,1.6,6.8,5.2,7.7l4.7,1.1v2.5h-35.6L394.5,1422.1
			L394.5,1422.1z M420.3,1366.8h6.1c10.1,0,15.1-3.1,15.1-31.1c0-25.9-6.7-31.5-13.9-31.5h-7.4L420.3,1366.8L420.3,1366.8z"
      />
		<path
        style="fill:#A46915;"
        d="M462.3,1424.6v-2.5l4.1-1.1c3.6-0.9,5.6-2.5,5.6-7.6v-101.7c0-5-2-6.7-5.6-7.6l-4.1-1.1v-2.5h36v2.5l-4.1,1.1
			c-3.6,0.9-5.6,2.5-5.6,7.6v101.7c0,5,2,6.7,5.6,7.6l4.1,1.1v2.5H462.3z"
      />
		<path
        style="fill:#A46915;"
        d="M504.7,1303.8l-2.5-0.7v-2.5h23.6l32.2,81.7v-58.9c0-13.3,0.4-18-9.2-19.6l-3.1-0.7v-2.5h26.6v2.5l-2.5,0.7
			c-7.7,1.8-7.2,8.1-7.2,20.7v100.1h-5.8l-40.3-99.2v76.3c0,14.6,0,18.7,11.5,20.3v2.5h-26v-2.5l3.2-0.5c6.7-1.3,6.5-7.7,6.5-20.9
			v-86C508.8,1308.3,507.5,1304.9,504.7,1303.8z"
      />
		<path
        style="fill:#A46915;"
        d="M575.3,1424.6v-2.5l4.1-1.1c3.6-0.9,5.6-2.5,5.6-7.6v-101.7c0-5-2-6.7-5.6-7.6l-4.1-1.1v-2.5h36v2.5l-4.1,1.1
			c-3.6,0.9-5.6,2.5-5.6,7.6v101.7c0,5,2,6.7,5.6,7.6l4.1,1.1v2.5H575.3z"
      />
		<path
        style="fill:#A46915;"
        d="M648.2,1425.5c-21.1,0-31.3-28.4-31.3-63c0-34.4,9.9-62.8,31.3-62.8c21.2,0,31.5,28.4,31.5,62.8
			C679.7,1397.1,669.8,1425.5,648.2,1425.5z M648.2,1303.8c-9,0-13.5,7.2-13.5,58c0,52.4,4.1,59.8,13.5,59.8s13.7-7.4,13.7-60.1
			C661.8,1311,657.5,1303.8,648.2,1303.8z"
      />
		<path
        style="fill:#A46915;"
        d="M687,1303.8l-2.5-0.7v-2.5H708l32.2,81.7v-58.9c0-13.3,0.4-18-9.2-19.6l-3.1-0.7v-2.5h26.6v2.5l-2.5,0.7
			c-7.7,1.8-7.2,8.1-7.2,20.7v100.1H739l-40.3-99.2v76.3c0,14.6,0,18.7,11.5,20.3v2.5h-25.9v-2.5l3.2-0.5c6.7-1.3,6.5-7.7,6.5-20.9
			v-86C691.2,1308.3,689.8,1304.9,687,1303.8z"
      />
	</g>
	<g style="enable-background:new;">
		<path
        style="fill:#CC0B24;"
        d="M451.1,1634.5h7.2c15.3,0,19.8-18.2,21.6-37.4h2.7v41h-57.1v-2.5l4-1.1c3.6-0.9,5.2-2.7,5.2-7.7v-101.5
			c0-5-1.6-6.7-5.2-7.6l-4-1.1v-2.5h35.6v2.7l-4.9,1.1c-3.6,0.7-5.2,2.3-5.2,7.4L451.1,1634.5L451.1,1634.5z"
      />
		<path
        style="fill:#CC0B24;"
        d="M487.5,1638.1v-2.5l4.1-1.1c3.6-0.9,5.6-2.5,5.6-7.6v-101.7c0-5-2-6.7-5.6-7.6l-4.1-1.1v-2.5h36v2.5l-4.1,1.1
			c-3.6,0.9-5.6,2.5-5.6,7.6v101.7c0,5,2,6.7,5.6,7.6l4.1,1.1v2.5H487.5z"
      />
		<path
        style="fill:#CC0B24;"
        d="M527.7,1635.5l4-1.1c3.6-0.9,5.2-2.7,5.2-7.7v-101.5c0-5-1.6-6.7-5.2-7.6l-4-1.1v-2.5h61v41H586
			c-2-19.3-5.8-37.4-19.6-37.4h-13.1v55.1l5.6-0.2c7.7-0.5,11.2-7.2,13.5-22.9h2.7v50h-2.7c-2-19.6-5.6-22.7-13.7-23.2l-5.4-0.2
			v50.6c0,5,1.6,6.7,5.2,7.4l4.9,1.1v2.7h-35.6L527.7,1635.5L527.7,1635.5z"
      />
		<path
        style="fill:#CC0B24;"
        d="M618.9,1634.5h12.4c16.2,0,19.3-18.4,21.4-37.4h2.7v41h-62.1v-2.5l4-1.1c3.6-0.9,5.2-2.7,5.2-7.7v-101.3
			c0-5-1.6-6.8-5.2-7.7l-4-1.1v-2.5h60.3v41h-2.7c-2-19.3-5.8-37.4-19.6-37.4h-12.4v54.2l5.8-0.2c7.7-0.5,10.6-7.2,12.6-22.9h2.7v50
			h-2.7c-1.6-19.6-4.7-22.7-12.8-23.2l-5.6-0.2L618.9,1634.5L618.9,1634.5z"
      />
	</g>
	<g style="enable-background:new;">
		<path
        style="fill:#880650;"
        d="M408,1851.5v-2.5l2.2-0.7c4.9-1.6,5.2-4.5,7.7-16.7l22-104.8h5.4l23,108.2c2.3,10.4,3.1,12.6,5.9,13.3
			l2.9,0.7v2.5h-35.5v-2.5l3.8-0.7c7.7-1.4,7.7-3.6,5.8-14.4l-3.4-16.2h-22.1l-2.3,12.2c-2.7,13.9-1.3,17.3,4.1,18.4l3.8,0.7v2.5
			H408L408,1851.5z M426.6,1813.5h20.5l-10.6-51.1L426.6,1813.5z"
      />
		<path
        style="fill:#880650;"
        d="M479.1,1849l4-1.1c3.6-0.9,5.2-2.7,5.2-7.7v-101.5c0-5-1.6-6.7-5.2-7.6l-4-1.1v-2.5h34.4
			c15.3,0,29.5,9.7,29.5,30.1c0,15.7-7.4,26.6-22.3,30.6c16.4,3.1,16.4,10.8,18,31.5l1.1,15.8c0.5,8.8,0.9,10.8,3.4,10.8
			c2.7,0,3.8-6.1,3.8-12.1v-3.1h3.1v4.1c0,9.9-2.2,16.9-12.4,16.9c-10.1,0-14.8-5.8-15.5-26.5l-0.9-23c-0.4-11-3.1-12.6-8.3-12.6
			h-8.5v50c0,5,1.6,7,5.2,7.9l4,0.9v2.5h-34.6L479.1,1849L479.1,1849z M504.5,1786.5h5.9c10.1,0,15.1-2.7,15.1-26.6
			s-6.7-28.8-13.9-28.8h-7.2L504.5,1786.5L504.5,1786.5z"
      />
		<path
        style="fill:#880650;"
        d="M590.7,1840.2c0,5,1.6,6.8,5.2,7.7l4.7,1.1v2.5h-36.2v-2.5l4.7-1.1c3.6-0.9,5.2-2.7,5.2-7.7v-109.1h-4
			c-11.2,0-15.7,18.2-16.9,37.4h-2.7v-41h63.5v41h-2.7c-1.3-19.3-5.8-37.4-16.9-37.4h-4L590.7,1840.2L590.7,1840.2z"
      />
		<path
        style="fill:#880650;"
        d="M646.5,1852.2c-10.4,0-14-7.2-17.5-7.2c-2,0-4.3,0.5-6.1,6.5h-2.2v-41h2.7c2.2,23.2,10.8,37.8,22.9,37.8
			c8.1,0,13.7-7.4,13.7-20.7c0-28.1-40.1-40.1-40.1-71.3c0-16.7,8.5-29.5,23.8-29.5c9.9,0,11.9,6.5,16,6.5c2.3,0,4-1.8,4.9-5.8h2.2
			v41H664c-2.2-20.7-7.6-37.8-20.5-37.8c-9,0-10.6,9-10.6,15.1c0,26.8,40.1,36,40.1,73.4C673,1838.4,662.6,1852.2,646.5,1852.2z"
      />
	</g>
	<g style="enable-background:new;">
		<path
        style="fill:#1184B2;"
        d="M308.6,2062.4l4-1.1c3.6-0.9,5.2-2.7,5.2-7.7v-101.5c0-5-1.6-6.7-5.2-7.6l-4-1.1v-2.5H343
			c15.3,0,30.2,10.8,30.2,33.7c0,17.5-7.2,36.2-30.8,36.2h-8.1v42.8c0,5,1.6,6.8,5.2,7.7l4.7,1.1v2.5h-35.6
			C308.6,2064.9,308.6,2062.4,308.6,2062.4z M334.3,2007.2h6.1c10.1,0,15.1-3.1,15.1-31.1c0-25.9-6.7-31.5-13.9-31.5h-7.4
			L334.3,2007.2L334.3,2007.2z"
      />
		<path
        style="fill:#1184B2;"
        d="M409.7,2065.9c-21.1,0-31.3-28.4-31.3-63c0-34.4,9.9-62.8,31.3-62.8c21.2,0,31.5,28.4,31.5,62.8
			C441.2,2037.4,431.5,2065.9,409.7,2065.9z M409.7,1944.2c-9,0-13.5,7.2-13.5,58c0,52.4,4.1,59.8,13.5,59.8s13.7-7.4,13.7-60.1
			C423.4,1951.4,419.1,1944.2,409.7,1944.2z"
      />
		<path
        style="fill:#1184B2;"
        d="M472,2061.4h7.2c15.3,0,19.8-18.2,21.6-37.4h2.7v41h-57.1v-2.5l4-1.1c3.6-0.9,5.2-2.7,5.2-7.7v-101.5
			c0-5-1.6-6.7-5.2-7.6l-4-1.1v-2.5H482v2.7l-4.9,1.1c-3.6,0.7-5.2,2.3-5.2,7.4L472,2061.4L472,2061.4z"
      />
		<path
        style="fill:#1184B2;"
        d="M508.4,2065v-2.5l4.1-1.1c3.6-0.9,5.6-2.5,5.6-7.6v-101.7c0-5-2-6.7-5.6-7.6l-4.1-1.1v-2.5h36v2.5l-4.1,1.1
			c-3.6,0.9-5.6,2.5-5.6,7.6v101.7c0,5,2,6.7,5.6,7.6l4.1,1.1v2.5H508.4z"
      />
		<path
        style="fill:#1184B2;"
        d="M589,2053.6c0,5,1.6,6.8,5.2,7.7l4.7,1.1v2.5h-36.2v-2.5l4.7-1.1c3.6-0.9,5.2-2.7,5.2-7.7v-109.1h-4
			c-11.2,0-15.7,18.2-16.9,37.4H549v-41h63.5v41h-2.6c-1.3-19.3-5.8-37.4-16.9-37.4h-4V2053.6L589,2053.6z"
      />
		<path
        style="fill:#1184B2;"
        d="M617.3,2065v-2.5l4.1-1.1c3.6-0.9,5.6-2.5,5.6-7.6v-101.7c0-5-2-6.7-5.6-7.6l-4.1-1.1v-2.5h36v2.5l-4.1,1.1
			c-3.6,0.9-5.6,2.5-5.6,7.6v101.7c0,5,2,6.7,5.6,7.6l4.1,1.1v2.5H617.3z"
      />
		<path
        style="fill:#1184B2;"
        d="M690,1940.1c9.2,0,12.1,6.8,16,6.8c2.3,0,3.2-2,4.1-5.9h2.5v41h-2.7c-2.2-22.9-7.7-37.8-20-37.8
			c-8.8,0-13.5,7-13.5,58c0,52.4,3.4,59.8,15.3,59.8c10.8,0,17.5-12.8,18.4-38h3.2c-0.9,26.8-8.5,41.9-23.9,41.9
			c-20.3,0-30.8-28.4-30.8-63C658.7,1968.5,669.3,1940.1,690,1940.1z"
      />
		<path
        style="fill:#1184B2;"
        d="M745.8,2065.7c-10.4,0-14-7.2-17.5-7.2c-2,0-4.3,0.5-6.1,6.5H720v-41h2.7c2.2,23.2,10.8,37.8,22.9,37.8
			c8.1,0,13.7-7.4,13.7-20.7c0-28.1-40.1-40.1-40.1-71.3c0-16.7,8.5-29.5,23.8-29.5c9.9,0,11.9,6.5,16,6.5c2.3,0,4-1.8,4.9-5.8h2.2
			v41h-2.7c-2.2-20.7-7.6-37.8-20.5-37.8c-9,0-10.6,9-10.6,15.1c0,26.8,40.1,36,40.1,73.4C772.3,2051.8,761.8,2065.7,745.8,2065.7z"
      />
	</g>
	<g>
		<path
        style="fill:#AFA185;"
        d="M205,2275.9l4-1.1c3.6-0.9,5.2-2.7,5.2-7.7v-101.5c0-5-1.6-6.7-5.2-7.6l-4-1.1v-2.5h34.4
			c15.3,0,29.5,9.7,29.5,30.1c0,15.7-7.4,26.6-22.3,30.6c16.4,3.1,16.4,10.8,18,31.5l1.1,15.8c0.5,8.8,0.9,10.8,3.4,10.8
			c2.7,0,3.8-6.1,3.8-12.1v-3.1h3.1v4.1c0,9.9-2.2,16.9-12.4,16.9c-10.1,0-14.8-5.8-15.5-26.5l-0.9-23c-0.4-11-3.1-12.6-8.3-12.6
			h-8.5v50c0,5,1.6,7,5.2,7.9l4,0.9v2.5H205C205,2278.4,205,2275.9,205,2275.9z M230.4,2213.4h5.9c10.1,0,15.1-2.7,15.1-26.6
			s-6.7-28.8-13.9-28.8h-7.2L230.4,2213.4L230.4,2213.4L230.4,2213.4z"
      />
		<path
        style="fill:#AFA185;"
        d="M303.5,2274.8h12.4c16.2,0,19.3-18.4,21.4-37.4h2.7v41h-62.1v-2.5l4-1.1c3.6-0.9,5.2-2.7,5.2-7.7v-101.3
			c0-5-1.6-6.8-5.2-7.7l-4-1.1v-2.5h60.3v41h-2.7c-2-19.3-5.8-37.4-19.6-37.4h-12.4v54.2l5.8-0.2c7.7-0.5,10.6-7.2,12.6-22.9h2.7v50
			h-2.7c-1.6-19.6-4.7-22.7-12.8-23.2l-5.6-0.2L303.5,2274.8L303.5,2274.8z"
      />
		<path
        style="fill:#AFA185;"
        d="M342.3,2278.4v-2.5l2.2-0.7c4.9-1.6,5.2-4.5,7.7-16.7l22-104.8h5.4l23,108.2c2.3,10.4,3.1,12.6,5.9,13.3
			l2.9,0.7v2.5H376v-2.5l3.8-0.7c7.7-1.4,7.7-3.6,5.8-14.4l-3.4-16.2H360l-2.3,12.2c-2.7,13.9-1.3,17.3,4.1,18.4l3.8,0.7v2.5H342.3z
			 M360.9,2240.4h20.5l-10.6-51.1L360.9,2240.4z"
      />
		<path
        style="fill:#AFA185;"
        d="M439,2274.8h7.2c15.3,0,19.8-18.2,21.6-37.4h2.7v41h-57.1v-2.5l4-1.1c3.6-0.9,5.2-2.7,5.2-7.7v-101.5
			c0-5-1.6-6.7-5.2-7.6l-4-1.1v-2.5H449v2.7l-4.9,1.1c-3.6,0.7-5.2,2.3-5.2,7.4L439,2274.8L439,2274.8z"
      />
		<path
        style="fill:#AFA185;"
        d="M525,2274.8h12.4c16.2,0,19.3-18.4,21.4-37.4h2.7v41h-62.1v-2.5l4-1.1c3.6-0.9,5.2-2.7,5.2-7.7v-101.3
			c0-5-1.6-6.8-5.2-7.7l-4-1.1v-2.5h60.3v41H557c-2-19.3-5.8-37.4-19.6-37.4H525v54.2l5.8-0.2c7.7-0.5,10.6-7.2,12.6-22.9h2.7v50
			h-2.7c-1.6-19.6-4.7-22.7-12.8-23.2l-5.6-0.2V2274.8L525,2274.8z"
      />
		<path
        style="fill:#AFA185;"
        d="M595.4,2279.1c-10.4,0-14-7.2-17.5-7.2c-2,0-4.3,0.5-6.1,6.5h-2.2v-41h2.7c2.2,23.2,10.8,37.8,22.9,37.8
			c8.1,0,13.7-7.4,13.7-20.7c0-28.1-40.1-40.1-40.1-71.3c0-16.7,8.5-29.5,23.8-29.5c9.9,0,11.9,6.5,16,6.5c2.3,0,4-1.8,4.9-5.8h2.2
			v41H613c-2.2-20.7-7.6-37.8-20.5-37.8c-9,0-10.6,9-10.6,15.1c0,26.8,40.1,36,40.1,73.4C621.9,2265.3,611.4,2279.1,595.4,2279.1z"
      />
		<path
        style="fill:#AFA185;"
        d="M662.6,2267.1c0,5,1.6,6.8,5.2,7.7l4.7,1.1v2.5h-36.2v-2.5l4.7-1.1c3.6-0.9,5.2-2.7,5.2-7.7V2158h-4
			c-11.2,0-15.7,18.2-16.9,37.4h-2.7v-41h63.5v41h-2.7c-1.3-19.3-5.8-37.4-16.9-37.4h-4L662.6,2267.1L662.6,2267.1z"
      />
		<path
        style="fill:#AFA185;"
        d="M681.5,2278.4v-2.5l2.2-0.7c4.9-1.6,5.2-4.5,7.7-16.7l22-104.8h5.4l23,108.2c2.3,10.4,3.1,12.6,5.9,13.3
			l2.9,0.7v2.5h-35.5v-2.5l3.8-0.7c7.7-1.4,7.7-3.6,5.8-14.4l-3.4-16.2h-22.1l-2.3,12.2c-2.7,13.9-1.3,17.3,4.1,18.4l3.8,0.7v2.5
			H681.5z M700,2240.4h20.5l-10.6-51.1L700,2240.4z"
      />
		<path
        style="fill:#AFA185;"
        d="M785.9,2267.1c0,5,1.6,6.8,5.2,7.7l4.7,1.1v2.5h-36.2v-2.5l4.7-1.1c3.6-0.9,5.2-2.7,5.2-7.7V2158h-4
			c-11.2,0-15.7,18.2-16.9,37.4h-2.7v-41h63.5v41h-2.7c-1.3-19.3-5.8-37.4-16.9-37.4h-4L785.9,2267.1L785.9,2267.1z"
      />
		<path
        style="fill:#AFA185;"
        d="M839.5,2274.8h12.4c16.2,0,19.3-18.4,21.4-37.4h2.7v41h-62.1v-2.5l4-1.1c3.6-0.9,5.2-2.7,5.2-7.7v-101.3
			c0-5-1.6-6.8-5.2-7.7l-4-1.1v-2.5h60.3v41h-2.7c-2-19.3-5.8-37.4-19.6-37.4h-12.4v54.2l5.8-0.2c7.7-0.5,10.6-7.2,12.6-22.9h2.7v50
			h-2.7c-1.6-19.6-4.7-22.7-12.8-23.2l-5.6-0.2L839.5,2274.8L839.5,2274.8z"
      />
	</g>
	<g>
		<path
        style="fill:#22688E;"
        d="M442.4,1200c0,5,1.6,6.8,5.2,7.7l4.7,1.1v2.5h-36.2v-2.5l4.7-1.1c3.6-0.9,5.2-2.7,5.2-7.7v-109.1h-4
			c-11.2,0-15.7,18.2-16.9,37.4h-2.7v-41H466v41h-2.7c-1.3-19.3-5.8-37.4-16.9-37.4h-4V1200z"
      />
		<path
        style="fill:#22688E;"
        d="M496.1,1207.7h12.4c16.2,0,19.3-18.4,21.4-37.4h2.7v41h-62.1v-2.5l4-1.1c3.6-0.9,5.2-2.7,5.2-7.7v-101.3
			c0-5-1.6-6.8-5.2-7.7l-4-1.1v-2.5h60.3v41h-2.7c-2-19.3-5.8-37.4-19.6-37.4h-12.4v54.2l5.8-0.2c7.7-0.5,10.6-7.2,12.6-22.9h2.7v50
			h-2.7c-1.6-19.6-4.7-22.7-12.8-23.2l-5.6-0.2V1207.7L496.1,1207.7z"
      />
		<path
        style="fill:#22688E;"
        d="M571.3,1086.4c9.2,0,12.1,6.8,16,6.8c2.3,0,3.2-2,4.1-5.9h2.5v41h-2.7c-2.2-22.9-7.7-37.8-20-37.8
			c-8.8,0-13.5,7-13.5,58c0,52.4,3.4,59.8,15.3,59.8c10.8,0,17.5-12.8,18.4-38h3.2c-0.9,26.8-8.5,41.9-23.9,41.9
			c-20.3,0-30.8-28.4-30.8-63C540,1114.9,550.6,1086.4,571.3,1086.4z"
      />
		<path
        style="fill:#22688E;"
        d="M600.3,1208.8l4-1.1c3.6-0.9,5.2-2.7,5.2-7.7v-101.5c0-5-1.6-6.7-5.2-7.6l-4-1.1v-2.5h35.1v2.5l-4.1,1.1
			c-3.4,0.9-5.4,2.3-5.4,7.4v47.3H653v-47.3c0-5-2-6.5-5.4-7.4l-4.1-1.1v-2.5h35.1v2.5l-4,1.1c-3.6,0.9-5.2,2.5-5.2,7.6v101.3
			c0,5,1.6,7,5.2,7.9l4,1.1v2.5h-35.1v-2.5l4.1-0.9c3.4-0.9,5.4-2.9,5.4-7.9v-50.2h-27.2v50.2c0,5,2,7,5.4,7.9l4.1,0.9v2.5h-35.1
			L600.3,1208.8L600.3,1208.8L600.3,1208.8z"
      />
	</g>
	<g id="レイヤー_2_3_">
		<g style="enable-background:new;">
			<path
          style="fill:#2574C8;"
          d="M407.5,2494.9l-0.5-0.5v-119l0.5-0.5h117.4l0.5,0.5v118.7l-0.5,0.5h-10l-0.5-0.5v-4.9h-96.5v5.2l-0.5,0.5
				H407.5z M514.4,2480.2v-96.6h-96.5v96.6H514.4z M426.8,2468.6l-0.5-0.5v-8l0.5-0.5h32.6v-26.8h-26.3l-0.5-0.5v-7.4l0.5-0.5h26.4
				v-20h-30.2l-0.5-0.5v-7.5l0.5-0.5h74.3l0.5,0.5v7.5l-0.5,0.5h-32.8v20h28.7l0.5,0.5v7.4l-0.5,0.5h-28.7v26.8h35.8l0.5,0.5v8
				l-0.5,0.5H426.8z M488.9,2456.9c-2.2-4.1-5.8-9.6-10.6-16.1l0.2-0.7l7.5-3.8l0.6,0.1c2.8,3.5,6.7,8.8,11.6,15.7l-0.2,0.7
				l-8.4,4.3L488.9,2456.9z"
        />
			<path
          style="fill:#2574C8;"
          d="M514.9,2488.7h-97.5v5.7h-9.9v-119h117.4v118.7h-10V2488.7z M417.5,2480.7H515v-97.6h-97.5V2480.7z
				 M426.8,2468.1v-8h33.1v-27.8h-26.8v-7.4H460v-21h-30.7v-7.5h74.3v7.5h-33.3v21h29.2v7.4h-29.2v27.8h36.3v8H426.8z M489.3,2456.7
				c-2.2-4.2-5.8-9.6-10.6-16.2l7.5-3.8c2.8,3.5,6.6,8.7,11.6,15.7L489.3,2456.7z"
        />
			<path
          style="fill:#2574C8;"
          d="M546.1,2495.8l-0.5-0.5v-119.8l0.5-0.5h35.4l0.4,0.2l2.1,2.7l0.1,0.4c-1.1,4.6-3.2,11.3-6.1,20
				c-2.8,8.4-4.9,14-6.3,16.6c1.3,1.9,3.1,4.9,5.4,9c2.4,4.3,4,8.2,4.7,11.7c0.7,3.4,1.1,6.7,1.1,9.6c0,4-0.4,7.6-1.1,10.7
				c-0.8,3.2-1.9,5.8-3.4,7.9c-1.5,2.1-3.3,3.7-5.4,4.8c-2,1-3.9,1.6-5.5,1.8c-1.5,0.1-4.3,0.2-8.2,0.2l-0.5-0.4l-1.6-8.8l0.5-0.6
				l8-0.3c4.4-0.8,6.6-5.8,6.6-14.9c0-9.8-3.5-19.2-10.4-28.1l-0.1-0.2l-0.3-2.2v-0.3c1.6-4.1,3.6-10,6-17.7
				c2.1-6.9,3.3-11.5,3.5-13.5h-15.2v111.7l-0.5,0.5L546.1,2495.8L546.1,2495.8z M607.8,2495.2l-0.5-0.4l-1-9.3l0.5-0.6H618
				c2.7,0,3.9-1.1,3.9-3.4v-28.2h-32.6l-0.5-0.5v-8.1l0.5-0.5h78.6l0.5,0.5v8.1l-0.5,0.5h-34.6v31.9c0,6.6-3.9,9.9-11.7,9.9h-13.8
				L607.8,2495.2L607.8,2495.2z M582.3,2490.7l-6.3-6.4l0.1-0.8c10.5-7.4,19-15.5,25.3-24.2l0.6-0.2l9.1,4.4l0.2,0.7
				c-2.9,4.1-7.4,9-13.6,14.7c-6.1,5.6-11.1,9.6-14.9,11.8H582.3z M666,2490.7c-3.8-2.6-8.4-6.8-13.6-12.4
				c-5.2-5.6-9.1-10.5-11.6-14.6l0.2-0.7l8.5-4l0.6,0.2c2.1,3.4,5.7,7.6,10.6,12.5c4.9,5,9.3,8.9,13,11.7v0.8l-7.2,6.5H666z
				 M667,2439.9c-8.1-6.7-15.7-14.9-22.7-24.3c-6.7-9-12-18.1-15.7-27.1c-5.7,19.4-18.6,36.6-38.5,51.2l-0.7-0.1l-5-5.4l0.1-0.7
				c5.8-4.3,11-9.1,15.5-14.3c-3.8-3.3-7.8-6.5-11.9-9.7c-0.8,1-1.7,2.1-2.6,3.2l-0.7,0.1l-5.7-4.1l-0.1-0.7
				c9.4-12.4,16.2-25.1,20.1-37.9l0.5-0.3l9.3,1.4l0.4,0.6c-0.5,1.8-1.2,3.8-2,5.8h26.5l0.5,0.3c3,8.8,8.1,18.5,15.3,28.9
				c4.4-7.3,7.5-14.7,9.3-21.8h-19.1l-0.5-0.5v-7.1l0.5-0.5h29l0.4,0.2l2.4,2.9l0.1,0.5c-4.3,13.7-9.7,25.3-16,34.6
				c4.6,5.6,10.8,11.5,18.3,17.6l0.1,0.7l-6.3,6.8L667,2439.9z M592.6,2403.6c3.1,2.2,7.3,5.3,12.5,9.3c2.7-3.8,4.6-6.7,5.6-8.5
				c-3.3-2.2-7.7-4.9-13.3-8.2C595.7,2399.1,594,2401.5,592.6,2403.6z M601.2,2390c5.5,3,10,5.6,13.3,7.6c2.3-4.4,4-8.6,5-12.3
				h-15.8C603,2386.6,602.2,2388.2,601.2,2390z M610.6,2430.4l-0.5-0.5v-7.8l0.5-0.5h37.1l0.5,0.5v7.8l-0.5,0.5H610.6z"
        />
			<path
          style="fill:#2574C8;"
          d="M571.2,2415c1.3,1.9,3.2,4.9,5.6,9.2c2.4,4.3,4,8.1,4.7,11.5s1.1,6.6,1.1,9.5c0,3.9-0.4,7.5-1.1,10.6
				s-1.8,5.7-3.3,7.8s-3.2,3.6-5.2,4.6s-3.8,1.6-5.3,1.7c-1.5,0.1-4.2,0.2-8.1,0.2l-1.6-8.8l8-0.3c4.7-0.8,7.1-6,7.1-15.4
				c0-9.9-3.5-19.4-10.5-28.4l-0.3-2.2c1.6-4.1,3.6-10,6-17.7s3.5-12.4,3.5-14.1h-16.2v112.2h-9.5v-119.9h35.4l2.1,2.7
				c-1.1,4.6-3.2,11.2-6.1,20C574.7,2406.9,572.6,2412.5,571.2,2415z M582.7,2490.3l-6.3-6.4c10.6-7.4,19-15.5,25.4-24.3l9.1,4.4
				c-2.9,4.1-7.4,8.9-13.5,14.6C591.3,2484.3,586.4,2488.1,582.7,2490.3z M600.8,2419.1c-4.1-3.5-8.3-6.9-12.7-10.3
				c-0.9,1.1-1.9,2.3-2.9,3.5l-5.7-4.1c9.5-12.5,16.2-25.1,20.2-38l9.3,1.4c-0.6,2-1.4,4.2-2.3,6.4H634c3.1,9.1,8.3,19,15.8,29.7
				c4.8-7.8,8.1-15.6,9.9-23.3H640v-7.1h29l2.4,2.9c-4.4,13.8-9.8,25.4-16.2,34.8c4.7,5.8,10.9,11.7,18.6,18l-6.3,6.8
				c-8.1-6.7-15.6-14.8-22.7-24.2c-7-9.4-12.4-18.9-16.2-28.4c-5.4,20-18.3,37.4-38.7,52.3l-5-5.4
				C590.8,2429.4,596.1,2424.5,600.8,2419.1z M618,2485.5c2.9,0,4.4-1.3,4.4-3.9v-28.7h-33.1v-8.1h78.6v8.1h-35.1v32.4
				c0,6.3-3.7,9.4-11.2,9.4h-13.8l-1-9.3H618V2485.5z M591.9,2403.7c3.2,2.3,7.6,5.6,13.3,9.9c3.1-4.4,5.1-7.5,6.2-9.3
				c-3.4-2.3-8.1-5.2-14.1-8.7C595.3,2398.8,593.5,2401.5,591.9,2403.7z M614.7,2398.3c2.5-4.9,4.4-9.5,5.5-13.5h-16.8
				c-0.8,1.5-1.7,3.4-2.9,5.4C606.5,2393.5,611.3,2396.2,614.7,2398.3z M610.6,2429.9v-7.8h37.1v7.8H610.6z M666.3,2490.3
				c-3.8-2.6-8.3-6.7-13.5-12.3s-9-10.4-11.6-14.6l8.5-4c2.2,3.4,5.7,7.6,10.6,12.6c4.9,5,9.3,8.9,13.1,11.7L666.3,2490.3z"
        />
		</g>
	</g>
	<g id="レイヤー_2_1_">
		<g style="enable-background:new;">
			<path
          style="fill:#187226;"
          d="M428.1,2714.1l-0.5-0.5V2656c-4.9,0.2-12.1,0.6-21.2,1.2l-0.5-0.4l-1.3-8.1l0.5-0.6h2l4.8-0.1
				c3.1-3.7,7-8.6,11.5-14.6c-2.4-2.6-8.7-8.8-18.9-18.6v-0.7l5.8-5.4h0.7l2.2,2c5.5-7.7,9.9-15.2,13.3-22.3l0.6-0.3l9.3,3.5
				l0.3,0.7c-5.3,9-11,17.2-16.9,24.4l9.4,8.8c6.8-9.5,11.7-17,14.5-22.5l0.6-0.2l9,3.7l0.2,0.7c-9,13.8-19.2,27.4-30.2,40.6
				c5.8-0.3,12.9-0.7,21.1-1.4c-1.5-4.8-2.6-8.2-3.3-9.9l0.4-0.7l8.7-2l0.6,0.3c1.9,5.4,4.3,12.8,7.2,22.1l-0.4,0.6l-8.8,2.2
				l-0.5-0.3c-0.3-0.9-0.7-2.3-1.3-4.3c-2.1,0.3-5.1,0.5-8.8,0.9v58.3l-0.5,0.5L428.1,2714.1L428.1,2714.1z M455.9,2711.1l-0.5-0.5
				v-8.1l0.5-0.5h33.8v-26.4h-25.4l-0.5-0.5v-8.4l0.5-0.5h25.4v-15.1l0.5-0.5h10.6l0.5,0.5v15.1h27.3l0.5,0.5v8.4l-0.5,0.5h-27.3
				v26.4h33.4l0.5,0.5v8.1l-0.5,0.5H455.9z M405,2699.8l-0.4-0.6c3.5-12.2,5.5-23.6,6-34l0.6-0.5l9.7,1l0.4,0.6
				c-1.9,16.9-4.3,28.6-7.1,34.7l-0.5,0.3L405,2699.8z M448.5,2692c-1.6-8.4-3-17.1-4-26l0.5-0.6c1.3-0.1,4.3-0.4,8.8-1l0.6,0.4
				c1.8,12.6,3.2,21.1,4.2,25.3l-0.4,0.6l-9,1.7L448.5,2692z M530.2,2654.9c-12.1-4.4-23.2-10-33.1-16.5c-9.4,6.2-20.8,11.6-34,16.1
				l-0.6-0.2l-3.5-6.9l0.3-0.7c9.7-3.3,19.5-8.2,29.2-14.5c-8.2-6.7-15.5-14.4-21.6-23l0.2-0.7l7.6-3.8l0.6,0.1
				c5.5,7.5,12.8,14.7,21.7,21.4c10.1-7.8,16.9-15.5,20.4-22.9h-57l-0.5-0.5v-8l0.5-0.5h67.5l0.3,0.1l4.4,4l0.1,0.6
				c-5.3,11.9-14.4,23.1-27,33.2c8.4,5.2,18.6,9.9,30.2,14l0.2,0.8l-5.4,7.8L530.2,2654.9z"
        />
			<path
          style="fill:#187226;"
          d="M428.1,2713.6v-58.1c-5,0.2-12.2,0.6-21.8,1.2l-1.3-8.1h2l5-0.1c3.3-3.9,7.2-8.9,11.9-15.2
				c-2.1-2.4-8.5-8.7-19.2-19l5.8-5.4l2.7,2.4c5.7-7.9,10.2-15.6,13.7-22.9l9.3,3.5c-5.4,9.2-11.1,17.4-17.1,24.7l10.2,9.5
				c7-9.7,12-17.4,14.9-23l9,3.7c-9.3,14.1-19.6,28-30.9,41.4c6.2-0.3,13.8-0.8,22.9-1.5c-1.6-5.2-2.8-8.7-3.5-10.5l8.7-2
				c1.9,5.4,4.3,12.8,7.2,22l-8.8,2.2c-0.3-1-0.7-2.5-1.4-4.7c-2.2,0.3-5.4,0.6-9.7,1v58.8h-9.6L428.1,2713.6L428.1,2713.6z
				 M413.5,2700.8l-8.6-1.4c3.5-12.3,5.5-23.7,6-34.1l9.7,1C418.6,2683.1,416.4,2694.7,413.5,2700.8z M449,2691.9
				c-1.6-8.4-3-17-4-26c1.3-0.1,4.3-0.4,8.8-1c1.8,12.7,3.2,21.1,4.2,25.3L449,2691.9z M455.9,2710.6v-8.1h34.2v-27.4h-25.9v-8.4
				h25.9v-15.6h10.6v15.6h27.8v8.4h-27.8v27.4h33.9v8.1H455.9z M496.9,2637.8c-9.4,6.3-20.8,11.7-34.1,16.2l-3.5-6.9
				c9.9-3.4,19.9-8.4,29.9-14.9c-8.4-6.8-15.8-14.5-22-23.3l7.6-3.8c5.7,7.7,13,14.9,22.1,21.8c10.7-8.2,17.7-16.2,21.2-24.1h-57.8
				v-8h67.5l4.4,4c-5.4,12.1-14.5,23.2-27.4,33.5c8.6,5.4,18.9,10.2,30.9,14.4l-5.4,7.8C518.2,2650,506.9,2644.5,496.9,2637.8z"
        />
			<path
          style="fill:#187226;"
          d="M577.8,2709.7l-0.1-0.7c8.1-10.4,12.1-24.6,12.1-42.1v-17.2c-3.1,0.6-7.5,1.5-12.9,2.7l-0.6-0.3l-2.8-7.8
				l0.4-0.7c16.2-2.7,30-6.8,41-12.2c-9.8-6.3-18.3-13.9-25.1-22.6h-11.5l-0.5-0.5v-8.2l0.5-0.5h39.9V2589l0.5-0.5h10.7l0.5,0.5
				v10.6h41.6l0.5,0.5v8.2l-0.5,0.5h-12.3c-6.1,7.6-14.3,15.1-24.4,22.1c12.3,5.3,26.2,9,41.3,11.2l0.4,0.7l-3.9,8.4l-0.5,0.3
				c-4.5-0.7-9-1.6-13.5-2.6v63.6l-0.5,0.5h-10.7l-0.5-0.5V2686h-47.5c-2,10.2-6.4,19.7-13,28.2l-0.6,0.1L577.8,2709.7z M647,2677.1
				v-12.7h-45.8v0.2c0,4.7-0.2,8.9-0.5,12.6L647,2677.1L647,2677.1z M647,2655.7v-10c-7.8-2.5-15.1-5.4-21.9-8.6
				c-7.3,4.1-15.3,7.4-23.9,9.9v8.7L647,2655.7L647,2655.7z M603,2608.8c6.1,6.7,13.4,12.4,21.6,17.1c7.6-4.9,14.5-10.7,20.4-17.1
				H603z M545.5,2704.6l-0.1-0.7c3.5-4.8,7.3-11.6,11.3-20.2c4-8.6,7.2-16.5,9.5-23.5l0.6-0.3l9.1,3.3l0.3,0.6
				c-2,6.7-5.2,14.8-9.5,24.1s-8.4,17-12.2,22.8l-0.7,0.1L545.5,2704.6z M561.7,2651.3c-5.3-5.8-11.5-11.7-18.5-17.6v-0.7l6.8-6.5
				h0.7c5.9,4.7,12.4,10.5,19.4,17.2v0.7l-7.6,6.9L561.7,2651.3L561.7,2651.3z M566.7,2618.8c-4.6-5.1-11.1-11.1-19.1-18v-0.7
				l6.9-6.5h0.7c7.7,6,14.3,11.9,19.8,17.7v0.7l-7.4,6.9L566.7,2618.8z"
        />
			<path
          style="fill:#187226;"
          d="M562,2651c-5.3-5.8-11.5-11.7-18.6-17.6l6.8-6.5c5.9,4.7,12.3,10.4,19.3,17.2L562,2651z M554.2,2710.4
				l-8.4-6.3c3.5-4.9,7.3-11.6,11.3-20.3c4.1-8.7,7.2-16.5,9.6-23.5l9.1,3.3c-2,6.7-5.2,14.7-9.5,24
				C562.2,2697,558,2704.6,554.2,2710.4z M567,2618.5c-4.7-5.1-11.1-11.1-19.2-18l6.9-6.5c7.7,6,14.3,11.9,19.7,17.6L567,2618.5z
				 M586,2713.8l-8-4.6c8.2-10.6,12.2-24.7,12.2-42.4V2649c-3.2,0.6-7.7,1.5-13.5,2.8l-2.8-7.8c16.7-2.8,30.7-7,42-12.7
				c-10.2-6.4-18.8-14.1-25.9-23.1h-11.7v-8.2h40.4v-11.1h10.7v11.1h42.1v8.2h-12.6c-6.3,7.9-14.7,15.5-25.2,22.7
				c12.7,5.5,26.7,9.4,42.2,11.6l-3.9,8.4c-4.7-0.7-9.4-1.7-14.1-2.8v64.2h-10.5v-27H599C597,2695.7,592.7,2705.2,586,2713.8z
				 M600.7,2663.8v0.7c0,4.9-0.2,9.3-0.5,13.1h47.3v-13.7L600.7,2663.8L600.7,2663.8z M600.7,2646.6v9.6h46.8v-10.9
				c-8-2.5-15.5-5.5-22.4-8.8C617.7,2640.6,609.5,2644,600.7,2646.6z M624.7,2626.5c8.1-5.2,15.3-11.3,21.5-18.2H602
				C608.3,2615.4,615.8,2621.5,624.7,2626.5z"
        />
		</g>
	</g>
	<g id="レイヤー_2_5_">
		<g style="enable-background:new;">
			<path
          style="fill:#208911;"
          d="M333.6,2924.9c-4.9,0-9.3-0.5-13.1-1.3c-3.8-0.9-7-2.3-9.6-4.1s-4.7-4.2-6.1-7.2c-1.4-2.9-2.2-7.7-2.2-14.3
				v-80.8l0.5-0.5h11l0.5,0.5v39.7c35.9-6.7,61.6-13.5,76.3-20.4l0.6,0.2l5.4,9.8l-0.2,0.7c-7.2,3.2-19.7,6.9-37.1,11
				c-17.2,4.1-32.3,7-45.1,8.7v30.2c0,4.6,0.5,8.1,1.5,10.3c0.9,2.1,3.1,3.8,6.5,4.8c3.4,1.1,8.2,1.6,14,1.6h63.6l0.5,0.5v10.1
				l-0.5,0.5H333.6z M374,2833c-3.1-7.1-6.3-13.2-9.3-18.1l0.2-0.7l7.1-3.2l0.6,0.2c3.7,5.7,7,11.7,9.8,18.1l-0.3,0.7l-7.4,3.3
				L374,2833z M392.9,2828.8c-2.9-6.7-6-12.7-9.2-17.8l0.2-0.7l6.7-3.2l0.6,0.2c3.6,5.5,6.9,11.6,10,18l-0.3,0.7l-7.4,3
				L392.9,2828.8z"
        />
			<path
          style="fill:#208911;"
          d="M400.1,2924.4h-66.5c-4.9,0-9.2-0.4-13-1.3c-3.8-0.9-6.9-2.2-9.5-4s-4.6-4.1-6-7s-2.1-7.6-2.1-14.1v-80.8h11
				v40.3c36.4-6.7,62.1-13.6,77-20.6l5.4,9.8c-7.2,3.2-19.5,6.8-37,11c-17.4,4.1-32.6,7-45.4,8.8v30.6c0,4.7,0.5,8.2,1.5,10.5
				s3.3,4,6.8,5.1s8.2,1.6,14.1,1.6H400v10.1L400.1,2924.4L400.1,2924.4z M381.9,2829.5l-7.4,3.3c-3.1-7.2-6.3-13.2-9.4-18.2
				l7.1-3.2C375.8,2817.1,379.1,2823.2,381.9,2829.5z M400.8,2825.5l-7.4,3c-2.9-6.7-6-12.7-9.3-17.9l6.7-3.2
				C394.4,2813.1,397.7,2819.1,400.8,2825.5z"
        />
			<path
          style="fill:#208911;"
          d="M419.1,2926.5l-2.7-9.6l0.4-0.6c14.6-1.8,27.7-4.7,39-8.5s20.9-8.5,28.5-13.7c7.7-5.2,14-10.3,18.8-15
				s10-11.5,15.5-20.2l0.6-0.2l9.3,4.7l0.2,0.7c-10,17.6-24.7,32-43.6,42.9s-40.9,17.6-65.6,19.9L419.1,2926.5z M460.4,2879.1
				c-13.3-5.8-30.3-11.3-50.3-16.4l-0.3-0.7l4-8.5l0.5-0.3c14.5,2.8,32,8,51.8,15.5l0.3,0.7l-5.3,9.4L460.4,2879.1z M473.8,2846.8
				c-10.7-5.1-27.5-11-50.2-17.4l-0.3-0.7l4.4-7.9l0.5-0.2c6.1,1.2,14.2,3.4,24.3,6.5c10,3.1,19.2,6.3,27.1,9.7l0.2,0.7l-5.4,9.2
				L473.8,2846.8z M498,2845.5c-3.1-7-6.2-13-9.3-18l0.2-0.7l7.1-3.2l0.6,0.2c3.7,5.7,7,11.8,9.8,18l-0.3,0.7l-7.4,3.3L498,2845.5z
				 M516.8,2841.2c-2.9-6.8-6-12.8-9.2-17.8l0.2-0.7l6.7-3.2l0.6,0.2c3.5,5.4,6.9,11.5,10,18.1l-0.3,0.7l-7.4,3L516.8,2841.2z"
        />
			<path
          style="fill:#208911;"
          d="M465.9,2869.3l-5.3,9.4c-13.4-5.8-30.2-11.3-50.4-16.4l4-8.5C428.8,2856.5,446,2861.7,465.9,2869.3z
				 M528.3,2863.8c-10,17.6-24.5,31.8-43.4,42.7s-40.7,17.5-65.4,19.9l-2.7-9.6c14.7-1.8,27.7-4.7,39.1-8.5
				c11.4-3.9,20.9-8.5,28.7-13.7c7.7-5.3,14-10.3,18.8-15s10-11.5,15.6-20.3L528.3,2863.8z M479.4,2837.2l-5.4,9.2
				c-10.7-5.2-27.5-11-50.3-17.4l4.4-7.9c6.1,1.2,14.2,3.4,24.2,6.5C462.4,2830.6,471.5,2833.9,479.4,2837.2z M505.9,2842l-7.4,3.3
				c-3.1-7-6.2-13.1-9.4-18.1l7.1-3.2C499.8,2829.7,503.1,2835.7,505.9,2842z M524.7,2838l-7.4,3c-2.9-6.9-6-12.8-9.2-17.9l6.7-3.2
				C518.2,2825.4,521.6,2831.4,524.7,2838z"
        />
			<path
          style="fill:#208911;"
          d="M582.9,2930.4l-0.5-0.5v-49.1c-14.4,7.6-32,14.6-52.3,20.7l-0.6-0.3l-3.8-8.9l0.3-0.7
				c20-5.8,38.7-13.3,55.6-22.5c16.4-8.9,28.7-18.2,36.8-27.7h-79.9l-0.5-0.5v-8.7l0.5-0.5h43.6v-16.6l0.5-0.5h11l0.5,0.5v16.6h36.7
				l0.3,0.1l5,4.9l0.1,0.7c-9.1,12.6-23.1,24.9-41.6,36.5v55.9l-0.5,0.5L582.9,2930.4L582.9,2930.4z M649.9,2903.2
				c-10.2-6.8-25.3-14.5-44.9-23l-0.2-0.8l6-7.4l0.6-0.2c17.5,6.8,33.1,14.2,46.2,22.2l0.1,0.8l-7.1,8.3L649.9,2903.2z"
        />
			<path
          style="fill:#208911;"
          d="M594.1,2929.9h-11.3V2880c-14.5,7.8-32.2,14.8-53,21l-3.8-8.9c20.1-5.8,38.7-13.3,55.7-22.5
				s29.5-18.7,37.6-28.6h-80.9v-8.7h44.1v-17.1h11v17.1h37.2l5,4.9c-9.1,12.7-23,24.9-41.7,36.5L594.1,2929.9L594.1,2929.9z
				 M657.2,2894.4l-7.1,8.3c-10.3-6.9-25.3-14.5-45-23l6-7.4C628.7,2879.1,644,2886.5,657.2,2894.4z"
        />
			<path
          style="fill:#208911;"
          d="M768.7,2928.7c-11.7-12-27.9-26.8-48.1-43.8c-21.3,20.4-42.7,35-63.8,43.4l-0.6-0.2l-4.9-8.2l0.2-0.7
				c17.6-7.2,35.4-18.7,52.9-34.4c17.3-15.4,29.6-32.4,36.6-50.6h-73.1l-0.5-0.5v-9l0.5-0.5h85.4l0.3,0.1l2.7,2.4l0.1,0.5
				c-6,18.1-15.7,34.9-28.8,49.8c13.1,10.3,30.2,25,50.8,43.8v0.8l-9.2,7.1L768.7,2928.7L768.7,2928.7z"
        />
			<path
          style="fill:#208911;"
          d="M778.3,2921.2l-9.2,7.1c-11.8-12.2-28-26.9-48.4-44.1c-21.4,20.6-42.8,35.1-64,43.6l-4.9-8.2
				c17.8-7.2,35.5-18.7,53.1-34.4s30-32.9,37-51.5h-73.8v-9h85.4l2.7,2.4c-6,18.3-15.7,35-29,50.1
				C740.3,2887.4,757.4,2902.1,778.3,2921.2z"
        />
		</g>
	</g>
	<g id="レイヤー_2_4_">
		<g style="enable-background:new;">
			<path
          style="fill:#22688E;"
          d="M229.6,3142.3l-3.2-9.4l0.4-0.6c12.4-2.9,22.3-7.9,29.6-14.6c7.2-6.7,10.9-16.6,10.9-29.5v-6.4h-53.9
				l-0.5-0.5v-9.7l0.5-0.5h112.1l0.5,0.5v9.7l-0.5,0.5h-46.6v4c0,11.2-1.7,20.5-5,27.6c-3.4,7.1-8.7,13.2-15.9,18.1
				c-7.2,4.9-16.5,8.7-27.7,11.2L229.6,3142.3z M220.4,3045.4l-0.5-0.5v-9.2l0.5-0.5h97.7l0.5,0.5v9.2l-0.5,0.5H220.4z"
        />
			<path
          style="fill:#22688E;"
          d="M278.4,3085.7c0,11.2-1.7,20.3-5,27.3c-3.3,7.1-8.6,13-15.8,17.9c-7.2,4.9-16.4,8.6-27.5,11.1l-3.2-9.4
				c12.5-3,22.5-7.9,29.8-14.7c7.3-6.9,11-16.8,11-29.8v-6.9h-54.3v-9.7h112.1v9.7h-47.1V3085.7z M318.1,3044.9h-97.7v-9.2h97.7
				V3044.9z"
        />
			<path
          style="fill:#22688E;"
          d="M356,3143.2l-3.5-9.6l0.4-0.7c22.8-4.9,40.4-14.1,52.3-27.3c11.8-13.1,19.4-30.9,22.5-53h-50.2
				c-4.7,8.5-10.6,16.7-17.4,24.3c-7,7.7-14.3,14.1-21.9,18.9l-0.7-0.1l-5.6-7.4l0.1-0.7c10.5-7.4,19.7-16.9,27.5-28.4
				s13.2-22.3,15.9-32.2l0.6-0.4l11,1.6l0.4,0.6c-1.1,4-2.7,8.4-4.7,13H440l0.5,0.5l-0.5,9.2c-0.1,2.7-1.2,7.9-3.1,15.6
				c-1.2,4.9-2.8,9.9-4.6,14.9c-1.8,5-4.2,10.2-7.2,15.5s-6.6,10.4-10.8,15.1c-4.2,4.7-9.1,9.1-14.7,13s-12.1,7.4-19.3,10.4
				c-7.3,3-15.3,5.5-23.8,7.3L356,3143.2z"
        />
			<path
          style="fill:#22688E;"
          d="M386.9,3028.8c-1.2,4.2-2.8,8.8-5,13.6H440l-0.5,9.2c-0.1,2.7-1.1,7.8-3.1,15.5c-1.2,4.9-2.8,9.9-4.6,14.8
				c-1.8,5-4.2,10.1-7.2,15.4s-6.5,10.3-10.7,15s-9,9-14.6,12.9c-5.5,3.9-12,7.3-19.3,10.3s-15.2,5.5-23.7,7.3l-3.5-9.6
				c23-5,40.6-14.1,52.6-27.5s19.6-31.3,22.7-53.8h-51c-4.7,8.6-10.5,16.8-17.5,24.5s-14.2,14-21.8,18.9l-5.6-7.4
				c10.6-7.5,19.8-17,27.7-28.5c7.9-11.6,13.2-22.3,16-32.4L386.9,3028.8z"
        />
			<path
          style="fill:#22688E;"
          d="M434.7,3141l-3.4-9.8l0.4-0.7c16.5-3.5,30.7-9.9,42.2-19s20.4-21,26.4-35.4c6.1-14.4,9.6-29,10.3-43.3
				l0.5-0.5l10.8,0.7l0.5,0.5c-3,30.6-12.1,55.2-26.9,73.2c-14.9,18-35.1,29.7-60.2,34.7L434.7,3141z"
        />
			<path
          style="fill:#22688E;"
          d="M521.8,3033.4c-3,30.6-11.9,54.9-26.8,72.9s-34.9,29.5-59.9,34.5l-3.4-9.8c16.7-3.5,30.8-9.9,42.4-19.1
				s20.4-21.1,26.6-35.6c6.1-14.5,9.6-29,10.4-43.5L521.8,3033.4z"
        />
			<path
          style="fill:#22688E;"
          d="M539.9,3138l-0.5-0.5v-96.9l0.5-0.5h95.6l0.5,0.5v96.9l-0.5,0.5H539.9z M624.8,3127.7V3050h-74.5v77.7
				H624.8z"
        />
			<path
          style="fill:#22688E;"
          d="M635.5,3137.5h-95.6v-96.9h95.6V3137.5z M625.3,3128.2v-78.7h-75.5v78.7H625.3z"
        />
			<path
          style="fill:#22688E;"
          d="M657.7,3140.5l-2.5-9.8l0.4-0.6c13.5-1.8,25.6-4.8,36.1-8.8c10.4-4,19.3-8.7,26.4-14.1
				c7.1-5.4,12.9-10.6,17.4-15.4c4.4-4.8,9.3-11.8,14.4-20.8l0.7-0.2l8.6,4.8l0.2,0.7c-9.3,18.1-22.8,32.9-40.3,44.1
				s-37.9,18.1-60.7,20.5L657.7,3140.5z M696,3091.7c-12.3-5.9-28-11.6-46.6-16.9l-0.3-0.7l3.7-8.7l0.6-0.3
				c13.5,2.8,29.6,8.2,47.9,16l0.3,0.7l-4.9,9.6L696,3091.7z M708.4,3058.5c-9.9-5.3-25.5-11.3-46.4-17.9l-0.3-0.7l4.1-8.1l0.6-0.3
				c5.6,1.2,13.2,3.5,22.5,6.7s17.7,6.5,25.1,9.9l0.2,0.7l-5,9.4L708.4,3058.5z M730.8,3057.1c-2.9-7.2-5.8-13.4-8.7-18.6l0.2-0.7
				l6.5-3.3l0.7,0.2c3.4,5.9,6.5,12.1,9.1,18.6l-0.2,0.6l-6.9,3.4L730.8,3057.1z M748.2,3052.8c-2.7-7-5.6-13.2-8.5-18.4l0.2-0.7
				l6.2-3.3l0.7,0.2c3.2,5.5,6.3,11.8,9.3,18.6l-0.3,0.7l-6.9,3.1L748.2,3052.8z"
        />
			<path
          style="fill:#22688E;"
          d="M701.1,3081.6l-4.9,9.6c-12.4-6-28-11.6-46.6-16.9l3.7-8.7C666.8,3068.5,682.7,3073.8,701.1,3081.6z
				 M758.8,3076.1c-9.3,18.1-22.6,32.7-40.2,43.9c-17.5,11.2-37.7,18-60.5,20.4l-2.5-9.8c13.6-1.9,25.6-4.8,36.2-8.8
				c10.5-4,19.4-8.7,26.5-14.1c7.1-5.4,13-10.6,17.4-15.5c4.5-4.9,9.3-11.8,14.4-20.9L758.8,3076.1z M713.6,3048.6l-5,9.4
				c-9.9-5.3-25.5-11.3-46.5-17.9l4.1-8.1c5.6,1.2,13.1,3.5,22.4,6.7S706.3,3045.2,713.6,3048.6z M738.1,3053.6l-6.9,3.4
				c-2.9-7.2-5.8-13.4-8.7-18.6l6.5-3.3C732.5,3041,735.5,3047.1,738.1,3053.6z M755.6,3049.5l-6.9,3.1c-2.7-7.1-5.6-13.2-8.6-18.4
				l6.2-3.3C749.6,3036.5,752.6,3042.7,755.6,3049.5z"
        />
			<polygon
          style="fill:#22688E;"
          points="768.5,3092.6 768,3092.1 768,3082.2 768.5,3081.7 867.6,3081.7 868.1,3082.2 868.1,3092.1
				867.6,3092.6 			"
        />
			<path style="fill:#22688E;" d="M867.6,3092.1h-99v-9.8h99V3092.1z" />
		</g>
	</g>
	<g style="display:none;enable-background:new;">
		<path
        style="display:inline;fill:#5291DF;"
        d="M519,3352.2h-97.5v5.7h-9.9v-119H529v118.7h-10V3352.2z M421.5,3344.3H519v-97.6h-97.5V3344.3z
			 M430.9,3331.6v-8H464v-27.8h-26.9v-7.4H464v-21h-30.7v-7.5h74.3v7.5h-33.3v21h29.2v7.4h-29.2v27.8h36.3v8H430.9z M493.4,3320.3
			c-2.2-4.2-5.8-9.6-10.6-16.2l7.5-3.8c2.8,3.5,6.6,8.7,11.6,15.7L493.4,3320.3z"
      />
		<path
        style="display:inline;fill:#5291DF;"
        d="M654.2,3357h-20.5l-1.7-9.5h19c1.9,0,3.5-0.5,4.8-1.6s2-2.4,2-4.1V3266h-42.4c1.1,9.7,5.3,19.5,12.5,29.5
			s15.6,17.5,25.2,22.6l-6.5,8c-8.5-5.2-16-11.8-22.4-19.8s-11.1-16.2-13.9-24.7c-6,19-19,33.9-39.1,44.7l-5.3-7
			c11.8-6.2,20.7-14.1,26.7-23.6s9.5-19.4,10.7-29.7h-41.6v92h-10.3v-100.3h52.3V3234h10.8v23.7h53.9v87.2c0,3.7-1.3,6.6-3.8,8.8
			C662.1,3355.9,658.6,3357,654.2,3357z"
      />
	</g>
	<g style="display:none;enable-background:new;">
		<path
        style="display:inline;fill:#A46915;"
        d="M133.8,3498.3c-8.5,13.7-19.8,26.5-34.1,38.3s-29.1,20.8-44.4,27.1l-5-8.3c15.9-7.4,30.6-16.8,44-28.3
			c13.5-11.5,23.8-23.7,31.1-36.6H58.5v-9.6h75.1v-24.6h12v24.6h29.6v9.6h-29.6v80h-11.7v-72.2H133.8z"
      />
		<path
        style="display:inline;fill:#A46915;"
        d="M292,3566.5h-68.3c-5,0-9.5-0.5-13.3-1.4c-3.9-0.9-7.1-2.3-9.7-4.1c-2.6-1.8-4.7-4.2-6.1-7.2
			c-1.4-2.9-2.2-7.8-2.2-14.4v-82.9h11.3v41.4c37.6-7,63.9-13.9,79-21l5.6,10c-9.2,3.9-22,7.8-38.6,11.7s-31.9,6.7-46,8.6v31.3
			c0,4.8,0.5,8.4,1.6,10.8c1,2.3,3.4,4.1,7,5.2c3.6,1.1,8.4,1.7,14.5,1.7H292V3566.5z M260.6,3459.2c0-4,1.5-7.3,4.4-10
			s6.4-4.1,10.3-4.1c4.3,0,7.9,1.4,10.7,4.2c2.8,2.8,4.2,6.1,4.2,9.8c0,4.3-1.5,7.7-4.4,10.4c-3,2.7-6.3,4-10.1,4
			c-4.3,0-7.9-1.4-10.7-4.3C262,3466.4,260.6,3463.1,260.6,3459.2z M284.9,3459.2c0-2.5-1-4.7-2.9-6.6s-4.2-2.8-6.7-2.8
			s-4.7,0.9-6.6,2.8c-1.9,1.9-2.9,4.1-2.9,6.7s1,4.8,2.9,6.7s4.2,2.8,6.7,2.8c2.6,0,4.9-0.9,6.8-2.7
			C284,3464.2,284.9,3461.9,284.9,3459.2z"
      />
		<path
        style="display:inline;fill:#A46915;"
        d="M428.5,3561.3H304.3v-10.6h124.2V3561.3z M420.2,3482.9H313.9v-9.8h106.3V3482.9z"
      />
		<path
        style="display:inline;fill:#A46915;"
        d="M521.8,3498.3c-8.5,13.7-19.8,26.5-34.1,38.3c-14.3,11.8-29.1,20.8-44.4,27.1l-5-8.3
			c15.9-7.4,30.6-16.8,44-28.3c13.5-11.5,23.8-23.7,31.1-36.6h-66.9v-9.6h75.1v-24.6h12v24.6h29.6v9.6h-29.6v80h-11.7L521.8,3498.3
			L521.8,3498.3z"
      />
		<path
        style="display:inline;fill:#A46915;"
        d="M685.6,3504.2c-7.4,13-17.1,24.2-29,33.6c-11.9,9.5-24.2,16.5-37,21.1s-27.9,7.9-45.3,9.7l-2.3-10.2
			c14.4-1.5,27.4-4.1,38.8-7.9s21.1-8.5,29.1-13.9c7.9-5.4,14.6-10.8,20.1-16.1s11-12.7,16.5-22L685.6,3504.2z M627.7,3487.3
			l-7.5,8.7c-15.8-9.7-31.6-18-47.3-24.6l5.7-8.3C595.2,3469.3,611.5,3477.3,627.7,3487.3z"
      />
		<path
        style="display:inline;fill:#A46915;"
        d="M716.5,3515.7c0-3.4,1.2-6.2,3.6-8.6s5.3-3.6,8.6-3.6c3.4,0,6.2,1.2,8.6,3.6s3.6,5.3,3.6,8.6
			s-1.2,6.2-3.6,8.6s-5.3,3.6-8.6,3.6c-3.4,0-6.2-1.2-8.6-3.6S716.5,3519.1,716.5,3515.7z"
      />
		<path
        style="display:inline;fill:#A46915;"
        d="M793.3,3572.7V3518c-6.5,6-12.9,11-19.4,14.9l-4.4-6.6c9.3-6.3,18-13.9,26.1-22.9s13.5-17.3,16.3-24.8h-37.3
			v-8h19.6v-18.7h9.8v18.7h17.3l3.2,3.6c-4.2,11.2-11.2,22.3-20.9,33.4v0.5c5.4,4.8,12.1,9.6,20.1,14.3l-4.3,9.2
			c-5.6-4-10.9-8.4-15.8-13v54.1H793.3z M814.4,3568.9v-8.3h38.5V3499h-28.7v-8.3h28.7v-38.6h10.6v38.6h32.2v8.3h-32.2v61.6h36.9
			v8.3L814.4,3568.9L814.4,3568.9z"
      />
		<path
        style="display:inline;fill:#A46915;"
        d="M906.9,3481.7v-7.6H952v7.6H906.9z M919.4,3567.3v5h-9.3v-42.8H948v37.9L919.4,3567.3L919.4,3567.3z
			 M911.6,3463.1v-7.6h36.9v7.6H911.6z M911.8,3499.9v-7.6h36.1v7.6H911.8z M911.8,3518.1v-7.8h36.1v7.8H911.8z M938.1,3536.9h-18.6
			v22.8h18.6V3536.9z M955.5,3572.6l-4.8-6.6c15.1-8.2,22.6-22,22.6-41.2l-0.1-5.1v-2.5h-14.3v-42.8H973l-8-20.9l8.9-2.5
			c4.3,9.9,7.5,17.6,9.4,23.3H999l9.5-23.3l10.6,2.5l-10.4,20.9h15v42.8h-18.9v40.4c0,1.3,0.3,2.4,0.8,3.1c0.5,0.8,1.2,1.3,2.1,1.5
			c0.9,0.2,3.1,0.4,6.6,0.4c2,0,3.4-0.1,4.3-0.3s1.7-0.7,2.6-1.6s1.4-3.1,1.7-6.8c0.2-3.7,0.4-7.6,0.4-11.8l8.3,0.9v16.9
			c0,3.1-1.2,5.7-3.5,7.7s-6.8,3.1-13.4,3.1c-3.6,0-7.1-0.2-10.5-0.5c-3.3-0.3-5.7-1.4-7.1-3.2c-1.4-1.8-2.1-4.3-2.1-7.6v-42.3
			h-11.7v6.5c0,11.2-2.4,21.2-7.1,29.8C971.2,3562,964.4,3568.4,955.5,3572.6z M1013.9,3481.8h-45.2v27.6h45.2V3481.8z"
      />
	</g>
	<g style="enable-background:new;">
		<path
        style="fill:#CC0B24;"
        d="M468.2,3705.7c-0.5,8.2-1.2,14.5-2.2,19s-3.4,10.8-7.3,18.8s-9.6,14.8-17,20.3s-16.6,9.8-27.6,12.9
			c-11,3.1-24,4.8-39,5.2l-2-9.9c25.8-0.6,45.4-5.5,58.9-14.7c13.4-9.2,21.4-23.2,23.8-42H357v-9.6H468.2z M463.5,3681.7h-101v-9.5
			h101V3681.7z"
      />
		<path
        style="fill:#CC0B24;"
        d="M560.1,3782.3H548v-67.7c-19.9,10.6-41.1,18.5-63.7,23.7l-3.6-9.3c29.4-7.6,52.6-17.1,69.7-28.5
			c17-11.4,29.8-23.2,38.3-35.4l11.2,4.4c-8.3,12.3-21.5,24.8-39.7,37.3L560.1,3782.3L560.1,3782.3z"
      />
		<path
        style="fill:#CC0B24;"
        d="M723.4,3673.7c0,16.5-2.8,32.8-8.4,49c-5.6,16.2-16.5,29.5-32.5,39.9c-16.1,10.3-36.3,16.7-60.7,19.2
			l-2.8-10.3c24.1-2.3,45-9.7,62.7-22.2s27.6-34.4,29.5-65.6h-94.6v-10L723.4,3673.7L723.4,3673.7z"
      />
	</g>
	<g style="enable-background:new;">
		<path
        style="fill:#004062;"
        d="M339.8,3893.1c-0.7,26.1-4.7,47.3-12.2,63.6c-7.4,16.3-18,30.2-31.7,41.8l-6.6-7.2c5.1-4.6,9.6-9.2,13.4-14
			s7.2-9.9,10.1-15.4s5.5-11.2,7.8-17s4.1-13.1,5.4-21.7c1.3-8.6,2.1-18.6,2.4-30h11.4L339.8,3893.1L339.8,3893.1z M419.8,3989.8
			l-8.6,7.5c-7.4-7.6-14.2-17.4-20.2-29.5c-6-12-10.2-25.5-12.5-40.3s-3.5-26.6-3.5-35.2h11v1.1c0,19,2.7,36.8,8,53.4
			C399.3,3963.4,407.9,3977.7,419.8,3989.8z M404.2,3902.8l-7.6,3.5c-3.2-7.3-6.4-13.6-9.6-18.7l7.2-3.3
			C398,3890.4,401.4,3896.6,404.2,3902.8z M423,3898.7l-7.6,3.1c-2.8-6.7-6-12.8-9.6-18.3l7-3.3
			C416.3,3885.5,419.7,3891.6,423,3898.7z"
      />
		<path
        style="fill:#004062;"
        d="M539.9,3997.2H434v-96.7h106L539.9,3997.2L539.9,3997.2z M528.7,3987.9v-78.6H445v78.6H528.7z"
      />
		<path
        style="fill:#004062;"
        d="M671.5,3935.7c-7.4,13-17.1,24.2-29,33.6c-11.9,9.5-24.2,16.5-37,21.1s-27.9,7.9-45.3,9.7L558,3990
			c14.4-1.5,27.4-4.1,38.8-7.9c11.4-3.8,21.1-8.5,29.1-13.9c7.9-5.4,14.6-10.8,20.1-16.1c5.4-5.3,11-12.7,16.5-22L671.5,3935.7z
			 M613.6,3918.8l-7.5,8.7c-15.8-9.7-31.6-18-47.3-24.6l5.7-8.3C581.1,3900.8,597.5,3908.9,613.6,3918.8z"
      />
		<path
        style="fill:#004062;"
        d="M784,3994.5l-9.4,7.3c-14.4-14.8-30.6-29.8-48.7-45c-22.1,21.3-43.7,36.2-64.6,44.5l-4.4-8.7
			c17.5-7.1,35.3-18.8,53.3-35.3c18-16.4,30.5-33.9,37.5-52.5H672v-9.2h87.3l2.5,2.3c-1.9,8.1-5.5,16.7-10.8,25.9
			s-11.4,17.8-18.3,25.6C742.4,3957.1,759.5,3972.1,784,3994.5z M772.7,3898.7l-7.6,3.4c-3.2-7.2-6.4-13.4-9.6-18.6l7.2-3.3
			C766.5,3886,769.8,3892.2,772.7,3898.7z M790.9,3894.6l-7.6,3.2c-3-7-6.2-13.2-9.5-18.4l6.9-3.3
			C784.3,3881.8,787.7,3888,790.9,3894.6z"
      />
	</g>
	<g style="enable-background:new;">
		<path
        style="fill:#5291DF;"
        d="M508.8,3346.8h-77.7v6.8h-10.3v-113.8h98.8v113.8h-10.7L508.8,3346.8L508.8,3346.8z M508.8,3287.3v-39h-77.7
			v39H508.8z M431.1,3338.2h77.7v-42.6h-77.7L431.1,3338.2L431.1,3338.2z"
      />
		<path
        style="fill:#5291DF;"
        d="M546.3,3337.7l-5.1-7.5c11.1-6.4,22-15.1,32.8-26.2c10.8-11.1,19.6-23.3,26.4-36.6h-52.5v-8.8h55.7v-25.4
			h11.1v25.4h56.8v8.8h-54.9c16.9,26.2,37.7,46.6,62.4,61.1l-6.1,9c-11.8-7.1-23-15.8-33.4-26.3s-18.8-20.5-25.1-30v40.1h25.8v8.8
			h-25.8v26.3h-10.5V3330h-25.7v-8.8h25.7v-39.5c-8.6,14.1-18.6,26.1-30.2,36C562.1,3327.7,553,3334.3,546.3,3337.7z"
      />
	</g>
</g>
<g id="レイヤー_2">
</g>
<g style="enable-background:new;">
	<path
      style="fill:#A46915;"
      d="M161.7,3499.4c-7.8,14.1-18.3,27.1-31.5,39.2c-13.2,12.1-26.8,21.3-40.9,27.7l-4.7-8.5
		c14.7-7.6,28.2-17.2,40.6-29s22-24.2,28.6-37.4H92.2v-9.9h69.2v-25.2h11v25.2h27.3v9.9h-27.3v81.9h-10.8v-73.9H161.7z"
    />
	<path
      style="fill:#A46915;"
      d="M307.5,3569.2h-62.9c-4.7,0-8.8-0.5-12.3-1.4c-3.6-0.9-6.5-2.3-9-4.2c-2.4-1.9-4.3-4.3-5.6-7.3s-2-7.9-2-14.8
		v-85h10.4v42.4c34.6-7.1,58.9-14.3,72.8-21.5l5.1,10.2c-8.4,4-20.3,8-35.6,12s-29.4,6.9-42.4,8.8v32.1c0,4.9,0.5,8.6,1.4,11
		c1,2.4,3.1,4.2,6.4,5.3c3.3,1.2,7.8,1.7,13.4,1.7h60.2v10.7H307.5z M278.6,3459.4c0-4.1,1.4-7.5,4.1-10.3s5.9-4.1,9.5-4.1
		c4,0,7.3,1.4,9.8,4.3c2.5,2.9,3.8,6.2,3.8,10c0,4.4-1.4,7.9-4.1,10.6c-2.7,2.7-5.8,4.1-9.3,4.1c-4,0-7.3-1.5-9.9-4.4
		C279.9,3466.8,278.6,3463.3,278.6,3459.4z M301,3459.3c0-2.6-0.9-4.8-2.7-6.7c-1.8-1.9-3.8-2.9-6.2-2.9c-2.3,0-4.3,1-6.1,2.9
		c-1.8,1.9-2.7,4.2-2.7,6.8s0.9,4.9,2.7,6.8c1.8,1.9,3.8,2.9,6.2,2.9c2.4,0,4.5-0.9,6.2-2.8C300.1,3464.5,301,3462.2,301,3459.3z"
    />
	<path
      style="fill:#A46915;"
      d="M433.3,3563.9H318.8V3553h114.5V3563.9z M425.6,3483.7h-97.9v-10h97.9V3483.7z"
    />
	<path
      style="fill:#A46915;"
      d="M519.4,3499.4c-7.8,14.1-18.3,27.1-31.5,39.2c-13.2,12.1-26.8,21.3-40.9,27.7l-4.7-8.5
		c14.7-7.6,28.2-17.2,40.6-29s22-24.2,28.6-37.4h-61.7v-9.9h69.3v-25.2h11v25.2h27.3v9.9h-27.3v81.9h-10.8L519.4,3499.4
		L519.4,3499.4z"
    />
	<path
      style="fill:#A46915;"
      d="M670.3,3505.4c-6.9,13.3-15.8,24.8-26.7,34.5s-22.3,16.9-34.1,21.6c-11.8,4.7-25.7,8.1-41.7,10l-2.1-10.5
		c13.3-1.5,25.2-4.2,35.8-8.1s19.5-8.7,26.8-14.2c7.3-5.6,13.5-11.1,18.5-16.5c5-5.5,10.1-13,15.2-22.5L670.3,3505.4z M616.9,3488.2
		l-6.9,8.9c-14.6-10-29.1-18.4-43.6-25.2l5.3-8.5C587,3469.7,602.1,3478,616.9,3488.2z"
    />
	<path
      style="fill:#A46915;"
      d="M702.8,3517.3c0-3.4,1.2-6.4,3.7-8.8c2.4-2.4,5.4-3.7,8.8-3.7c3.4,0,6.4,1.2,8.8,3.7c2.4,2.4,3.7,5.4,3.7,8.8
		c0,3.4-1.2,6.4-3.7,8.8c-2.4,2.4-5.4,3.7-8.8,3.7c-3.4,0-6.4-1.2-8.8-3.7C704,3523.7,702.8,3520.7,702.8,3517.3z"
    />
	<path
      style="fill:#A46915;"
      d="M777.1,3575.6v-56c-6,6.1-11.9,11.2-17.9,15.3l-4.1-6.8c8.6-6.4,16.6-14.3,24.1-23.5s12.4-17.7,15.1-25.4
		h-34.4v-8.2H778v-19.2h9.1v19.2h16l2.9,3.7c-3.9,11.5-10.3,22.9-19.3,34.2v0.5c4.9,4.9,11.1,9.8,18.5,14.7l-4,9.4
		c-5.2-4.1-10-8.6-14.6-13.3v55.4L777.1,3575.6L777.1,3575.6z M796.5,3571.8v-8.5H832v-63.1h-26.4v-8.5H832v-39.5h9.7v39.5h29.7v8.5
		h-29.7v63.1h34v8.5H796.5z"
    />
	<path
      style="fill:#A46915;"
      d="M881.8,3482.4v-7.8h41.6v7.8H881.8z M893.3,3570.1v5.1h-8.6v-43.9h35v38.8L893.3,3570.1L893.3,3570.1z
		 M886.1,3463.3v-7.8h34v7.8H886.1z M886.3,3501v-7.8h33.2v7.8H886.3z M886.3,3519.7v-8h33.2v8H886.3z M910.6,3539h-17.1v23.4h17.1
		V3539z M926.6,3575.5l-4.5-6.7c13.9-8.4,20.8-22.5,20.8-42.2l-0.1-5.2v-2.6h-13.2v-43.9h13l-7.4-21.4l8.2-2.5
		c4,10.1,6.9,18.1,8.7,23.9h14.5l8.8-23.9l9.7,2.5l-9.6,21.4h13.8v43.9h-17.4v41.4c0,1.4,0.2,2.4,0.7,3.2s1.1,1.3,1.9,1.5
		c0.8,0.3,2.8,0.4,6.1,0.4c1.8,0,3.2-0.1,3.9-0.3c0.8-0.2,1.6-0.7,2.4-1.6s1.3-3.2,1.5-6.9s0.3-7.8,0.3-12l7.7,0.9v17.3
		c0,3.2-1.1,5.8-3.2,7.9c-2.1,2.1-6.2,3.1-12.4,3.1c-3.3,0-6.6-0.2-9.6-0.5c-3.1-0.3-5.3-1.4-6.6-3.3c-1.3-1.9-2-4.4-2-7.8v-43.3
		h-10.8v6.7c0,11.5-2.2,21.7-6.6,30.5C941,3564.7,934.8,3571.2,926.6,3575.5z M980.4,3482.5h-41.7v28.3h41.7V3482.5z"
    />
</g>
</svg>
