<svg width="202" height="42" xmlns="http://www.w3.org/2000/svg"><path
    d="M8.317 4.634c0-1.624.522-2.146 1.682-2.378l1.566-.348v-.87H.081v.812l1.276.348c1.16.29 1.682.812 1.682 2.436v32.712c0 1.624-.522 2.204-1.682 2.494l-1.276.348V41h18.386V27.776h-.87c-.58 6.206-2.03 12.064-6.96 12.064h-2.32V4.634zM32.039 41v-.812l-1.334-.348c-1.16-.29-1.798-.812-1.798-2.436V4.634c0-1.624.638-2.146 1.798-2.436l1.334-.348v-.812h-11.6v.812l1.334.348c1.16.29 1.798.812 1.798 2.436v32.77c0 1.624-.638 2.146-1.798 2.436l-1.334.348V41h11.6zm1.74 0h11.484v-.87l-1.566-.348c-1.16-.232-1.682-.754-1.682-2.378V21.106l1.74.058c2.61.174 3.77 1.16 4.408 7.482h.87V12.522h-.87c-.754 5.046-1.856 7.192-4.35 7.366l-1.798.058V2.198h4.234c4.466 0 5.684 5.858 6.322 12.064h.87V1.038H33.779v.812l1.276.348c1.16.29 1.682.812 1.682 2.436v32.712c0 1.624-.522 2.204-1.682 2.494l-1.276.348V41zm29.812-20.184l1.798.058c2.61.174 3.596 1.16 4.118 7.482h.87V12.232h-.87c-.638 5.046-1.566 7.192-4.06 7.366l-1.856.058V2.198h4.002c4.466 0 5.684 5.858 6.322 12.064h.87V1.038h-19.43v.812l1.276.348c1.16.29 1.682.87 1.682 2.494v32.654c0 1.624-.522 2.204-1.682 2.494l-1.276.348V41h20.01V27.776h-.87c-.696 6.148-1.682 12.064-6.902 12.064h-4.002V20.816zm37.622 10.382c1.218-2.842 2.088-6.09 2.262-8.12.174-1.334.058-1.856-1.914-2.204l-1.218-.232v-.812h7.482v.812l-1.044.232c-1.044.232-1.45.696-1.798 2.262-.754 3.074-1.74 6.786-3.19 9.744l.87 1.914c1.508 3.248 2.03 4.408 3.19 4.408 1.044 0 1.624-1.16 1.798-4.756h.986c-.058 5.51-2.378 6.786-4.582 6.786-2.494 0-4.292-1.392-5.278-3.712-1.392 2.32-3.712 3.77-6.206 3.77-4.698 0-7.772-3.596-7.772-8.7 0-4.118 1.74-8.874 6.148-13.746-1.508-3.422-2.146-5.684-2.146-8.7 0-6.38 3.944-9.396 6.612-9.396 3.538 0 5.452 3.19 5.452 6.38 0 3.422-2.146 6.496-5.51 9.57l5.858 14.5zM94.949 15.77c1.276-1.624 2.668-4.988 2.668-8.584 0-3.074-.812-5.336-2.668-5.336-1.682 0-2.378 2.262-2.378 4.466 0 3.132.87 5.916 2.378 9.454zm3.19 20.59l-6.67-16.414c-1.276 2.03-2.03 5.8-2.03 9.512 0 5.278 1.392 9.686 4.814 9.686 1.45 0 2.784-1.16 3.886-2.784zm24.32 4.64h-7.482v-.812l.696-.232c1.566-.522 1.682-1.45 2.494-5.394L125.243.806h1.74l7.424 34.858c.754 3.364.986 4.06 1.914 4.292l.928.232V41h-11.426v-.812l1.218-.232c2.494-.464 2.494-1.16 1.856-4.64l-1.102-5.22h-7.134l-.754 3.944c-.87 4.466-.406 5.568 1.334 5.916l1.218.232V41zm1.682-28.71l-3.19 16.472h6.612l-3.422-16.472zM138.293 41v-.812l1.276-.348c1.16-.29 1.682-.87 1.682-2.494V4.634c0-1.624-.522-2.146-1.682-2.436l-1.276-.348v-.812h11.078c4.93 0 9.512 3.132 9.512 9.686 0 5.046-2.378 8.584-7.192 9.86 5.278.986 5.278 3.48 5.8 10.15l.348 5.104c.174 2.842.29 3.48 1.102 3.48.87 0 1.218-1.972 1.218-3.886v-.986h.986v1.334c0 3.19-.696 5.452-4.002 5.452-3.248 0-4.756-1.856-4.988-8.526l-.29-7.424c-.116-3.538-.986-4.06-2.668-4.06h-2.726v16.124c0 1.624.522 2.262 1.682 2.552l1.276.29V41h-11.136zm8.178-38.802v17.864h1.914c3.248 0 4.872-.87 4.872-8.584 0-7.714-2.146-9.28-4.466-9.28h-2.32zm28.188 0h1.276c3.596 0 5.046 5.858 5.452 12.064h.87V1.038h-20.474v13.224h.87c.406-6.206 1.856-12.064 5.452-12.064h1.276v35.148c0 1.624-.522 2.204-1.682 2.494l-1.508.348V41h11.658v-.812l-1.508-.348c-1.16-.29-1.682-.87-1.682-2.494V2.198zm26.912 28.42c0-12.064-12.934-15.022-12.934-23.664 0-1.972.522-4.872 3.422-4.872 4.176 0 5.916 5.51 6.612 12.18h.87V1.038h-.696c-.29 1.276-.812 1.856-1.566 1.856-1.334 0-1.972-2.088-5.162-2.088-4.93 0-7.656 4.118-7.656 9.512 0 10.034 12.934 13.92 12.934 22.968 0 4.292-1.798 6.67-4.408 6.67-3.886 0-6.67-4.698-7.366-12.18h-.87V41h.696c.58-1.914 1.334-2.088 1.972-2.088 1.102 0 2.262 2.32 5.626 2.32 5.162 0 8.526-4.466 8.526-10.614z"
    fill="#444"
    fill-rule="evenodd"
  /></svg>
