<svg width="140" height="42" xmlns="http://www.w3.org/2000/svg"><path
    d="M20.451 20.99c0 11.136-3.132 20.3-10.15 20.3-6.786 0-10.092-9.164-10.092-20.3C.209 9.912 3.399.748 10.301.748c6.844 0 10.15 9.164 10.15 20.242zm-5.742-.348c0-16.24-1.392-18.56-4.408-18.56-2.9 0-4.35 2.32-4.35 18.676 0 16.878 1.334 19.256 4.35 19.256 3.016 0 4.408-2.378 4.408-19.372zM22.243 41v-.812l1.276-.348c1.16-.29 1.682-.87 1.682-2.494V4.634c0-1.624-.522-2.146-1.682-2.436l-1.276-.348v-.812h11.078c4.93 0 9.744 3.48 9.744 10.846 0 5.626-2.32 11.658-9.918 11.658h-2.61v13.804c0 1.624.522 2.204 1.682 2.494l1.508.348V41H22.243zm8.294-38.802v20.184h1.972c3.248 0 4.872-.986 4.872-10.034 0-8.352-2.146-10.15-4.466-10.15h-2.378zM56.115 41v-.812l-1.334-.348c-1.16-.29-1.798-.812-1.798-2.436V4.634c0-1.624.638-2.146 1.798-2.436l1.334-.348v-.812h-11.6v.812l1.334.348c1.16.29 1.798.812 1.798 2.436v32.77c0 1.624-.638 2.146-1.798 2.436l-1.334.348V41h11.6zm4.756-35.438v27.724c0 4.234.058 6.322-2.088 6.728l-1.044.174V41h8.352v-.812c-3.712-.522-3.712-1.856-3.712-6.554V9.042L75.371 41h1.856V8.752c0-4.06-.174-6.09 2.32-6.67l.812-.232v-.812h-8.584v.812l.986.232c3.074.522 2.958 2.03 2.958 6.322V27.37L65.337 1.038h-7.598v.812l.812.232c.928.348 1.334 1.45 2.32 3.48zM93.351 41v-.812l-1.334-.348c-1.16-.29-1.798-.812-1.798-2.436V4.634c0-1.624.638-2.146 1.798-2.436l1.334-.348v-.812h-11.6v.812l1.334.348c1.16.29 1.798.812 1.798 2.436v32.77c0 1.624-.638 2.146-1.798 2.436l-1.334.348V41h11.6zm21.792-20.01c0 11.136-3.132 20.3-10.15 20.3-6.786 0-10.092-9.164-10.092-20.3 0-11.078 3.19-20.242 10.092-20.242 6.844 0 10.15 9.164 10.15 20.242zm-5.742-.348c0-16.24-1.392-18.56-4.408-18.56-2.9 0-4.35 2.32-4.35 18.676 0 16.878 1.334 19.256 4.35 19.256 3.016 0 4.408-2.378 4.408-19.372zm10.25-15.08v27.724c0 4.234.058 6.322-2.088 6.728l-1.044.174V41h8.352v-.812c-3.712-.522-3.712-1.856-3.712-6.554V9.042L134.151 41h1.856V8.752c0-4.06-.174-6.09 2.32-6.67l.812-.232v-.812h-8.584v.812l.986.232c3.074.522 2.958 2.03 2.958 6.322V27.37L124.117 1.038h-7.598v.812l.812.232c.928.348 1.334 1.45 2.32 3.48z"
    fill="#867256"
    fill-rule="evenodd"
  /></svg>
