<svg width="164" height="42" xmlns="http://www.w3.org/2000/svg"><path
    d="M8.968 20.816l1.798.058c2.61.174 3.596 1.16 4.118 7.482h.87V12.232h-.87c-.638 5.046-1.566 7.192-4.06 7.366l-1.856.058V2.198h4.002c4.466 0 5.684 5.858 6.322 12.064h.87V1.038H.732v.812l1.276.348c1.16.29 1.682.87 1.682 2.494v32.654c0 1.624-.522 2.204-1.682 2.494l-1.276.348V41h20.01V27.776h-.87c-.696 6.148-1.682 12.064-6.902 12.064H8.968V20.816zm14.252.174c0 11.136 3.364 20.3 9.918 20.3 4.988 0 7.424-4.872 7.714-13.514h-1.044c-.29 8.12-2.436 12.238-5.916 12.238-3.828 0-4.93-2.378-4.93-19.256 0-16.414 1.508-18.676 4.35-18.676 3.944 0 5.742 4.814 6.438 12.18h.87V1.038h-.812c-.29 1.276-.58 1.914-1.334 1.914-1.276 0-2.204-2.204-5.162-2.204-6.67 0-10.092 9.164-10.092 20.242zm40.178 0c0 11.136-3.132 20.3-10.15 20.3-6.786 0-10.092-9.164-10.092-20.3 0-11.078 3.19-20.242 10.092-20.242 6.844 0 10.15 9.164 10.15 20.242zm-5.742-.348c0-16.24-1.392-18.56-4.408-18.56-2.9 0-4.35 2.32-4.35 18.676 0 16.878 1.334 19.256 4.35 19.256 3.016 0 4.408-2.378 4.408-19.372zm10.54-15.08v27.724c0 4.234.058 6.322-2.088 6.728l-1.044.174V41h8.352v-.812c-3.712-.522-3.712-1.856-3.712-6.554V9.042L82.696 41h1.856V8.752c0-4.06-.174-6.09 2.32-6.67l.812-.232v-.812H79.1v.812l.986.232c3.074.522 2.958 2.03 2.958 6.322V27.37L72.662 1.038h-7.598v.812l.812.232c.928.348 1.334 1.45 2.32 3.48zM109.07 20.99c0 11.136-3.132 20.3-10.15 20.3-6.786 0-10.092-9.164-10.092-20.3C88.828 9.912 92.018.748 98.92.748c6.844 0 10.15 9.164 10.15 20.242zm-5.742-.348c0-16.24-1.392-18.56-4.408-18.56-2.9 0-4.35 2.32-4.35 18.676 0 16.878 1.334 19.256 4.35 19.256 3.016 0 4.408-2.378 4.408-19.372zm20.864 20.3l7.83-36.018v32.422c0 1.624-.638 2.262-1.74 2.494l-1.624.348V41h11.6v-.87l-1.276-.29c-1.16-.29-1.682-.928-1.682-2.552V4.634c0-1.624.522-2.146 1.682-2.436l1.276-.348v-.812h-8.874l-5.858 26.796-5.916-26.796h-8.758v.812l1.102.29c1.16.29 1.856.812 1.856 2.436v28.71c0 4.234.232 6.322-1.914 6.728l-1.044.174V41h8.178v-.812c-3.712-.522-3.712-1.856-3.712-6.554V6.142l8.004 34.8h.87zm27.534-38.86l1.044-.232v-.812h-11.774v.812l.58.174c1.044.29 1.334.87 2.03 3.074l6.032 18.792v13.456c0 1.624-.522 2.204-1.682 2.494l-1.508.348V41h11.658v-.812l-1.508-.348c-1.16-.29-1.682-.87-1.682-2.494V24.238l4.698-15.66c1.682-5.8 1.74-6.206 3.422-6.612l.464-.116v-.812h-7.656v.812l.812.174c2.668.522 3.132.87 1.624 5.916l-4.002 13.514-4.524-14.732c-.986-3.422-.522-4.176 1.972-4.64z"
    fill="#444"
    fill-rule="evenodd"
  /></svg>
