<svg width="153" height="42" xmlns="http://www.w3.org/2000/svg"><path
    d="M.701 41v-.812l1.276-.348c1.16-.29 1.682-.87 1.682-2.494V4.634c0-1.624-.522-2.146-1.682-2.436L.701 1.85v-.812h11.078c4.93 0 9.744 3.48 9.744 10.846 0 5.626-2.32 11.658-9.918 11.658h-2.61v13.804c0 1.624.522 2.204 1.682 2.494l1.508.348V41H.701zM8.995 2.198v20.184h1.972c3.248 0 4.872-.986 4.872-10.034 0-8.352-2.146-10.15-4.466-10.15H8.995zM43.853 20.99c0 11.136-3.132 20.3-10.15 20.3-6.786 0-10.092-9.164-10.092-20.3 0-11.078 3.19-20.242 10.092-20.242 6.844 0 10.15 9.164 10.15 20.242zm-5.742-.348c0-16.24-1.392-18.56-4.408-18.56-2.9 0-4.35 2.32-4.35 18.676 0 16.878 1.334 19.256 4.35 19.256 3.016 0 4.408-2.378 4.408-19.372zM54.177 4.634c0-1.624.522-2.146 1.682-2.378l1.566-.348v-.87H45.941v.812l1.276.348c1.16.29 1.682.812 1.682 2.436v32.712c0 1.624-.522 2.204-1.682 2.494l-1.276.348V41h18.386V27.776h-.87c-.58 6.206-2.03 12.064-6.96 12.064h-2.32V4.634zM77.899 41v-.812l-1.334-.348c-1.16-.29-1.798-.812-1.798-2.436V4.634c0-1.624.638-2.146 1.798-2.436l1.334-.348v-.812h-11.6v.812l1.334.348c1.16.29 1.798.812 1.798 2.436v32.77c0 1.624-.638 2.146-1.798 2.436l-1.334.348V41h11.6zm14.79-38.802h1.276c3.596 0 5.046 5.858 5.452 12.064h.87V1.038H79.813v13.224h.87c.406-6.206 1.856-12.064 5.452-12.064h1.276v35.148c0 1.624-.522 2.204-1.682 2.494l-1.508.348V41h11.658v-.812l-1.508-.348c-1.16-.29-1.682-.87-1.682-2.494V2.198zM113.801 41v-.812l-1.334-.348c-1.16-.29-1.798-.812-1.798-2.436V4.634c0-1.624.638-2.146 1.798-2.436l1.334-.348v-.812h-11.6v.812l1.334.348c1.16.29 1.798.812 1.798 2.436v32.77c0 1.624-.638 2.146-1.798 2.436l-1.334.348V41h11.6zm2.146-20.01c0 11.136 3.364 20.3 9.918 20.3 4.988 0 7.424-4.872 7.714-13.514h-1.044c-.29 8.12-2.436 12.238-5.916 12.238-3.828 0-4.93-2.378-4.93-19.256 0-16.414 1.508-18.676 4.35-18.676 3.944 0 5.742 4.814 6.438 12.18h.87V1.038h-.812c-.29 1.276-.58 1.914-1.334 1.914-1.276 0-2.204-2.204-5.162-2.204-6.67 0-10.092 9.164-10.092 20.242zm37.004 9.628c0-12.064-12.934-15.022-12.934-23.664 0-1.972.522-4.872 3.422-4.872 4.176 0 5.916 5.51 6.612 12.18h.87V1.038h-.696c-.29 1.276-.812 1.856-1.566 1.856-1.334 0-1.972-2.088-5.162-2.088-4.93 0-7.656 4.118-7.656 9.512 0 10.034 12.934 13.92 12.934 22.968 0 4.292-1.798 6.67-4.408 6.67-3.886 0-6.67-4.698-7.366-12.18h-.87V41h.696c.58-1.914 1.334-2.088 1.972-2.088 1.102 0 2.262 2.32 5.626 2.32 5.162 0 8.526-4.466 8.526-10.614z"
    fill="#444"
    fill-rule="evenodd"
  /></svg>
