<svg width="91" height="42" xmlns="http://www.w3.org/2000/svg"><path
    d="M13.165 2.198h1.276c3.596 0 5.046 5.858 5.452 12.064h.87V1.038H.289v13.224h.87C1.565 8.056 3.015 2.198 6.611 2.198h1.276v35.148c0 1.624-.522 2.204-1.682 2.494l-1.508.348V41h11.658v-.812l-1.508-.348c-1.16-.29-1.682-.87-1.682-2.494V2.198zm17.69 18.618l1.798.058c2.61.174 3.596 1.16 4.118 7.482h.87V12.232h-.87c-.638 5.046-1.566 7.192-4.06 7.366l-1.856.058V2.198h4.002c4.466 0 5.684 5.858 6.322 12.064h.87V1.038h-19.43v.812l1.276.348c1.16.29 1.682.87 1.682 2.494v32.654c0 1.624-.522 2.204-1.682 2.494l-1.276.348V41h20.01V27.776h-.87c-.696 6.148-1.682 12.064-6.902 12.064h-4.002V20.816zm14.558.174c0 11.136 3.364 20.3 9.918 20.3 4.988 0 7.424-4.872 7.714-13.514h-1.044c-.29 8.12-2.436 12.238-5.916 12.238-3.828 0-4.93-2.378-4.93-19.256 0-16.414 1.508-18.676 4.35-18.676 3.944 0 5.742 4.814 6.438 12.18h.87V1.038h-.812c-.29 1.276-.58 1.914-1.334 1.914-1.276 0-2.204-2.204-5.162-2.204-6.67 0-10.092 9.164-10.092 20.242zM65.249 41h11.31v-.812l-1.334-.29c-1.102-.29-1.74-.928-1.74-2.552V21.164h8.758v16.182c0 1.624-.638 2.262-1.74 2.552l-1.334.29V41h11.31v-.812l-1.276-.348c-1.16-.29-1.682-.928-1.682-2.552V4.634c0-1.624.522-2.146 1.682-2.436l1.276-.348v-.812h-11.31v.812l1.334.348c1.102.29 1.74.754 1.74 2.378V19.83h-8.758V4.576c0-1.624.638-2.088 1.74-2.378l1.334-.348v-.812h-11.31v.812l1.276.348c1.16.29 1.682.812 1.682 2.436v32.712c0 1.624-.522 2.204-1.682 2.494l-1.276.348V41z"
    fill="#444"
    fill-rule="evenodd"
  /></svg>
