<svg width="143" height="49" xmlns="http://www.w3.org/2000/svg"><path
    d="M.242 24.195C.242 11.016 4.934.114 13.283.114c3.726 0 4.692 2.622 6.21 2.622.897 0 1.38-.759 1.725-2.277h.966v15.732h-1.035c-.828-8.763-2.967-14.49-7.659-14.49-3.105 0-6.417 2.691-6.417 22.218 0 20.079 1.932 22.908 5.589 22.908 2.553 0 4.071-1.587 4.623-3.036V30.198c0-1.932-.621-2.553-2.001-2.898l-1.794-.345v-.966h12.834v.966l-1.38.345c-1.242.345-2.07.897-2.07 2.829V48h-.69c-.897-2.277-1.863-2.484-2.829-2.484-1.38 0-2.622 2.829-6.9 2.829-8.004 0-12.213-10.902-12.213-24.15zm39.089 24.15c-6.624 0-10.557-4.002-10.557-11.247V4.737c0-1.932-.483-2.553-1.863-2.898l-1.518-.414V.459h13.731v.966l-1.863.414c-1.518.345-2.139.897-2.139 2.829v32.913c0 6.693 2.001 8.418 5.52 8.418 4.14 0 5.796-2.346 5.796-9.108V9.429c0-5.796-.069-7.176-2.553-7.728l-1.311-.276V.459h9.177v.966l-.966.276c-2.346.69-2.484 2.76-2.484 7.797v27.393c0 7.452-2.553 11.454-8.97 11.454zM66.724 48h-13.8v-.966l1.587-.414c1.38-.345 2.139-.966 2.139-2.898V4.737c0-1.932-.759-2.553-2.139-2.898l-1.587-.414V.459h13.8v.966l-1.587.414c-1.38.345-2.139.966-2.139 2.898v38.985c0 1.932.759 2.553 2.139 2.898l1.587.414V48zM68.311.459h12.282c7.728 0 14.628 7.59 14.628 23.46C95.221 38.271 90.874 48 79.903 48H68.311v-.966l1.518-.414c1.38-.345 2.001-1.035 2.001-2.967V4.737c0-1.932-.621-2.553-2.001-2.898l-1.518-.414V.459zM79.109 46.62h2.208c4.899 0 8.073-4.761 8.073-22.563 0-15.111-2.967-22.218-8.901-22.218h-1.38V46.62zm26.049-22.632V46.62h4.761c6.21 0 7.383-7.038 8.211-14.352h1.035V48H95.36v-.966l1.518-.414c1.38-.345 2.001-1.035 2.001-2.967V4.806c0-1.932-.621-2.622-2.001-2.967l-1.518-.414V.459h23.115v15.732h-1.035c-.759-7.383-2.208-14.352-7.521-14.352h-4.761v20.769l2.208-.069c2.967-.207 4.071-2.76 4.83-8.763h1.035v19.182h-1.035c-.621-7.521-1.794-8.694-4.899-8.901l-2.139-.069zm37.122 11.661c0 7.314-4.002 12.627-10.143 12.627-4.002 0-5.382-2.76-6.693-2.76-.759 0-1.656.207-2.346 2.484h-.828V32.268h1.035c.828 8.901 4.14 14.49 8.763 14.49 3.105 0 5.244-2.829 5.244-7.935 0-10.764-15.387-15.387-15.387-27.324 0-6.417 3.243-11.316 9.108-11.316 3.795 0 4.554 2.484 6.141 2.484.897 0 1.518-.69 1.863-2.208h.828v15.732h-1.035c-.828-7.935-2.898-14.49-7.866-14.49-3.45 0-4.071 3.45-4.071 5.796 0 10.281 15.387 13.8 15.387 28.152z"
    fill="#666"
    fill-rule="evenodd"
  /></svg>
