<svg width="291" height="48" xmlns="http://www.w3.org/2000/svg"><path
    d="M4.221 6.063c-1.139-2.345-1.608-3.618-2.68-4.02l-.938-.268V.837H9.38l11.993 30.418V9.346c0-4.958.134-6.7-3.417-7.303l-1.139-.268V.837h9.916v.938l-.938.268c-2.881.67-2.68 3.015-2.68 7.705V47h-2.144L5.963 10.083v28.408c0 5.427 0 6.968 4.288 7.571V47H.603v-.938l1.206-.201c2.479-.469 2.412-2.881 2.412-7.772V6.063zm33.176 17.621V45.66h4.623c6.03 0 7.169-6.834 7.973-13.936h1.005V47H27.883v-.938l1.474-.402c1.34-.335 1.943-1.005 1.943-2.881V5.058c0-1.876-.603-2.546-1.943-2.881l-1.474-.402V.837h22.445v15.276h-1.005c-.737-7.169-2.144-13.936-7.303-13.936h-4.623v20.167l2.144-.067c2.88-.201 3.953-2.68 4.69-8.509h1.005v18.626H44.23c-.603-7.303-1.742-8.442-4.757-8.643l-2.077-.067zm26.341 23.584L55.23 7.001c-.87-3.953-1.072-4.623-2.345-4.958l-.938-.268V.837h11.86v.938l-1.006.201c-2.144.469-1.943 2.613-1.34 5.494l5.293 26.264L70.64 12.83l-1.407-7.169c-.536-2.546-.737-3.35-2.077-3.685l-.87-.201V.837h12.26v.938l-1.474.268c-2.21.402-1.876 2.814-1.34 5.427l5.092 26.264 5.025-24.857c.938-5.159.47-6.432-1.54-6.834L82.9 1.775V.837h8.51v.938l-.939.335c-1.34.469-1.675 1.742-2.613 6.164l-8.174 38.994h-1.742L71.644 16.85 65.95 47.268h-2.21zm46.82-12.261c0 7.102-3.886 12.261-9.849 12.261-3.886 0-5.226-2.68-6.499-2.68-.737 0-1.608.201-2.278 2.412h-.804V31.724h1.005c.804 8.643 4.02 14.07 8.51 14.07 3.014 0 5.091-2.747 5.091-7.705 0-10.452-14.94-14.941-14.94-26.532 0-6.231 3.148-10.988 8.843-10.988 3.685 0 4.422 2.412 5.963 2.412.871 0 1.474-.67 1.81-2.144h.803v15.276h-1.005c-.804-7.705-2.814-14.07-7.638-14.07-3.35 0-3.953 3.35-3.953 5.628 0 9.983 14.941 13.4 14.941 27.336zM129.072 47h-8.643v-.938l.804-.268c1.809-.603 1.943-1.675 2.88-6.231L132.289.569h2.01l8.576 40.267c.87 3.886 1.139 4.69 2.21 4.958l1.073.268V47h-13.2v-.938l1.408-.268c2.88-.536 2.88-1.34 2.144-5.36l-1.273-6.03h-8.241l-.871 4.556c-1.005 5.159-.47 6.432 1.54 6.834l1.408.268V47zm1.943-33.165l-3.685 19.028h7.638l-3.953-19.028zM147.374 47v-.938l1.474-.402c1.34-.335 1.943-1.005 1.943-2.881V4.991c0-1.876-.603-2.479-1.943-2.814l-1.474-.402V.837h12.797c5.695 0 10.988 3.618 10.988 11.189 0 5.829-2.747 9.916-8.308 11.39 6.097 1.139 6.097 4.02 6.7 11.725l.402 5.896c.2 3.283.335 4.02 1.273 4.02 1.005 0 1.407-2.278 1.407-4.489v-1.139h1.139v1.541c0 3.685-.804 6.298-4.623 6.298-3.752 0-5.494-2.144-5.762-9.849l-.335-8.576c-.134-4.087-1.14-4.69-3.082-4.69h-3.15v18.626c0 1.876.604 2.613 1.944 2.948l1.474.335V47h-12.864zm9.447-44.823v20.636h2.21c3.753 0 5.629-1.005 5.629-9.916 0-8.911-2.48-10.72-5.16-10.72h-2.68zm17.302 21.708c0-12.797 3.953-23.383 11.658-23.383 3.417 0 4.489 2.546 5.963 2.546.87 0 1.206-.737 1.54-2.211h.939v15.276h-1.005c-.804-8.509-2.881-14.07-7.437-14.07-3.283 0-5.025 2.613-5.025 21.574 0 19.497 1.273 22.244 5.695 22.244 4.02 0 6.499-4.757 6.834-14.137h1.206c-.335 9.983-3.15 15.611-8.911 15.611-7.571 0-11.457-10.586-11.457-23.45zM195.948 47v-.938l1.474-.402c1.34-.335 1.943-1.005 1.943-2.881V4.991c0-1.876-.603-2.479-1.943-2.814l-1.474-.402V.837h13.065v.938l-1.541.402c-1.273.335-2.01.871-2.01 2.747v17.621h10.117V4.924c0-1.876-.737-2.412-2.01-2.747l-1.541-.402V.837h13.065v.938l-1.474.402c-1.34.335-1.943.938-1.943 2.814v37.721c0 1.876.603 2.613 1.943 2.948l1.474.402V47h-13.065v-.938l1.54-.335c1.274-.335 2.01-1.072 2.01-2.948V24.086h-10.116v18.693c0 1.876.737 2.613 2.01 2.948l1.54.335V47h-13.064zm44.163 0h-13.4v-.938l1.541-.402c1.34-.335 2.077-.938 2.077-2.814V4.991c0-1.876-.737-2.479-2.077-2.814l-1.54-.402V.837h13.4v.938l-1.542.402c-1.34.335-2.077.938-2.077 2.814v37.855c0 1.876.737 2.479 2.077 2.814l1.541.402V47zM258.078.837h8.51v.938l-.939.268c-1.54.536-1.675 1.742-2.613 6.231l-8.174 38.994h-2.01l-8.576-40.267c-.87-3.953-1.072-4.489-2.345-4.958l-.938-.268V.837h13.266v.938l-1.407.268c-2.88.536-2.948 1.34-2.144 5.36l5.36 26.532 4.958-25.058c1.005-5.159.47-6.432-1.54-6.834l-1.408-.268V.837zm18.838 22.847V45.66h4.623c6.03 0 7.169-6.834 7.973-13.936h1.005V47h-23.115v-.938l1.474-.402c1.34-.335 1.943-1.005 1.943-2.881V5.058c0-1.876-.603-2.546-1.943-2.881l-1.474-.402V.837h22.445v15.276h-1.005c-.737-7.169-2.144-13.936-7.303-13.936h-4.623v20.167l2.144-.067c2.88-.201 3.953-2.68 4.69-8.509h1.005v18.626h-1.005c-.603-7.303-1.742-8.442-4.757-8.643l-2.077-.067z"
    fill="#444444"
    fill-rule="evenodd"
  /></svg>
