<svg width="124" height="42" xmlns="http://www.w3.org/2000/svg"><path
    d="M11.172 41.232L3.806 6.374c-.754-3.422-.928-4.002-2.03-4.292L.964 1.85v-.812H11.23v.812l-.87.174C8.504 2.43 8.678 4.286 9.2 6.78l4.582 22.736 3.364-18.096-1.218-6.206c-.464-2.204-.638-2.9-1.798-3.19l-.754-.174v-.812H23.99v.812l-1.276.232c-1.914.348-1.624 2.436-1.16 4.698l4.408 22.736 4.35-21.518c.812-4.466.406-5.568-1.334-5.916L27.76 1.85v-.812h7.366v.812l-.812.29c-1.16.406-1.45 1.508-2.262 5.336l-7.076 33.756h-1.508L18.016 14.9l-4.93 26.332h-1.914zm44.08-20.242c0 11.136-3.132 20.3-10.15 20.3-6.786 0-10.092-9.164-10.092-20.3C35.01 9.912 38.2.748 45.102.748c6.844 0 10.15 9.164 10.15 20.242zm-5.742-.348c0-16.24-1.392-18.56-4.408-18.56-2.9 0-4.35 2.32-4.35 18.676 0 16.878 1.334 19.256 4.35 19.256 3.016 0 4.408-2.378 4.408-19.372zM56.944 41v-.812l1.276-.348c1.16-.29 1.682-.87 1.682-2.494V4.634c0-1.624-.522-2.146-1.682-2.436l-1.276-.348v-.812h11.078c4.93 0 9.512 3.132 9.512 9.686 0 5.046-2.378 8.584-7.192 9.86 5.278.986 5.278 3.48 5.8 10.15l.348 5.104c.174 2.842.29 3.48 1.102 3.48.87 0 1.218-1.972 1.218-3.886v-.986h.986v1.334c0 3.19-.696 5.452-4.002 5.452-3.248 0-4.756-1.856-4.988-8.526l-.29-7.424c-.116-3.538-.986-4.06-2.668-4.06h-2.726v16.124c0 1.624.522 2.262 1.682 2.552l1.276.29V41H56.944zm8.178-38.802v17.864h1.914c3.248 0 4.872-.87 4.872-8.584 0-7.714-2.146-9.28-4.466-9.28h-2.32zm23.954 2.436c0-1.624.522-2.146 1.682-2.378l1.566-.348v-.87H80.84v.812l1.276.348c1.16.29 1.682.812 1.682 2.436v32.712c0 1.624-.522 2.204-1.682 2.494l-1.276.348V41h18.386V27.776h-.87c-.58 6.206-2.03 12.064-6.96 12.064h-2.32V4.634zm12.064-3.596h10.324c6.496 0 12.296 6.38 12.296 19.72 0 12.064-3.654 20.242-12.876 20.242h-9.744v-.812l1.276-.348c1.16-.29 1.682-.87 1.682-2.494V4.634c0-1.624-.522-2.146-1.682-2.436l-1.276-.348v-.812zm8.236 38.802h1.856c4.118 0 6.786-4.002 6.786-18.966 0-12.702-2.494-18.676-7.482-18.676h-1.16V39.84z"
    fill="#444"
    fill-rule="evenodd"
  /></svg>
