<svg width="220" height="42" xmlns="http://www.w3.org/2000/svg"><path
    d="M.353 41v-.812l1.276-.348c1.16-.29 1.682-.87 1.682-2.494V4.634c0-1.624-.522-2.146-1.682-2.436L.353 1.85v-.812h11.078c4.93 0 9.512 3.132 9.512 9.686 0 5.046-2.378 8.584-7.192 9.86 5.278.986 5.278 3.48 5.8 10.15l.348 5.104c.174 2.842.29 3.48 1.102 3.48.87 0 1.218-1.972 1.218-3.886v-.986h.986v1.334c0 3.19-.696 5.452-4.002 5.452-3.248 0-4.756-1.856-4.988-8.526l-.29-7.424c-.116-3.538-.986-4.06-2.668-4.06H8.531v16.124c0 1.624.522 2.262 1.682 2.552l1.276.29V41H.353zM8.531 2.198v17.864h1.914c3.248 0 4.872-.87 4.872-8.584 0-7.714-2.146-9.28-4.466-9.28h-2.32zm23.954 18.618l1.798.058c2.61.174 3.596 1.16 4.118 7.482h.87V12.232h-.87c-.638 5.046-1.566 7.192-4.06 7.366l-1.856.058V2.198h4.002c4.466 0 5.684 5.858 6.322 12.064h.87V1.038h-19.43v.812l1.276.348c1.16.29 1.682.87 1.682 2.494v32.654c0 1.624-.522 2.204-1.682 2.494l-1.276.348V41h20.01V27.776h-.87c-.696 6.148-1.682 12.064-6.902 12.064h-4.002V20.816zM52.901 41h-7.482v-.812l.696-.232c1.566-.522 1.682-1.45 2.494-5.394L55.685.806h1.74l7.424 34.858c.754 3.364.986 4.06 1.914 4.292l.928.232V41H56.265v-.812l1.218-.232c2.494-.464 2.494-1.16 1.856-4.64l-1.102-5.22h-7.134l-.754 3.944c-.87 4.466-.406 5.568 1.334 5.916l1.218.232V41zm1.682-28.71l-3.19 16.472h6.612L54.583 12.29zm22.388-7.656c0-1.624.522-2.146 1.682-2.378l1.566-.348v-.87H68.735v.812l1.276.348c1.16.29 1.682.812 1.682 2.436v32.712c0 1.624-.522 2.204-1.682 2.494l-1.276.348V41h18.386V27.776h-.87c-.58 6.206-2.03 12.064-6.96 12.064h-2.32V4.634zm28.536 16.182l1.798.058c2.61.174 3.596 1.16 4.118 7.482h.87V12.232h-.87c-.638 5.046-1.566 7.192-4.06 7.366l-1.856.058V2.198h4.002c4.466 0 5.684 5.858 6.322 12.064h.87V1.038h-19.43v.812l1.276.348c1.16.29 1.682.87 1.682 2.494v32.654c0 1.624-.522 2.204-1.682 2.494l-1.276.348V41h20.01V27.776h-.87c-.696 6.148-1.682 12.064-6.902 12.064h-4.002V20.816zm31.61 9.802c0-12.064-12.934-15.022-12.934-23.664 0-1.972.522-4.872 3.422-4.872 4.176 0 5.916 5.51 6.612 12.18h.87V1.038h-.696c-.29 1.276-.812 1.856-1.566 1.856-1.334 0-1.972-2.088-5.162-2.088-4.93 0-7.656 4.118-7.656 9.512 0 10.034 12.934 13.92 12.934 22.968 0 4.292-1.798 6.67-4.408 6.67-3.886 0-6.67-4.698-7.366-12.18h-.87V41h.696c.58-1.914 1.334-2.088 1.972-2.088 1.102 0 2.262 2.32 5.626 2.32 5.162 0 8.526-4.466 8.526-10.614zm13.514-28.42v35.148c0 1.624.522 2.204 1.682 2.494l1.508.348V41h-11.658v-.812l1.508-.348c1.16-.29 1.682-.87 1.682-2.494V2.198h-1.276c-3.596 0-5.046 5.858-5.452 12.064h-.87V1.038h20.474v13.224h-.87c-.406-6.206-1.856-12.064-5.452-12.064h-1.276zM164.013 41h-7.482v-.812l.696-.232c1.566-.522 1.682-1.45 2.494-5.394L166.797.806h1.74l7.424 34.858c.754 3.364.986 4.06 1.914 4.292l.928.232V41h-11.426v-.812l1.218-.232c2.494-.464 2.494-1.16 1.856-4.64l-1.102-5.22h-7.134l-.754 3.944c-.87 4.466-.406 5.568 1.334 5.916l1.218.232V41zm1.682-28.71l-3.19 16.472h6.612l-3.422-16.472zm24.386-10.092v35.148c0 1.624.522 2.204 1.682 2.494l1.508.348V41h-11.658v-.812l1.508-.348c1.16-.29 1.682-.87 1.682-2.494V2.198h-1.276c-3.596 0-5.046 5.858-5.452 12.064h-.87V1.038h20.474v13.224h-.87c-.406-6.206-1.856-12.064-5.452-12.064h-1.276zm17.69 18.618l1.798.058c2.61.174 3.596 1.16 4.118 7.482h.87V12.232h-.87c-.638 5.046-1.566 7.192-4.06 7.366l-1.856.058V2.198h4.002c4.466 0 5.684 5.858 6.322 12.064h.87V1.038h-19.43v.812l1.276.348c1.16.29 1.682.87 1.682 2.494v32.654c0 1.624-.522 2.204-1.682 2.494l-1.276.348V41h20.01V27.776h-.87c-.696 6.148-1.682 12.064-6.902 12.064h-4.002V20.816z"
    fill="#444"
    fill-rule="evenodd"
  /></svg>
