<svg width="165" height="42" xmlns="http://www.w3.org/2000/svg"><path
    d="M14.27 40.942L22.1 4.924v32.422c0 1.624-.638 2.262-1.74 2.494l-1.624.348V41h11.6v-.87l-1.276-.29c-1.16-.29-1.682-.928-1.682-2.552V4.634c0-1.624.522-2.146 1.682-2.436l1.276-.348v-.812h-8.874l-5.858 26.796L9.688 1.038H.93v.812l1.102.29c1.16.29 1.856.812 1.856 2.436v28.71c0 4.234.232 6.322-1.914 6.728l-1.044.174V41h8.178v-.812c-3.712-.522-3.712-1.856-3.712-6.554V6.142l8.004 34.8h.87zM38.862 41H31.38v-.812l.696-.232c1.566-.522 1.682-1.45 2.494-5.394L41.646.806h1.74l7.424 34.858c.754 3.364.986 4.06 1.914 4.292l.928.232V41H42.226v-.812l1.218-.232c2.494-.464 2.494-1.16 1.856-4.64l-1.102-5.22h-7.134l-.754 3.944c-.87 4.466-.406 5.568 1.334 5.916l1.218.232V41zm1.682-28.71l-3.19 16.472h6.612L40.544 12.29zM54.696 41v-.812l1.276-.348c1.16-.29 1.682-.87 1.682-2.494V4.634c0-1.624-.522-2.146-1.682-2.436l-1.276-.348v-.812h11.078c4.93 0 9.512 3.132 9.512 9.686 0 5.046-2.378 8.584-7.192 9.86 5.278.986 5.278 3.48 5.8 10.15l.348 5.104c.174 2.842.29 3.48 1.102 3.48.87 0 1.218-1.972 1.218-3.886v-.986h.986v1.334c0 3.19-.696 5.452-4.002 5.452-3.248 0-4.756-1.856-4.988-8.526l-.29-7.424c-.116-3.538-.986-4.06-2.668-4.06h-2.726v16.124c0 1.624.522 2.262 1.682 2.552l1.276.29V41H54.696zm8.178-38.802v17.864h1.914c3.248 0 4.872-.87 4.872-8.584 0-7.714-2.146-9.28-4.466-9.28h-2.32zM94.02 11.42c3.886-6.786 4.466-8.758 6.554-9.338l.812-.232v-.812h-8.874v.812l.812.174c3.48.754 3.19 1.856-.406 8.468l-6.09 11.136V4.576c0-1.624.638-2.088 1.74-2.378l1.334-.348v-.812h-11.31v.812l1.276.348c1.16.29 1.682.812 1.682 2.436v32.712c0 1.624-.522 2.204-1.682 2.494l-1.276.348V41h11.31v-.812l-1.334-.29c-1.102-.29-1.74-.928-1.74-2.552V24.064l1.102-1.914 4.988 13.224c1.334 4.06 1.276 4.176-.638 4.64l-.696.174V41h10.208v-.812l-.754-.232c-.986-.29-1.16-1.044-2.262-3.944l-7.482-19.836 2.726-4.756zm17.168 9.396l1.798.058c2.61.174 3.596 1.16 4.118 7.482h.87V12.232h-.87c-.638 5.046-1.566 7.192-4.06 7.366l-1.856.058V2.198h4.002c4.466 0 5.684 5.858 6.322 12.064h.87V1.038h-19.43v.812l1.276.348c1.16.29 1.682.87 1.682 2.494v32.654c0 1.624-.522 2.204-1.682 2.494l-1.276.348V41h20.01V27.776h-.87c-.696 6.148-1.682 12.064-6.902 12.064h-4.002V20.816zM137.81 2.198h1.276c3.596 0 5.046 5.858 5.452 12.064h.87V1.038h-20.474v13.224h.87c.406-6.206 1.856-12.064 5.452-12.064h1.276v35.148c0 1.624-.522 2.204-1.682 2.494l-1.508.348V41H141v-.812l-1.508-.348c-1.16-.29-1.682-.87-1.682-2.494V2.198zm26.912 28.42c0-12.064-12.934-15.022-12.934-23.664 0-1.972.522-4.872 3.422-4.872 4.176 0 5.916 5.51 6.612 12.18h.87V1.038h-.696c-.29 1.276-.812 1.856-1.566 1.856-1.334 0-1.972-2.088-5.162-2.088-4.93 0-7.656 4.118-7.656 9.512 0 10.034 12.934 13.92 12.934 22.968 0 4.292-1.798 6.67-4.408 6.67-3.886 0-6.67-4.698-7.366-12.18h-.87V41h.696c.58-1.914 1.334-2.088 1.972-2.088 1.102 0 2.262 2.32 5.626 2.32 5.162 0 8.526-4.466 8.526-10.614z"
    fill="#444"
    fill-rule="evenodd"
  /></svg>
