<svg width="54" height="42" xmlns="http://www.w3.org/2000/svg"><path
    d="M12.006 41.29c-5.568 0-8.874-3.364-8.874-9.454V4.634c0-1.624-.406-2.146-1.566-2.436L.29 1.85v-.812h11.542v.812l-1.566.348c-1.276.29-1.798.754-1.798 2.378v27.666c0 5.626 1.682 7.076 4.64 7.076 3.48 0 4.872-1.972 4.872-7.656V8.578c0-4.872-.058-6.032-2.146-6.496l-1.102-.232v-.812h7.714v.812l-.812.232c-1.972.58-2.088 2.32-2.088 6.554v23.026c0 6.264-2.146 9.628-7.54 9.628zm12.934-5.568c1.392 0 2.552 1.16 2.552 2.726s-1.16 2.726-2.552 2.726c-1.392 0-2.552-1.16-2.552-2.726s1.16-2.726 2.552-2.726zm22.04-5.104c0-12.064-12.934-15.022-12.934-23.664 0-1.972.522-4.872 3.422-4.872 4.176 0 5.916 5.51 6.612 12.18h.87V1.038h-.696c-.29 1.276-.812 1.856-1.566 1.856-1.334 0-1.972-2.088-5.162-2.088-4.93 0-7.656 4.118-7.656 9.512 0 10.034 12.934 13.92 12.934 22.968 0 4.292-1.798 6.67-4.408 6.67-3.886 0-6.67-4.698-7.366-12.18h-.87V41h.696c.58-1.914 1.334-2.088 1.972-2.088 1.102 0 2.262 2.32 5.626 2.32 5.162 0 8.526-4.466 8.526-10.614zm3.648 5.104c-1.392 0-2.552 1.16-2.552 2.726s1.16 2.726 2.552 2.726c1.392 0 2.552-1.16 2.552-2.726s-1.16-2.726-2.552-2.726z"
    fill="#444"
    fill-rule="evenodd"
  /></svg>
