<svg width="160" height="42" xmlns="http://www.w3.org/2000/svg"><path
    d="M11.652 41H.806v-.812l1.276-.348c1.16-.29 1.682-.87 1.682-2.494V4.634c0-1.624-.522-2.146-1.682-2.436L.806 1.85v-.812h10.672c4.292 0 9.164 3.19 9.164 9.802 0 4.292-2.378 8.41-7.134 9.28 5.858.812 8.294 4.35 8.294 9.976 0 5.916-3.538 10.904-10.15 10.904zM8.984 19.54h1.624c3.074 0 4.466-1.682 4.466-8.062 0-5.046-.696-9.28-3.828-9.28H8.984V19.54zm0 20.3h2.378c3.364 0 4.524-2.146 4.524-8.874 0-4.06-.58-7.25-1.682-8.7-.638-.812-1.624-1.45-3.19-1.45h-2.03V39.84zm25.91 1.45c5.394 0 7.54-3.364 7.54-9.628V8.636c0-4.234.116-5.974 2.088-6.554l.812-.232v-.812H37.62v.812l1.102.232c2.088.464 2.146 1.624 2.146 6.496v23.084c0 5.684-1.392 7.656-4.872 7.656-2.958 0-4.64-1.45-4.64-7.076V4.576c0-1.624.522-2.088 1.798-2.378l1.566-.348v-.812H23.178v.812l1.276.348c1.16.29 1.566.812 1.566 2.436v27.202c0 6.09 3.306 9.454 8.874 9.454zM63.53 30.618c0-12.064-12.934-15.022-12.934-23.664 0-1.972.522-4.872 3.422-4.872 4.176 0 5.916 5.51 6.612 12.18h.87V1.038h-.696c-.29 1.276-.812 1.856-1.566 1.856-1.334 0-1.972-2.088-5.162-2.088-4.93 0-7.656 4.118-7.656 9.512 0 10.034 12.934 13.92 12.934 22.968 0 4.292-1.798 6.67-4.408 6.67-3.886 0-6.67-4.698-7.366-12.18h-.87V41h.696c.58-1.914 1.334-2.088 1.972-2.088 1.102 0 2.262 2.32 5.626 2.32 5.162 0 8.526-4.466 8.526-10.614zM76.506 41v-.812l-1.334-.348c-1.16-.29-1.798-.812-1.798-2.436V4.634c0-1.624.638-2.146 1.798-2.436l1.334-.348v-.812h-11.6v.812l1.334.348c1.16.29 1.798.812 1.798 2.436v32.77c0 1.624-.638 2.146-1.798 2.436l-1.334.348V41h11.6zm4.45-35.438v27.724c0 4.234.058 6.322-2.088 6.728l-1.044.174V41h8.352v-.812c-3.712-.522-3.712-1.856-3.712-6.554V9.042L95.456 41h1.856V8.752c0-4.06-.174-6.09 2.32-6.67l.812-.232v-.812H91.86v.812l.986.232c3.074.522 2.958 2.03 2.958 6.322V27.37L85.422 1.038h-7.598v.812l.812.232c.928.348 1.334 1.45 2.32 3.48zm28.752 15.254l1.798.058c2.61.174 3.596 1.16 4.118 7.482h.87V12.232h-.87c-.638 5.046-1.566 7.192-4.06 7.366l-1.856.058V2.198h4.002c4.466 0 5.684 5.858 6.322 12.064h.87V1.038h-19.43v.812l1.276.348c1.16.29 1.682.87 1.682 2.494v32.654c0 1.624-.522 2.204-1.682 2.494l-1.276.348V41h20.01V27.776h-.87c-.696 6.148-1.682 12.064-6.902 12.064h-4.002V20.816zm31.304 9.802c0-12.064-12.934-15.022-12.934-23.664 0-1.972.522-4.872 3.422-4.872 4.176 0 5.916 5.51 6.612 12.18h.87V1.038h-.696c-.29 1.276-.812 1.856-1.566 1.856-1.334 0-1.972-2.088-5.162-2.088-4.93 0-7.656 4.118-7.656 9.512 0 10.034 12.934 13.92 12.934 22.968 0 4.292-1.798 6.67-4.408 6.67-3.886 0-6.67-4.698-7.366-12.18h-.87V41h.696c.58-1.914 1.334-2.088 1.972-2.088 1.102 0 2.262 2.32 5.626 2.32 5.162 0 8.526-4.466 8.526-10.614zm18.776 0c0-12.064-12.934-15.022-12.934-23.664 0-1.972.522-4.872 3.422-4.872 4.176 0 5.916 5.51 6.612 12.18h.87V1.038h-.696c-.29 1.276-.812 1.856-1.566 1.856-1.334 0-1.972-2.088-5.162-2.088-4.93 0-7.656 4.118-7.656 9.512 0 10.034 12.934 13.92 12.934 22.968 0 4.292-1.798 6.67-4.408 6.67-3.886 0-6.67-4.698-7.366-12.18h-.87V41h.696c.58-1.914 1.334-2.088 1.972-2.088 1.102 0 2.262 2.32 5.626 2.32 5.162 0 8.526-4.466 8.526-10.614z"
    fill="#444"
    fill-rule="evenodd"
  /></svg>
