<svg width="76" height="41" xmlns="http://www.w3.org/2000/svg"><path
    d="M8.236 4.402c0-1.624.522-2.146 1.682-2.378l1.566-.348v-.87H0v.812l1.276.348c1.16.29 1.682.812 1.682 2.436v32.712c0 1.624-.522 2.204-1.682 2.494L0 39.956v.812h18.386V27.544h-.87c-.58 6.206-2.03 12.064-6.96 12.064h-2.32V4.402zm23.722 36.366v-.812l-1.334-.348c-1.16-.29-1.798-.812-1.798-2.436V4.402c0-1.624.638-2.146 1.798-2.436l1.334-.348V.806h-11.6v.812l1.334.348c1.16.29 1.798.812 1.798 2.436v32.77c0 1.624-.638 2.146-1.798 2.436l-1.334.348v.812h11.6zm1.74 0h11.484v-.87l-1.566-.348c-1.16-.232-1.682-.754-1.682-2.378V20.874l1.74.058c2.61.174 3.77 1.16 4.408 7.482h.87V12.29h-.87c-.754 5.046-1.856 7.192-4.35 7.366l-1.798.058V1.966h4.234c4.466 0 5.684 5.858 6.322 12.064h.87V.806H33.698v.812l1.276.348c1.16.29 1.682.812 1.682 2.436v32.712c0 1.624-.522 2.204-1.682 2.494l-1.276.348v.812zM63.51 20.584l1.798.058c2.61.174 3.596 1.16 4.118 7.482h.87V12h-.87c-.638 5.046-1.566 7.192-4.06 7.366l-1.856.058V1.966h4.002c4.466 0 5.684 5.858 6.322 12.064h.87V.806h-19.43v.812l1.276.348c1.16.29 1.682.87 1.682 2.494v32.654c0 1.624-.522 2.204-1.682 2.494l-1.276.348v.812h20.01V27.544h-.87c-.696 6.148-1.682 12.064-6.902 12.064H63.51V20.584z"
    fill="#444"
    fill-rule="evenodd"
  /></svg>
