<svg width="176" height="42" xmlns="http://www.w3.org/2000/svg"><path
    d="M13.978 40.942l7.83-36.018v32.422c0 1.624-.638 2.262-1.74 2.494l-1.624.348V41h11.6v-.87l-1.276-.29c-1.16-.29-1.682-.928-1.682-2.552V4.634c0-1.624.522-2.146 1.682-2.436l1.276-.348v-.812H21.17l-5.858 26.796L9.396 1.038H.638v.812l1.102.29c1.16.29 1.856.812 1.856 2.436v28.71c0 4.234.232 6.322-1.914 6.728l-1.044.174V41h8.178v-.812c-3.712-.522-3.712-1.856-3.712-6.554V6.142l8.004 34.8h.87zM38.57 41h-7.482v-.812l.696-.232c1.566-.522 1.682-1.45 2.494-5.394L41.354.806h1.74l7.424 34.858c.754 3.364.986 4.06 1.914 4.292l.928.232V41H41.934v-.812l1.218-.232c2.494-.464 2.494-1.16 1.856-4.64l-1.102-5.22h-7.134l-.754 3.944c-.87 4.466-.406 5.568 1.334 5.916l1.218.232V41zm1.682-28.71l-3.19 16.472h6.612L40.252 12.29zm12.802 8.7C53.054 9.912 56.998.748 64.016.748c3.132 0 3.944 2.204 5.22 2.204.754 0 1.16-.638 1.45-1.914h.812v13.224h-.87c-.696-7.366-2.494-12.18-6.438-12.18-2.61 0-5.394 2.262-5.394 18.676 0 16.878 1.624 19.256 4.698 19.256 2.146 0 3.422-1.334 3.886-2.552V26.036c0-1.624-.522-2.146-1.682-2.436l-1.508-.29v-.812h10.788v.812l-1.16.29c-1.044.29-1.74.754-1.74 2.378V41h-.58c-.754-1.914-1.566-2.088-2.378-2.088-1.16 0-2.204 2.378-5.8 2.378-6.728 0-10.266-9.164-10.266-20.3zM81.764 41h-7.482v-.812l.696-.232c1.566-.522 1.682-1.45 2.494-5.394L84.548.806h1.74l7.424 34.858c.754 3.364.986 4.06 1.914 4.292l.928.232V41H85.128v-.812l1.218-.232c2.494-.464 2.494-1.16 1.856-4.64l-1.102-5.22h-7.134l-.754 3.944c-.87 4.466-.406 5.568 1.334 5.916l1.218.232V41zm1.682-28.71l-3.19 16.472h6.612L83.446 12.29zM97.54 41h18.212V27.776h-.87c-.638 6.148-1.566 12.064-6.322 12.064h-5.568l13.224-37.468V1.038H99.048v13.224h.87c.58-6.206 1.682-12.064 5.742-12.064h5.162L97.54 39.666V41zm32.248 0v-.812l-1.334-.348c-1.16-.29-1.798-.812-1.798-2.436V4.634c0-1.624.638-2.146 1.798-2.436l1.334-.348v-.812h-11.6v.812l1.334.348c1.16.29 1.798.812 1.798 2.436v32.77c0 1.624-.638 2.146-1.798 2.436l-1.334.348V41h11.6zm4.756-35.438v27.724c0 4.234.058 6.322-2.088 6.728l-1.044.174V41h8.352v-.812c-3.712-.522-3.712-1.856-3.712-6.554V9.042L149.044 41h1.856V8.752c0-4.06-.174-6.09 2.32-6.67l.812-.232v-.812h-8.584v.812l.986.232c3.074.522 2.958 2.03 2.958 6.322V27.37L139.01 1.038h-7.598v.812l.812.232c.928.348 1.334 1.45 2.32 3.48zm29.058 15.254l1.798.058c2.61.174 3.596 1.16 4.118 7.482h.87V12.232h-.87c-.638 5.046-1.566 7.192-4.06 7.366l-1.856.058V2.198h4.002c4.466 0 5.684 5.858 6.322 12.064h.87V1.038h-19.43v.812l1.276.348c1.16.29 1.682.87 1.682 2.494v32.654c0 1.624-.522 2.204-1.682 2.494l-1.276.348V41h20.01V27.776h-.87c-.696 6.148-1.682 12.064-6.902 12.064h-4.002V20.816z"
    fill="#444"
    fill-rule="evenodd"
  /></svg>
