<svg width="297" height="49" xmlns="http://www.w3.org/2000/svg"><path
    d="M.759 48v-.966l1.518-.414c1.38-.345 2.001-1.035 2.001-2.967V4.737c0-1.932-.621-2.553-2.001-2.898L.759 1.425V.459h13.179c5.865 0 11.592 4.14 11.592 12.903 0 6.693-2.76 13.869-11.799 13.869h-3.105v16.422c0 1.932.621 2.622 2.001 2.967l1.794.414V48H.759zm9.867-46.161v24.012h2.346c3.864 0 5.796-1.173 5.796-11.937 0-9.936-2.553-12.075-5.313-12.075h-2.829zM26.703 48v-.966l1.518-.414c1.38-.345 2.001-1.035 2.001-2.967V4.737c0-1.932-.621-2.553-2.001-2.898l-1.518-.414V.459h13.179c5.865 0 11.316 3.726 11.316 11.523 0 6.003-2.829 10.212-8.556 11.73 6.279 1.173 6.279 4.14 6.9 12.075l.414 6.072c.207 3.381.345 4.14 1.311 4.14 1.035 0 1.449-2.346 1.449-4.623v-1.173h1.173v1.587c0 3.795-.828 6.486-4.761 6.486-3.864 0-5.658-2.208-5.934-10.143l-.345-8.832c-.138-4.209-1.173-4.83-3.174-4.83h-3.243v19.182c0 1.932.621 2.691 2.001 3.036l1.518.345V48H26.703zm9.729-46.161v21.252h2.277c3.864 0 5.796-1.035 5.796-10.212s-2.553-11.04-5.313-11.04h-2.76zM68.517 48h-13.8v-.966l1.587-.414c1.38-.345 2.139-.966 2.139-2.898V4.737c0-1.932-.759-2.553-2.139-2.898l-1.587-.414V.459h13.8v.966l-1.587.414c-1.38.345-2.139.966-2.139 2.898v38.985c0 1.932.759 2.553 2.139 2.898l1.587.414V48zm5.175-42.159c-1.173-2.415-1.656-3.726-2.76-4.14l-.966-.276V.459h9.039l12.351 31.326V9.222c0-5.106.138-6.9-3.519-7.521l-1.173-.276V.459h10.212v.966l-.966.276c-2.967.69-2.76 3.105-2.76 7.935V48h-2.208L75.486 9.981v29.256c0 5.589 0 7.176 4.416 7.797V48h-9.936v-.966l1.242-.207c2.553-.483 2.484-2.967 2.484-8.004V5.841zm39.813-4.002v41.814c0 1.932.621 2.622 2.001 2.967l1.794.414V48h-13.869v-.966l1.794-.414c1.38-.345 2.001-1.035 2.001-2.967V1.839h-1.518c-4.278 0-6.003 6.969-6.486 14.352h-1.035V.459h24.357v15.732h-1.035c-.483-7.383-2.208-14.352-6.486-14.352h-1.518zm29.877 22.149V46.62h4.761c6.21 0 7.383-7.038 8.211-14.352h1.035V48h-23.805v-.966l1.518-.414c1.38-.345 2.001-1.035 2.001-2.967V4.806c0-1.932-.621-2.622-2.001-2.967l-1.518-.414V.459h23.115v15.732h-1.035c-.759-7.383-2.208-14.352-7.521-14.352h-4.761v20.769l2.208-.069c2.967-.207 4.071-2.76 4.83-8.763h1.035v19.182h-1.035c-.621-7.521-1.794-8.694-4.899-8.901l-2.139-.069zM159.735.459h12.282c7.728 0 14.628 7.59 14.628 23.46 0 14.352-4.347 24.081-15.318 24.081h-11.592v-.966l1.518-.414c1.38-.345 2.001-1.035 2.001-2.967V4.737c0-1.932-.621-2.553-2.001-2.898l-1.518-.414V.459zm9.798 46.161h2.208c4.899 0 8.073-4.761 8.073-22.563 0-15.111-2.967-22.218-8.901-22.218h-1.38V46.62zm31.42 1.38h-13.8v-.966l1.587-.414c1.38-.345 2.139-.966 2.139-2.898V4.737c0-1.932-.759-2.553-2.139-2.898l-1.587-.414V.459h13.8v.966l-1.587.414c-1.38.345-2.139.966-2.139 2.898v38.985c0 1.932.759 2.553 2.139 2.898l1.587.414V48zm17.112-46.161v41.814c0 1.932.621 2.622 2.001 2.967l1.794.414V48h-13.869v-.966l1.794-.414c1.38-.345 2.001-1.035 2.001-2.967V1.839h-1.518c-4.278 0-6.003 6.969-6.486 14.352h-1.035V.459h24.357v15.732h-1.035c-.483-7.383-2.208-14.352-6.486-14.352h-1.518zM242.698 48h-13.8v-.966l1.587-.414c1.38-.345 2.139-.966 2.139-2.898V4.737c0-1.932-.759-2.553-2.139-2.898l-1.587-.414V.459h13.8v.966l-1.587.414c-1.38.345-2.139.966-2.139 2.898v38.985c0 1.932.759 2.553 2.139 2.898l1.587.414V48zm25.351-23.805c0 13.248-3.726 24.15-12.075 24.15-8.073 0-12.006-10.902-12.006-24.15 0-13.179 3.795-24.081 12.006-24.081 8.142 0 12.075 10.902 12.075 24.081zm-6.831-.414c0-19.32-1.656-22.08-5.244-22.08-3.45 0-5.175 2.76-5.175 22.218 0 20.079 1.587 22.908 5.175 22.908s5.244-2.829 5.244-23.046zm11.62-17.94c-1.173-2.415-1.656-3.726-2.76-4.14l-.966-.276V.459h9.039l12.351 31.326V9.222c0-5.106.138-6.9-3.519-7.521l-1.173-.276V.459h10.212v.966l-.966.276c-2.967.69-2.76 3.105-2.76 7.935V48h-2.208L274.632 9.981v29.256c0 5.589 0 7.176 4.416 7.797V48h-9.936v-.966l1.242-.207c2.553-.483 2.484-2.967 2.484-8.004V5.841z"
    fill="#444444"
    fill-rule="evenodd"
  /></svg>
