<svg width="87" height="41" xmlns="http://www.w3.org/2000/svg"><path
    d="M7.482 40.194H0v-.812l.696-.232c1.566-.522 1.682-1.45 2.494-5.394L10.266 0h1.74l7.424 34.858c.754 3.364.986 4.06 1.914 4.292l.928.232v.812H10.846v-.812l1.218-.232c2.494-.464 2.494-1.16 1.856-4.64l-1.102-5.22H5.684l-.754 3.944c-.87 4.466-.406 5.568 1.334 5.916l1.218.232v.812zm1.682-28.71l-3.19 16.472h6.612L9.164 11.484zm14.152 28.71v-.812l1.276-.348c1.16-.29 1.682-.87 1.682-2.494V3.828c0-1.624-.522-2.146-1.682-2.436l-1.276-.348V.232h11.078c4.93 0 9.512 3.132 9.512 9.686 0 5.046-2.378 8.584-7.192 9.86 5.278.986 5.278 3.48 5.8 10.15l.348 5.104c.174 2.842.29 3.48 1.102 3.48.87 0 1.218-1.972 1.218-3.886v-.986h.986v1.334c0 3.19-.696 5.452-4.002 5.452-3.248 0-4.756-1.856-4.988-8.526l-.29-7.424c-.116-3.538-.986-4.06-2.668-4.06h-2.726V36.54c0 1.624.522 2.262 1.682 2.552l1.276.29v.812H23.316zm8.178-38.802v17.864h1.914c3.248 0 4.872-.87 4.872-8.584 0-7.714-2.146-9.28-4.466-9.28h-2.32zm28.188 0h1.276c3.596 0 5.046 5.858 5.452 12.064h.87V.232H46.806v13.224h.87c.406-6.206 1.856-12.064 5.452-12.064h1.276V36.54c0 1.624-.522 2.204-1.682 2.494l-1.508.348v.812h11.658v-.812l-1.508-.348c-1.16-.29-1.682-.87-1.682-2.494V1.392zm26.912 28.42c0-12.064-12.934-15.022-12.934-23.664 0-1.972.522-4.872 3.422-4.872 4.176 0 5.916 5.51 6.612 12.18h.87V.232h-.696c-.29 1.276-.812 1.856-1.566 1.856C80.968 2.088 80.33 0 77.14 0c-4.93 0-7.656 4.118-7.656 9.512 0 10.034 12.934 13.92 12.934 22.968 0 4.292-1.798 6.67-4.408 6.67-3.886 0-6.67-4.698-7.366-12.18h-.87v13.224h.696c.58-1.914 1.334-2.088 1.972-2.088 1.102 0 2.262 2.32 5.626 2.32 5.162 0 8.526-4.466 8.526-10.614z"
    fill="#444"
    fill-rule="evenodd"
  /></svg>
