<svg xmlns="http://www.w3.org/2000/svg" xmlns:xlink="http://www.w3.org/1999/xlink" width="24" height="24" viewBox="0 0 24 24"><defs><path id="link-medium_svg__a" d="M3.121 16.192a1 1 0 000 1.415l3.536 3.535a1 1 0 001.414 0l2.671-2.672.707.707-2.67 2.672a2 2 0 01-2.83 0l-3.535-3.535a2 2 0 010-2.829l6-6 .61-.61.001-.003.46-.458a2 2 0 012.829 0l2.554 2.555-.707.707-2.554-2.555a1 1 0 00-1.415 0l-7.07 7.071zM18.314 2.414l3.535 3.536a2 2 0 010 2.828l-7.07 7.071a2 2 0 01-2.83 0l-2.834-2.835.707-.707 2.835 2.835a1 1 0 001.414 0l1.071-1.07c.033-.034.063-.068.09-.104l1.132-1.132.002.01 4.776-4.775a1 1 0 000-1.414L17.607 3.12a1 1 0 00-1.415 0L13.52 5.792l-.707-.707 2.672-2.67a2 2 0 012.829 0z"></path></defs><use fill="#222" fill-rule="evenodd" xlink:href="#link-medium_svg__a"></use></svg>
