<svg
	xmlns="http://www.w3.org/2000/svg"
	xmlns:xlink="http://www.w3.org/1999/xlink" width="24" height="24" viewBox="0 0 24 24">
	<defs>
		<path id="mail-stroke-medium-a" d="M20,4 C21.1045695,4 22,4.8954305 22,6 L22,18 C22,19.1045695 21.1045695,20 20,20 L4,20 C2.8954305,20 2,19.1045695 2,18 L2,6 C2,4.8954305 2.8954305,4 4,4 L20,4 Z M14.457,10.958 L12.5112905,12.5014113 L11.4299091,12.4926625 L9.538,11 L3.12487577,18.484277 C3.27756586,18.7596107 3.55642109,18.9552966 3.88337887,18.9932723 L4,19 L20,19 C20.3851352,19 20.7194188,18.782278 20.8864838,18.4632009 L14.457,10.958 Z M3.00672773,5.88337887 L3,6 L3,17.092 L8.752,10.381 L3.01086967,5.85204445 C3.00932824,5.86243797 3.00794674,5.87288364 3.00672773,5.88337887 Z M20.9773488,5.78737741 L15.242,10.335 L21,17.057 L21,6 C21,5.92703697 20.9921859,5.85589903 20.9773488,5.78737741 Z M20,5 L4,5 C3.87082416,5 3.74736891,5.0244928 3.63402496,5.0690877 L11.78,11.495 L12.166,11.499 L20.3018382,5.04635953 C20.2423145,5.0275371 20.1803825,5.01413351 20.1166211,5.00672773 L20,5 Z"/>
	</defs>
	<use fill="#222" fill-rule="evenodd" xlink:href="#mail-stroke-medium-a"/>
</svg>
