<svg width="24" height="24" viewBox="0 0 24 24">
  <path
    fill="currentColor"
    fillRule="evenodd"
    d="M13.913 2.363l8.215 6.61v1.224l-8.215 6.914-.893-.652.893-3.816H8.901c-2.598 0-4.301 2.656-4.202 4.623.098 1.966.831 3.187 2.052 3.98l-.424.677C4.423 20.74 1.983 17.927 1.825 14.5c-.157-3.426 1.902-7.94 6.854-7.934l5.234-.005-.893-3.602.893-.597zm.763 2.035l.642 3.333-6.89-.144c-4.222-.005-5.74 4.4-5.669 6.622.062 1.185.46 3.008 1.133 4.102.288.333-.345-1.286.276-3.13.62-1.843 2.346-3.448 4.776-3.534l6.374-.197-.642 3.543 5.766-5.022v-.786l-5.766-4.787z"
  />
</svg>
