<svg width="24px" height="24px" viewBox="0 0 24 24" version="1.1" xmlns="http://www.w3.org/2000/svg" xmlns:xlink="http://www.w3.org/1999/xlink">
  <defs>
    <path d="M19,9 L19,5.43126313 L16.5943841,3 L5,3 L5,9 L19,9 Z M19,18 L5,18 L5,21 L19,21 L19,18 Z M20,10 L4,10 C3.48716416,10 3.06449284,10.3860402 3.00672773,10.8833789 L3,11 L3,16 C3,16.5128358 3.38604019,16.9355072 3.88337887,16.9932723 L4,17 L20,17 C20.5128358,17 20.9355072,16.6139598 20.9932723,16.1166211 L21,16 L21,11 C21,10.4871642 20.6139598,10.0644928 20.1166211,10.0067277 L20,10 Z M17.9665509,12 C18.2426933,12 18.4665509,12.2238576 18.4665509,12.5 C18.4665509,12.7454599 18.2896758,12.9496084 18.0564266,12.9919443 L17.9665509,13 L16,13 C15.7238576,13 15.5,12.7761424 15.5,12.5 C15.5,12.2545401 15.6768752,12.0503916 15.9101244,12.0080557 L16,12 L17.9665509,12 Z M4,2 L17.0117071,2 L20,5.02015223 L20,9 C21.1045695,9 22,9.8954305 22,11 L22,16 C22,17.1045695 21.1045695,18 20,18 L20,22 L4,22 L4,18 C2.8954305,18 2,17.1045695 2,16 L2,11 C2,9.8954305 2.8954305,9 4,9 L4,2 Z" id="path-1"></path>
  </defs>
  <g id="Standard/medium/print-stroke-medium" stroke="none" stroke-width="1" fill="none" fill-rule="evenodd">
    <g id="print-stroke-medium">
      <mask id="mask-2" fill="white">
        <use xlink:href="#path-1"></use>
      </mask>
      <use id="Mask" fill="#222222" xlink:href="#path-1"></use>
    </g>
  </g>
</svg>
