<svg
	xmlns="http://www.w3.org/2000/svg" width="24" height="24" viewBox="0 0 24 24">
	<path fill="#1877F2" fill-rule="evenodd" d="M21.9423997,11.9711999 C21.9423997,6.46425419 17.4781456,2 11.9711999,2 C6.46425419,2 2,6.46425419 2,11.9711999 C2,16.948114 5.64632368,21.0732305 10.4131999,21.8212653 L10.4131999,14.8534998 L7.88144993,14.8534998 L7.88144993,11.9711999 L10.4131999,11.9711999 L10.4131999,9.7744199 C10.4131999,7.27538793 11.9018299,5.89499995 14.1794701,5.89499995 C15.2704012,5.89499995 16.4114998,6.08974995 16.4114998,6.08974995 L16.4114998,8.54359992 L15.1541549,8.54359992 C13.9154865,8.54359992 13.5291999,9.31221973 13.5291999,10.1007625 L13.5291999,11.9711999 L16.2946498,11.9711999 L15.8525673,14.8534998 L13.5291999,14.8534998 L13.5291999,21.8212653 C18.2960761,21.0732305 21.9423997,16.948114 21.9423997,11.9711999"/>
</svg>
