<svg width="24" height="24" viewBox="0 0 24 24">
  <g fill="none" fillRule="evenodd">
    <rect width="18" height="18" x="3" y="3" fill="#2867B2" rx="1.338" />
    <g fill="#FFF">
      <path
        d="M6.98 8.017c.831 0 1.531-.679 1.531-1.51C8.511 5.677 7.818 5 6.987 5a1.508 1.508 0 10-.007 3.017zM5.652 9.193h2.675v8.415H5.652zM9.981 9.2h2.55v1.145c.62-.908 1.453-1.366 2.5-1.375.975-.008 3.211.093 3.197 3.567v5.073l-2.637.003.004-3.873v-.724c-.046-1.21-.529-1.787-1.45-1.73-.51.03-1.532.152-1.51 1.94.008.71.01 2.174.003 4.39H9.98V9.2z"
      />
    </g>
    <path
      fill="#2867B2"
      fillRule="nonzero"
      d="M23 21a.997.997 0 001-1.005.965.965 0 00-.08-.394A.999.999 0 0023 19a.983.983 0 00-.704.288 1.006 1.006 0 000 1.426A1.012 1.012 0 0023 21zm0-.145a.816.816 0 01-.328-.066.856.856 0 01-.447-.449.85.85 0 01-.065-.335c0-.123.022-.238.065-.342a.826.826 0 01.447-.452.816.816 0 01.328-.066.83.83 0 01.775.514.86.86 0 01.065.336.877.877 0 01-.245.613.816.816 0 01-.595.247zm-.21-.269v-.497h.205l.314.497h.174l-.331-.51a.396.396 0 00.216-.087c.059-.048.088-.124.088-.228 0-.117-.033-.201-.099-.254-.065-.053-.168-.08-.306-.08h-.422v1.159h.16zm0-.642v-.371h.247c.03 0 .061.001.092.005s.06.012.084.024c.025.013.045.031.06.055a.178.178 0 01.023.096.192.192 0 01-.025.107.155.155 0 01-.07.057.31.31 0 01-.1.023 1.597 1.597 0 01-.114.004h-.198z"
    />
  </g>
</svg>
