<svg
  xmlns="http://www.w3.org/2000/svg"
  xmlns:xlink="http://www.w3.org/1999/xlink"
  width="24"
  height="24"
  viewBox="0 0 24 24"
>
          <defs>
                    <path
      id="whatsapp-color-medium-b"
      d="M7.43046774,18.708179 L7.73690323,18.8898242 C9.02453226,19.6539048 10.5007742,20.0580339 12.0061452,20.0588081 L12.0094355,20.0588081 C16.6325323,20.0588081 20.3952581,16.2970016 20.3972423,11.6735177 C20.3979194,9.43285645 19.5264194,7.32598548 17.9427097,5.74111452 C16.3589032,4.15629194 14.2530968,3.28290484 12.0125806,3.28198548 C7.38580645,3.28198548 3.62317742,7.04330806 3.62133804,11.6666952 C3.62070968,13.2510339 4.06398387,14.7939532 4.90369355,16.1291468 L5.10333871,16.4463242 L4.25579032,19.5405339 L7.43046774,18.708179 Z M1.83275806,21.9373887 L3.26448387,16.7096952 C2.38141935,15.1797435 1.91685484,13.4440984 1.91748387,11.6660177 C1.91970968,6.10353387 6.44666129,1.57803387 12.0094355,1.57803387 C14.7089032,1.57919516 17.2426452,2.62987258 19.148129,4.5366629 C21.053371,6.44359839 22.1021613,8.97835645 22.1012425,11.6741952 C22.098871,17.2363887 17.5712903,21.7627113 12.0094355,21.7627113 C12.0090484,21.7627113 12.0096774,21.7627113 12.0094355,21.7627113 L12.0050806,21.7627113 C10.3162258,21.7620339 8.65659677,21.3384048 7.18262903,20.5345984 L1.83275806,21.9373887 Z"
    />
                    <filter
      id="whatsapp-color-medium-a"
      width="114.8%"
      height="114.7%"
      x="-7.4%"
      y="-7.4%"
      filterUnits="objectBoundingBox"
    >
                              <feOffset
        in="SourceAlpha"
        result="shadowOffsetOuter1"
      />
                              <feGaussianBlur
        in="shadowOffsetOuter1"
        result="shadowBlurOuter1"
        stdDeviation=".5"
      />
                              <feColorMatrix
        in="shadowBlurOuter1"
        values="0 0 0 0 0   0 0 0 0 0   0 0 0 0 0  0 0 0 0.5 0"
      />
                    </filter>
                    <path
      id="whatsapp-color-medium-c"
      d="M2.26529032,11.6693226 C2.26475806,13.3855161 2.71320968,15.0613065 3.56593548,16.5382742 L3.56593548,16.5382742 L2.18375806,21.5850968 L7.34840323,20.2308871 C8.77127419,21.0063387 10.373371,21.4156452 12.0037742,21.4161774 L12.0037742,21.4161774 L12.008129,21.4161774 C17.3772581,21.4161774 21.7479194,17.0469677 21.750146,11.6769677 L21.750146,11.6769677 C21.7512097,9.0746129 20.7387581,6.62772581 18.8992258,4.7868871 L18.8992258,4.7868871 C17.0600323,2.94604839 14.6139194,1.93175806 12.0076935,1.93054839 L12.0076935,1.93054839 C6.6378871,1.93054839 2.26751613,6.29937097 2.26529032,11.6693226"
    />
                    <linearGradient
      id="whatsapp-color-medium-d"
      x1="49.9999303%"
      x2="49.9999303%"
      y1="100.000083%"
      y2=".0000908187%"
    >
                              <stop offset="0%" stop-color="#1FAF38" />
                              <stop offset="100%" stop-color="#60D669" />
                    </linearGradient>
                    <path
      id="whatsapp-color-medium-f"
      d="M1.91748387,11.6660323 C1.91680645,13.4441129 2.38141935,15.1797581 3.26448387,16.7097097 L3.26448387,16.7097097 L1.83275806,21.9374032 L7.18262903,20.5346129 C8.65659677,21.3384194 10.3162258,21.7620484 12.005129,21.7627258 L12.005129,21.7627258 L12.0094839,21.7627258 C17.5712419,21.7627258 22.098871,17.2363548 22.1012425,11.6742097 L22.1012425,11.6742097 C22.1021613,8.97832258 21.0533226,6.4436129 19.1480806,4.53667742 L19.1480806,4.53667742 C17.2426452,2.62983871 14.7089032,1.57920968 12.0094839,1.57804839 L12.0094839,1.57804839 C6.44666129,1.57804839 1.91975806,6.10354839 1.91748387,11.6660323 L1.91748387,11.6660323 Z M5.10333871,16.4463387 L4.90374194,16.1291613 C4.06398387,14.7939677 3.62070968,13.2510484 3.62133804,11.6666613 L3.62133804,11.6666613 C3.62317742,7.04332258 7.38580645,3.282 12.0125806,3.282 L12.0125806,3.282 C14.2531452,3.28296774 16.3589032,4.15625806 17.9427097,5.74112903 L17.9427097,5.74112903 C19.5264194,7.326 20.397871,9.43287097 20.3972423,11.6735323 L20.3972423,11.6735323 C20.3952097,16.2970161 16.6325323,20.0588226 12.0094839,20.0588226 L12.0094839,20.0588226 L12.0061452,20.0588226 C10.5007258,20.0580484 9.02453226,19.6539194 7.73690323,18.8898387 L7.73690323,18.8898387 L7.43046774,18.7081935 L4.25574194,19.5405484 L5.10333871,16.4463387 Z"
    />
                    <linearGradient
      id="whatsapp-color-medium-g"
      x1="50.0000187%"
      x2="50.0000187%"
      y1="99.9999404%"
      y2="-.0001054283%"
    >
                              <stop offset="0%" stop-color="#F9F9F9" />
                              <stop offset="100%" stop-color="#FFF" />
                    </linearGradient>
          </defs>
          <g fill="none" fill-rule="evenodd">
                    <use
      fill="#000"
      filter="url(#whatsapp-color-medium-a)"
      xlink:href="#whatsapp-color-medium-b"
    />
                    <use fill="#FFF" xlink:href="#whatsapp-color-medium-b" />
                    <mask id="whatsapp-color-medium-e" fill="#fff">
                              <use xlink:href="#whatsapp-color-medium-c" />
                    </mask>
                    <path
      fill="url(#whatsapp-color-medium-d)"
      d="M2.26529032,11.6693226 C2.26475806,13.3855161 2.71320968,15.0613065 3.56593548,16.5382742 L3.56593548,16.5382742 L2.18375806,21.5850968 L7.34840323,20.2308871 C8.77127419,21.0063387 10.373371,21.4156452 12.0037742,21.4161774 L12.0037742,21.4161774 L12.008129,21.4161774 C17.3772581,21.4161774 21.7479194,17.0469677 21.750146,11.6769677 L21.750146,11.6769677 C21.7512097,9.0746129 20.7387581,6.62772581 18.8992258,4.7868871 L18.8992258,4.7868871 C17.0600323,2.94604839 14.6139194,1.93175806 12.0076935,1.93054839 L12.0076935,1.93054839 C6.6378871,1.93054839 2.26751613,6.29937097 2.26529032,11.6693226"
      mask="url(#whatsapp-color-medium-e)"
    />
                    <mask id="whatsapp-color-medium-h" fill="#fff">
                              <use xlink:href="#whatsapp-color-medium-f" />
                    </mask>
                    <path
      fill="url(#whatsapp-color-medium-g)"
      d="M1.91748387,11.6660323 C1.91680645,13.4441129 2.38141935,15.1797581 3.26448387,16.7097097 L3.26448387,16.7097097 L1.83275806,21.9374032 L7.18262903,20.5346129 C8.65659677,21.3384194 10.3162258,21.7620484 12.005129,21.7627258 L12.005129,21.7627258 L12.0094839,21.7627258 C17.5712419,21.7627258 22.098871,17.2363548 22.1012425,11.6742097 L22.1012425,11.6742097 C22.1021613,8.97832258 21.0533226,6.4436129 19.1480806,4.53667742 L19.1480806,4.53667742 C17.2426452,2.62983871 14.7089032,1.57920968 12.0094839,1.57804839 L12.0094839,1.57804839 C6.44666129,1.57804839 1.91975806,6.10354839 1.91748387,11.6660323 L1.91748387,11.6660323 Z M5.10333871,16.4463387 L4.90374194,16.1291613 C4.06398387,14.7939677 3.62070968,13.2510484 3.62133804,11.6666613 L3.62133804,11.6666613 C3.62317742,7.04332258 7.38580645,3.282 12.0125806,3.282 L12.0125806,3.282 C14.2531452,3.28296774 16.3589032,4.15625806 17.9427097,5.74112903 L17.9427097,5.74112903 C19.5264194,7.326 20.397871,9.43287097 20.3972423,11.6735323 L20.3972423,11.6735323 C20.3952097,16.2970161 16.6325323,20.0588226 12.0094839,20.0588226 L12.0094839,20.0588226 L12.0061452,20.0588226 C10.5007258,20.0580484 9.02453226,19.6539194 7.73690323,18.8898387 L7.73690323,18.8898387 L7.43046774,18.7081935 L4.25574194,19.5405484 L5.10333871,16.4463387 Z"
      mask="url(#whatsapp-color-medium-h)"
    />
                    <path
      fill="#FFF"
      d="M9.48713226,7.44868548 C9.29827742,7.02873387 9.09940645,7.02031452 8.91969677,7.01300806 C8.77274516,7.00666935 8.60445484,7.00709848 8.43650323,7.00709848 C8.26835806,7.00709848 7.99516452,7.07025 7.76411613,7.32258871 C7.53292258,7.57487903 6.88143871,8.18489516 6.88143871,9.42549194 C6.88143871,10.6661855 7.78511613,11.8650242 7.91106774,12.0334113 C8.03716452,12.2015565 9.65551935,14.8287823 12.2185355,15.8394919 C14.3486323,16.6794919 14.7820839,16.5124113 15.2444226,16.4703629 C15.7067613,16.4283629 16.7362452,15.8605403 16.9464387,15.2717177 C17.1565839,14.6829919 17.1565839,14.1783145 17.0935355,14.0728306 C17.0304871,13.9678306 16.8623903,13.9047339 16.6101968,13.7786371 C16.3580032,13.6525403 15.1183258,13.0424274 14.8871806,12.958379 C14.6559871,12.8743306 14.4878903,12.8322823 14.3197452,13.0847661 C14.1516,13.3369113 13.6686484,13.9047339 13.5215032,14.0728306 C13.3744065,14.2414113 13.2273097,14.2623629 12.9751161,14.1363145 C12.7229226,14.0098306 11.9107935,13.7438468 10.9473581,12.8848306 C10.1977452,12.2165081 9.69166452,11.391121 9.54456774,11.1386855 C9.39742258,10.8864435 9.52874516,10.7498952 9.65527742,10.6241371 C9.76845484,10.5112016 9.90747097,10.3297984 10.0335194,10.1825565 C10.1593742,10.0353629 10.2014226,9.93026613 10.285471,9.76212097 C10.3695194,9.59373387 10.3275194,9.44649194 10.264471,9.32039516 C10.2014226,9.19429839 9.71135806,7.94726613 9.48713226,7.44868548"
    />
          </g>
</svg>
