<svg
  xmlns="http://www.w3.org/2000/svg"
  xmlns:xlink="http://www.w3.org/1999/xlink"
  width="16"
  height="16"
  viewBox="0 0 16 16"
>
  <defs>
    <path
      id="volume2-filled-small-a"
      d="M12.0798798,2.00606242 C13.9935915,3.31118824 15.25,5.50886916 15.25,8 C15.25,10.5061999 13.9783453,12.7153889 12.0450791,14.0175239 L11.4687356,13.1998676 C13.1456719,12.078988 14.25,10.1684588 14.25,8 C14.25,5.84446916 13.1588003,3.94380168 11.4986673,2.82026403 L12.0798798,2.00606242 Z M6.22410859,2.34107059 L6.90000004,3.01405484 L6.90000004,13.0140548 L6.19594817,13.7054957 L3.244,10.7400706 L2.39999998,10.740097 C1.62680134,10.740097 1,10.1132957 1,9.34009707 L1,6.61512808 C1,5.84192944 1.62680134,5.2151281 2.39999998,5.2151281 L3.355,5.21507059 L6.22410859,2.34107059 Z M9.82005212,4 C11.3120469,4.73269242 12.3390303,6.26722166 12.3390303,8.04161573 C12.3390303,9.83320319 11.2920481,11.3802548 9.77655062,12.1043039 L9.20489766,11.2650818 C10.4592322,10.732922 11.3390303,9.49001281 11.3390303,8.04161573 C11.3390303,6.60826594 10.4774176,5.37615659 9.24386937,4.83496495 L9.82005212,4 Z"
    />
  </defs>
  <use fill="#222" fill-rule="evenodd" xlink:href="#volume2-filled-small-a" />
</svg>
